G04 #@! TF.GenerationSoftware,KiCad,Pcbnew,(7.0.0)*
G04 #@! TF.CreationDate,2023-02-19T17:41:55+09:00*
G04 #@! TF.ProjectId,RPiPico_SimpleBoard,52506950-6963-46f5-9f53-696d706c6542,rev?*
G04 #@! TF.SameCoordinates,PX1496ff0PY1496ff0*
G04 #@! TF.FileFunction,Paste,Top*
G04 #@! TF.FilePolarity,Positive*
%FSLAX46Y46*%
G04 Gerber Fmt 4.6, Leading zero omitted, Abs format (unit mm)*
G04 Created by KiCad (PCBNEW (7.0.0)) date 2023-02-19 17:41:55*
%MOMM*%
%LPD*%
G01*
G04 APERTURE LIST*
%ADD10R,1.200000X2.800000*%
%ADD11R,2.800000X1.200000*%
G04 APERTURE END LIST*
D10*
G04 #@! TO.C,U1*
X-24129999Y-10159999D03*
X-21589999Y-10159999D03*
X-19049999Y-10159999D03*
X-16509999Y-10159999D03*
X-13969999Y-10159999D03*
X-11429999Y-10159999D03*
X-8889999Y-10159999D03*
X-6349999Y-10159999D03*
X-3809999Y-10159999D03*
X-1269999Y-10159999D03*
X1269999Y-10159999D03*
X3809999Y-10159999D03*
X6349999Y-10159999D03*
X8889999Y-10159999D03*
X11429999Y-10159999D03*
X13969999Y-10159999D03*
X16509999Y-10159999D03*
X19049999Y-10159999D03*
X21589999Y-10159999D03*
X24129999Y-10159999D03*
X24129999Y10159999D03*
X21589999Y10159999D03*
X19049999Y10159999D03*
X16509999Y10159999D03*
X13969999Y10159999D03*
X11429999Y10159999D03*
X8889999Y10159999D03*
X6349999Y10159999D03*
X3809999Y10159999D03*
X1269999Y10159999D03*
X-1269999Y10159999D03*
X-3809999Y10159999D03*
X-6349999Y10159999D03*
X-8889999Y10159999D03*
X-11429999Y10159999D03*
X-13969999Y10159999D03*
X-16509999Y10159999D03*
X-19049999Y10159999D03*
X-21589999Y10159999D03*
X-24129999Y10159999D03*
D11*
X25399999Y-2539999D03*
X25399999Y0D03*
X25399999Y2539999D03*
G04 #@! TD*
M02*
