M48
; DRILL file {KiCad 7.0.1} date Wed May 10 09:07:33 2023
; FORMAT={3:3/ absolute / metric / suppress leading zeros}
; #@! TF.CreationDate,2023-05-10T09:07:33+09:00
; #@! TF.GenerationSoftware,Kicad,Pcbnew,7.0.1
; #@! TF.FileFunction,Plated,1,2,PTH
FMAT,2
METRIC,TZ
; #@! TA.AperFunction,Plated,PTH,ViaDrill
T1C0.400
; #@! TA.AperFunction,Plated,PTH,ComponentDrill
T2C0.700
; #@! TA.AperFunction,Plated,PTH,ComponentDrill
T3C0.800
; #@! TA.AperFunction,Plated,PTH,ComponentDrill
T4C1.000
%
G90
G05
T1
X-30000Y15000
X-30000Y10000
X-30000Y-10000
X-30000Y-15000
X-25000Y25000
X-25000Y-25000
X-22800Y5500
X-20400Y5700
X-20000Y25000
X-20000Y-25000
X-18400Y1000
X-18200Y3500
X-17800Y-7500
X-17000Y-5400
X-15200Y-7700
X-15000Y25000
X-15000Y-25000
X-12700Y-7700
X-12600Y-3300
X-12300Y-5600
X-11000Y-4500
X-10900Y-5800
X-10000Y25000
X-10000Y-25000
X-8900Y3600
X-8900Y-6400
X-8700Y700
X-8100Y-4200
X-7600Y-7700
X-7200Y-700
X-6800Y2500
X-6300Y-5900
X-5800Y-1900
X-5400Y1100
X-5000Y25000
X-5000Y-25000
X-4200Y-300
X-4000Y-2100
X-3600Y-3300
X-3300Y-1000
X-2900Y6400
X-200Y7300
X-200Y5500
X-200Y3700
X0Y25000
X0Y-25000
X5000Y25000
X5000Y-25000
X5100Y17800
X6300Y5500
X6300Y3700
X6300Y-700
X6300Y-3700
X6300Y-5900
X10000Y25000
X10000Y-25000
X15000Y25000
X15000Y-25000
X17900Y-3300
X18900Y-4200
X18900Y-5900
X19000Y5500
X20000Y25000
X20000Y-25000
X20200Y-3800
X21900Y-4000
X22300Y3800
X22300Y1300
X22300Y-1400
X25000Y25000
X25000Y-25000
X25700Y-7700
X27200Y19600
X27200Y17600
X27200Y3800
X27200Y-3900
X28100Y-9700
X28600Y-7900
X30000Y25000
X30000Y-25000
X30900Y-7900
X30900Y-9700
X31000Y3800
X31100Y-4000
X31400Y16200
X31400Y14300
X32600Y3800
X34300Y7300
X34600Y-7500
X35000Y25000
X35000Y-25000
X35100Y0
X37600Y0
X40000Y-20000
X45000Y15000
X45000Y10000
X45000Y5000
X45000Y0
X45000Y-5000
X45000Y-10000
X45000Y-15000
T3
X-24130Y15240
X-24130Y12700
X-24130Y8890
X-24130Y-8890
X-24130Y-12700
X-24130Y-15240
X-21590Y15240
X-21590Y12700
X-21590Y8890
X-21590Y-8890
X-21590Y-12700
X-21590Y-15240
X-19050Y15240
X-19050Y12700
X-19050Y8890
X-19050Y-8890
X-19050Y-12700
X-19050Y-15240
X-16510Y15240
X-16510Y12700
X-16510Y8890
X-16510Y-8890
X-16510Y-12700
X-16510Y-15240
X-13970Y15240
X-13970Y12700
X-13970Y8890
X-13970Y-8890
X-13970Y-12700
X-13970Y-15240
X-11430Y15240
X-11430Y12700
X-11430Y8890
X-11430Y-8890
X-11430Y-12700
X-11430Y-15240
X-8890Y15240
X-8890Y12700
X-8890Y8890
X-8890Y-8890
X-8890Y-12700
X-8890Y-15240
X-6350Y15240
X-6350Y12700
X-6350Y8890
X-6350Y-8890
X-6350Y-12700
X-6350Y-15240
X-3810Y15240
X-3810Y12700
X-3810Y8890
X-3810Y-8890
X-3810Y-12700
X-3810Y-15240
X-1270Y15240
X-1270Y12700
X-1270Y8890
X-1270Y-8890
X-1270Y-12700
X-1270Y-15240
X1270Y15240
X1270Y12700
X1270Y8890
X1270Y-8890
X1270Y-12700
X1270Y-15240
X3810Y15240
X3810Y12700
X3810Y8890
X3810Y-8890
X3810Y-12700
X3810Y-15240
X6350Y15240
X6350Y12700
X6350Y8890
X6350Y-8890
X6350Y-12700
X6350Y-15240
X8890Y15240
X8890Y12700
X8890Y8890
X8890Y-8890
X8890Y-12700
X8890Y-15240
X11430Y15240
X11430Y12700
X11430Y8890
X11430Y-8890
X11430Y-12700
X11430Y-15240
X13970Y15240
X13970Y12700
X13970Y8890
X13970Y-8890
X13970Y-12700
X13970Y-15240
X16510Y15240
X16510Y12700
X16510Y8890
X16510Y-8890
X16510Y-12700
X16510Y-15240
X19050Y15240
X19050Y12700
X19050Y8890
X19050Y-8890
X19050Y-12700
X19050Y-15240
X21590Y15240
X21590Y12700
X21590Y8890
X21590Y-8890
X21590Y-12700
X21590Y-15240
X24130Y15240
X24130Y12700
X24130Y8890
X24130Y-8890
X24130Y-12700
X24130Y-15240
X36265Y6350
X36265Y3810
X36265Y1270
X36265Y-1270
X36265Y-3810
X36265Y-6350
T4
X23900Y2540
X23900Y0
X23900Y-2540
X29210Y2540
X29210Y0
X29210Y-2540
X29210Y-5080
T2
G00X33580Y14990
M15
G01X33580Y15490
M16
G05
G00X40080Y14990
M15
G01X40080Y15490
M16
G05
T0
M30
