G04 #@! TF.GenerationSoftware,KiCad,Pcbnew,7.0.1*
G04 #@! TF.CreationDate,2023-05-10T09:07:30+09:00*
G04 #@! TF.ProjectId,RPiPico_SimpleBoard,52506950-6963-46f5-9f53-696d706c6542,rev?*
G04 #@! TF.SameCoordinates,PX1496ff0PY1496ff0*
G04 #@! TF.FileFunction,Soldermask,Bot*
G04 #@! TF.FilePolarity,Negative*
%FSLAX46Y46*%
G04 Gerber Fmt 4.6, Leading zero omitted, Abs format (unit mm)*
G04 Created by KiCad (PCBNEW 7.0.1) date 2023-05-10 09:07:30*
%MOMM*%
%LPD*%
G01*
G04 APERTURE LIST*
%ADD10C,4.050000*%
%ADD11C,1.500000*%
%ADD12O,1.500000X2.000000*%
%ADD13O,1.200000X2.000000*%
%ADD14O,2.000000X1.400000*%
%ADD15C,3.200000*%
%ADD16R,1.700000X1.700000*%
%ADD17O,1.700000X1.700000*%
G04 APERTURE END LIST*
D10*
X-27975000Y23000000D02*
G75*
G03*
X-27975000Y23000000I-2025000J0D01*
G01*
X46025000Y23000000D02*
G75*
G03*
X46025000Y23000000I-2025000J0D01*
G01*
X-27975000Y-23000000D02*
G75*
G03*
X-27975000Y-23000000I-2025000J0D01*
G01*
X46025000Y-23000000D02*
G75*
G03*
X46025000Y-23000000I-2025000J0D01*
G01*
D11*
G04 #@! TO.C,J5*
X36265000Y6350000D03*
X36265000Y3810000D03*
X36265000Y1270000D03*
X36265000Y-1270000D03*
X36265000Y-3810000D03*
X36265000Y-6350000D03*
G04 #@! TD*
D12*
G04 #@! TO.C,SW1*
X33580000Y15240000D03*
X40080000Y15240000D03*
G04 #@! TD*
D13*
G04 #@! TO.C,U1*
X-24130000Y-8890000D03*
X-21590000Y-8890000D03*
X-19050000Y-8890000D03*
X-16510000Y-8890000D03*
X-13970000Y-8890000D03*
X-11430000Y-8890000D03*
X-8890000Y-8890000D03*
X-6350000Y-8890000D03*
X-3810000Y-8890000D03*
X-1270000Y-8890000D03*
X1270000Y-8890000D03*
X3810000Y-8890000D03*
X6350000Y-8890000D03*
X8890000Y-8890000D03*
X11430000Y-8890000D03*
X13970000Y-8890000D03*
X16510000Y-8890000D03*
X19050000Y-8890000D03*
X21590000Y-8890000D03*
X24130000Y-8890000D03*
X24130000Y8890000D03*
X21590000Y8890000D03*
X19050000Y8890000D03*
X16510000Y8890000D03*
X13970000Y8890000D03*
X11430000Y8890000D03*
X8890000Y8890000D03*
X6350000Y8890000D03*
X3810000Y8890000D03*
X1270000Y8890000D03*
X-1270000Y8890000D03*
X-3810000Y8890000D03*
X-6350000Y8890000D03*
X-8890000Y8890000D03*
X-11430000Y8890000D03*
X-13970000Y8890000D03*
X-16510000Y8890000D03*
X-19050000Y8890000D03*
X-21590000Y8890000D03*
X-24130000Y8890000D03*
D14*
X23900000Y-2540000D03*
X23900000Y0D03*
X23900000Y2540000D03*
G04 #@! TD*
D15*
G04 #@! TO.C,H4*
X44000000Y-23000000D03*
G04 #@! TD*
G04 #@! TO.C,H2*
X-30000000Y23000000D03*
G04 #@! TD*
D11*
G04 #@! TO.C,J3*
X-24130000Y12700000D03*
X-21590000Y12700000D03*
X-19050000Y12700000D03*
X-16510000Y12700000D03*
X-13970000Y12700000D03*
X-11430000Y12700000D03*
X-8890000Y12700000D03*
X-6350000Y12700000D03*
X-3810000Y12700000D03*
X-1270000Y12700000D03*
X1270000Y12700000D03*
X3810000Y12700000D03*
X6350000Y12700000D03*
X8890000Y12700000D03*
X11430000Y12700000D03*
X13970000Y12700000D03*
X16510000Y12700000D03*
X19050000Y12700000D03*
X21590000Y12700000D03*
X24130000Y12700000D03*
G04 #@! TD*
G04 #@! TO.C,J1*
X-24130000Y-15240000D03*
X-21590000Y-15240000D03*
X-19050000Y-15240000D03*
X-16510000Y-15240000D03*
X-13970000Y-15240000D03*
X-11430000Y-15240000D03*
X-8890000Y-15240000D03*
X-6350000Y-15240000D03*
X-3810000Y-15240000D03*
X-1270000Y-15240000D03*
X1270000Y-15240000D03*
X3810000Y-15240000D03*
X6350000Y-15240000D03*
X8890000Y-15240000D03*
X11430000Y-15240000D03*
X13970000Y-15240000D03*
X16510000Y-15240000D03*
X19050000Y-15240000D03*
X21590000Y-15240000D03*
X24130000Y-15240000D03*
G04 #@! TD*
G04 #@! TO.C,J2*
X-24130000Y-12700000D03*
X-21590000Y-12700000D03*
X-19050000Y-12700000D03*
X-16510000Y-12700000D03*
X-13970000Y-12700000D03*
X-11430000Y-12700000D03*
X-8890000Y-12700000D03*
X-6350000Y-12700000D03*
X-3810000Y-12700000D03*
X-1270000Y-12700000D03*
X1270000Y-12700000D03*
X3810000Y-12700000D03*
X6350000Y-12700000D03*
X8890000Y-12700000D03*
X11430000Y-12700000D03*
X13970000Y-12700000D03*
X16510000Y-12700000D03*
X19050000Y-12700000D03*
X21590000Y-12700000D03*
X24130000Y-12700000D03*
G04 #@! TD*
G04 #@! TO.C,J4*
X-24130000Y15240000D03*
X-21590000Y15240000D03*
X-19050000Y15240000D03*
X-16510000Y15240000D03*
X-13970000Y15240000D03*
X-11430000Y15240000D03*
X-8890000Y15240000D03*
X-6350000Y15240000D03*
X-3810000Y15240000D03*
X-1270000Y15240000D03*
X1270000Y15240000D03*
X3810000Y15240000D03*
X6350000Y15240000D03*
X8890000Y15240000D03*
X11430000Y15240000D03*
X13970000Y15240000D03*
X16510000Y15240000D03*
X19050000Y15240000D03*
X21590000Y15240000D03*
X24130000Y15240000D03*
G04 #@! TD*
D16*
G04 #@! TO.C,J6*
X29210000Y2540000D03*
D17*
X29210000Y0D03*
X29210000Y-2540000D03*
X29210000Y-5080000D03*
G04 #@! TD*
D15*
G04 #@! TO.C,H3*
X44000000Y23000000D03*
G04 #@! TD*
G04 #@! TO.C,H1*
X-30000000Y-23000000D03*
G04 #@! TD*
M02*
