G04 #@! TF.GenerationSoftware,KiCad,Pcbnew,7.0.1*
G04 #@! TF.CreationDate,2023-05-10T09:07:29+09:00*
G04 #@! TF.ProjectId,RPiPico_SimpleBoard,52506950-6963-46f5-9f53-696d706c6542,rev?*
G04 #@! TF.SameCoordinates,PX1496ff0PY1496ff0*
G04 #@! TF.FileFunction,Copper,L2,Bot*
G04 #@! TF.FilePolarity,Positive*
%FSLAX46Y46*%
G04 Gerber Fmt 4.6, Leading zero omitted, Abs format (unit mm)*
G04 Created by KiCad (PCBNEW 7.0.1) date 2023-05-10 09:07:29*
%MOMM*%
%LPD*%
G01*
G04 APERTURE LIST*
G04 #@! TA.AperFunction,ComponentPad*
%ADD10C,1.500000*%
G04 #@! TD*
G04 #@! TA.AperFunction,ComponentPad*
%ADD11O,1.500000X2.000000*%
G04 #@! TD*
G04 #@! TA.AperFunction,ComponentPad*
%ADD12O,1.200000X2.000000*%
G04 #@! TD*
G04 #@! TA.AperFunction,ComponentPad*
%ADD13O,2.000000X1.400000*%
G04 #@! TD*
G04 #@! TA.AperFunction,ComponentPad*
%ADD14R,1.700000X1.700000*%
G04 #@! TD*
G04 #@! TA.AperFunction,ComponentPad*
%ADD15O,1.700000X1.700000*%
G04 #@! TD*
G04 #@! TA.AperFunction,ViaPad*
%ADD16C,0.800000*%
G04 #@! TD*
G04 #@! TA.AperFunction,Conductor*
%ADD17C,0.300000*%
G04 #@! TD*
G04 #@! TA.AperFunction,Conductor*
%ADD18C,1.000000*%
G04 #@! TD*
G04 #@! TA.AperFunction,Conductor*
%ADD19C,0.800000*%
G04 #@! TD*
G04 APERTURE END LIST*
D10*
G04 #@! TO.P,J5,1,Pin_1*
G04 #@! TO.N,/GP3_SWDIO*
X36265000Y6350000D03*
G04 #@! TO.P,J5,2,Pin_2*
G04 #@! TO.N,GND*
X36265000Y3810000D03*
G04 #@! TO.P,J5,3,Pin_3*
G04 #@! TO.N,/GP2_SWCLK*
X36265000Y1270000D03*
G04 #@! TO.P,J5,4,Pin_4*
G04 #@! TO.N,/GP4_U1TX*
X36265000Y-1270000D03*
G04 #@! TO.P,J5,5,Pin_5*
G04 #@! TO.N,/GP5_U1RX*
X36265000Y-3810000D03*
G04 #@! TO.P,J5,6,Pin_6*
G04 #@! TO.N,/VSYS*
X36265000Y-6350000D03*
G04 #@! TD*
D11*
G04 #@! TO.P,SW1,1,1*
G04 #@! TO.N,/RUN*
X33580000Y15240000D03*
G04 #@! TO.P,SW1,2,2*
G04 #@! TO.N,GND*
X40080000Y15240000D03*
G04 #@! TD*
D12*
G04 #@! TO.P,U1,1,GP0/SPI0_RX/I2C0_SDA/UART0_TX*
G04 #@! TO.N,/GP0*
X-24130000Y-8890000D03*
G04 #@! TO.P,U1,2,GP1/SPI0_CSn/I2C0_SCL/UART0_RX*
G04 #@! TO.N,/GP1*
X-21590000Y-8890000D03*
G04 #@! TO.P,U1,3,GND*
G04 #@! TO.N,GND*
X-19050000Y-8890000D03*
G04 #@! TO.P,U1,4,GP2/SPI0_SCK/I2C1_SDA*
G04 #@! TO.N,/GP2_SWCLK*
X-16510000Y-8890000D03*
G04 #@! TO.P,U1,5,GP3/SPI0_TX/I2C1_SCL*
G04 #@! TO.N,/GP3_SWDIO*
X-13970000Y-8890000D03*
G04 #@! TO.P,U1,6,GP4/SPI0_RX/I2C0_SDA/UART1_TX*
G04 #@! TO.N,/GP4_U1TX*
X-11430000Y-8890000D03*
G04 #@! TO.P,U1,7,GP5/SPI0_CSn/I2C0_SCL/UART1_RX*
G04 #@! TO.N,/GP5_U1RX*
X-8890000Y-8890000D03*
G04 #@! TO.P,U1,8,GND*
G04 #@! TO.N,GND*
X-6350000Y-8890000D03*
G04 #@! TO.P,U1,9,GP6/SPI0_SCK/I2C1_SDA*
G04 #@! TO.N,/GP6*
X-3810000Y-8890000D03*
G04 #@! TO.P,U1,10,GP7/SPI0_TX/I2C1_SCL*
G04 #@! TO.N,/GP7*
X-1270000Y-8890000D03*
G04 #@! TO.P,U1,11,GP8/SPI1_RX/I2C0_SDA/UART1_TX*
G04 #@! TO.N,/GP8*
X1270000Y-8890000D03*
G04 #@! TO.P,U1,12,GP9/SPI1_CSn/I2C0_SCL/UART1_RX*
G04 #@! TO.N,/GP9*
X3810000Y-8890000D03*
G04 #@! TO.P,U1,13,GND*
G04 #@! TO.N,GND*
X6350000Y-8890000D03*
G04 #@! TO.P,U1,14,GP10/SPI1_SCK/I2C1_SDA*
G04 #@! TO.N,/GP10*
X8890000Y-8890000D03*
G04 #@! TO.P,U1,15,GP11/SPI1_TX/I2C1_SCL*
G04 #@! TO.N,/GP11*
X11430000Y-8890000D03*
G04 #@! TO.P,U1,16,GP12/SPI1_RX/I2C0_SDA/UART0_TX*
G04 #@! TO.N,/GP12*
X13970000Y-8890000D03*
G04 #@! TO.P,U1,17,GP13/SPI1_CSn/I2C0_SCL/UART0_RX*
G04 #@! TO.N,/GP13*
X16510000Y-8890000D03*
G04 #@! TO.P,U1,18,GND*
G04 #@! TO.N,GND*
X19050000Y-8890000D03*
G04 #@! TO.P,U1,19,GP14/SPI1_SCK/I2C1_SDA*
G04 #@! TO.N,/GP14*
X21590000Y-8890000D03*
G04 #@! TO.P,U1,20,GP15/SPI1_TX/I2C1_SCL*
G04 #@! TO.N,/GP15*
X24130000Y-8890000D03*
G04 #@! TO.P,U1,21,GP16/SPI0_RX/I2C0_SDA/UART0_TX*
G04 #@! TO.N,/GP16*
X24130000Y8890000D03*
G04 #@! TO.P,U1,22,GP17/SPI0_CSn/I2C0_SCL/UART0_RX*
G04 #@! TO.N,/GP17*
X21590000Y8890000D03*
G04 #@! TO.P,U1,23,GND*
G04 #@! TO.N,GND*
X19050000Y8890000D03*
G04 #@! TO.P,U1,24,GP18/SPI0_SCK/I2C1_SDA*
G04 #@! TO.N,/GP18*
X16510000Y8890000D03*
G04 #@! TO.P,U1,25,GP19/SPI0_TX/I2C1_SCL*
G04 #@! TO.N,/GP19*
X13970000Y8890000D03*
G04 #@! TO.P,U1,26,GP20/I2C0_SDA*
G04 #@! TO.N,/GP20*
X11430000Y8890000D03*
G04 #@! TO.P,U1,27,GP21/I2C0_SCL*
G04 #@! TO.N,/GP21*
X8890000Y8890000D03*
G04 #@! TO.P,U1,28,GND*
G04 #@! TO.N,GND*
X6350000Y8890000D03*
G04 #@! TO.P,U1,29,GP22*
G04 #@! TO.N,/GP22*
X3810000Y8890000D03*
G04 #@! TO.P,U1,30,RUN*
G04 #@! TO.N,/RUN*
X1270000Y8890000D03*
G04 #@! TO.P,U1,31,GP26/ADC0/I2C1_SDA*
G04 #@! TO.N,/GP26*
X-1270000Y8890000D03*
G04 #@! TO.P,U1,32,GP27/ADC1/I2C1_SCL*
G04 #@! TO.N,/GP27*
X-3810000Y8890000D03*
G04 #@! TO.P,U1,33,GND/AGND*
G04 #@! TO.N,GND*
X-6350000Y8890000D03*
G04 #@! TO.P,U1,34,GP28/ADC2*
G04 #@! TO.N,/GP28*
X-8890000Y8890000D03*
G04 #@! TO.P,U1,35,ADC_VREF*
G04 #@! TO.N,/ADC_VREF*
X-11430000Y8890000D03*
G04 #@! TO.P,U1,36,3V3_OUT*
G04 #@! TO.N,/3V3_OUT*
X-13970000Y8890000D03*
G04 #@! TO.P,U1,37,3V3_EN*
G04 #@! TO.N,/3V3_EN*
X-16510000Y8890000D03*
G04 #@! TO.P,U1,38,GND*
G04 #@! TO.N,GND*
X-19050000Y8890000D03*
G04 #@! TO.P,U1,39,VSYS*
G04 #@! TO.N,/VSYS*
X-21590000Y8890000D03*
G04 #@! TO.P,U1,40,VBUS*
G04 #@! TO.N,/VBUS*
X-24130000Y8890000D03*
D13*
G04 #@! TO.P,U1,41,SWCLK*
G04 #@! TO.N,/SWCLK*
X23900000Y-2540000D03*
G04 #@! TO.P,U1,42,GND*
G04 #@! TO.N,GND*
X23900000Y0D03*
G04 #@! TO.P,U1,43,SWDIO*
G04 #@! TO.N,/SWDIO*
X23900000Y2540000D03*
G04 #@! TD*
D10*
G04 #@! TO.P,J3,1,Pin_1*
G04 #@! TO.N,/VBUS*
X-24130000Y12700000D03*
G04 #@! TO.P,J3,2,Pin_2*
G04 #@! TO.N,/VSYS*
X-21590000Y12700000D03*
G04 #@! TO.P,J3,3,Pin_3*
G04 #@! TO.N,GND*
X-19050000Y12700000D03*
G04 #@! TO.P,J3,4,Pin_4*
G04 #@! TO.N,/3V3_EN*
X-16510000Y12700000D03*
G04 #@! TO.P,J3,5,Pin_5*
G04 #@! TO.N,/3V3_OUT*
X-13970000Y12700000D03*
G04 #@! TO.P,J3,6,Pin_6*
G04 #@! TO.N,/ADC_VREF*
X-11430000Y12700000D03*
G04 #@! TO.P,J3,7,Pin_7*
G04 #@! TO.N,/GP28*
X-8890000Y12700000D03*
G04 #@! TO.P,J3,8,Pin_8*
G04 #@! TO.N,GND*
X-6350000Y12700000D03*
G04 #@! TO.P,J3,9,Pin_9*
G04 #@! TO.N,/GP27*
X-3810000Y12700000D03*
G04 #@! TO.P,J3,10,Pin_10*
G04 #@! TO.N,/GP26*
X-1270000Y12700000D03*
G04 #@! TO.P,J3,11,Pin_11*
G04 #@! TO.N,/RUN*
X1270000Y12700000D03*
G04 #@! TO.P,J3,12,Pin_12*
G04 #@! TO.N,/GP22*
X3810000Y12700000D03*
G04 #@! TO.P,J3,13,Pin_13*
G04 #@! TO.N,GND*
X6350000Y12700000D03*
G04 #@! TO.P,J3,14,Pin_14*
G04 #@! TO.N,/GP21*
X8890000Y12700000D03*
G04 #@! TO.P,J3,15,Pin_15*
G04 #@! TO.N,/GP20*
X11430000Y12700000D03*
G04 #@! TO.P,J3,16,Pin_16*
G04 #@! TO.N,/GP19*
X13970000Y12700000D03*
G04 #@! TO.P,J3,17,Pin_17*
G04 #@! TO.N,/GP18*
X16510000Y12700000D03*
G04 #@! TO.P,J3,18,Pin_18*
G04 #@! TO.N,GND*
X19050000Y12700000D03*
G04 #@! TO.P,J3,19,Pin_19*
G04 #@! TO.N,/GP17*
X21590000Y12700000D03*
G04 #@! TO.P,J3,20,Pin_20*
G04 #@! TO.N,/GP16*
X24130000Y12700000D03*
G04 #@! TD*
G04 #@! TO.P,J1,1,Pin_1*
G04 #@! TO.N,/GP0*
X-24130000Y-15240000D03*
G04 #@! TO.P,J1,2,Pin_2*
G04 #@! TO.N,/GP1*
X-21590000Y-15240000D03*
G04 #@! TO.P,J1,3,Pin_3*
G04 #@! TO.N,GND*
X-19050000Y-15240000D03*
G04 #@! TO.P,J1,4,Pin_4*
G04 #@! TO.N,/GP2_SWCLK*
X-16510000Y-15240000D03*
G04 #@! TO.P,J1,5,Pin_5*
G04 #@! TO.N,/GP3_SWDIO*
X-13970000Y-15240000D03*
G04 #@! TO.P,J1,6,Pin_6*
G04 #@! TO.N,/GP4_U1TX*
X-11430000Y-15240000D03*
G04 #@! TO.P,J1,7,Pin_7*
G04 #@! TO.N,/GP5_U1RX*
X-8890000Y-15240000D03*
G04 #@! TO.P,J1,8,Pin_8*
G04 #@! TO.N,GND*
X-6350000Y-15240000D03*
G04 #@! TO.P,J1,9,Pin_9*
G04 #@! TO.N,/GP6*
X-3810000Y-15240000D03*
G04 #@! TO.P,J1,10,Pin_10*
G04 #@! TO.N,/GP7*
X-1270000Y-15240000D03*
G04 #@! TO.P,J1,11,Pin_11*
G04 #@! TO.N,/GP8*
X1270000Y-15240000D03*
G04 #@! TO.P,J1,12,Pin_12*
G04 #@! TO.N,/GP9*
X3810000Y-15240000D03*
G04 #@! TO.P,J1,13,Pin_13*
G04 #@! TO.N,GND*
X6350000Y-15240000D03*
G04 #@! TO.P,J1,14,Pin_14*
G04 #@! TO.N,/GP10*
X8890000Y-15240000D03*
G04 #@! TO.P,J1,15,Pin_15*
G04 #@! TO.N,/GP11*
X11430000Y-15240000D03*
G04 #@! TO.P,J1,16,Pin_16*
G04 #@! TO.N,/GP12*
X13970000Y-15240000D03*
G04 #@! TO.P,J1,17,Pin_17*
G04 #@! TO.N,/GP13*
X16510000Y-15240000D03*
G04 #@! TO.P,J1,18,Pin_18*
G04 #@! TO.N,GND*
X19050000Y-15240000D03*
G04 #@! TO.P,J1,19,Pin_19*
G04 #@! TO.N,/GP14*
X21590000Y-15240000D03*
G04 #@! TO.P,J1,20,Pin_20*
G04 #@! TO.N,/GP15*
X24130000Y-15240000D03*
G04 #@! TD*
G04 #@! TO.P,J2,1,Pin_1*
G04 #@! TO.N,/GP0*
X-24130000Y-12700000D03*
G04 #@! TO.P,J2,2,Pin_2*
G04 #@! TO.N,/GP1*
X-21590000Y-12700000D03*
G04 #@! TO.P,J2,3,Pin_3*
G04 #@! TO.N,GND*
X-19050000Y-12700000D03*
G04 #@! TO.P,J2,4,Pin_4*
G04 #@! TO.N,/GP2_SWCLK*
X-16510000Y-12700000D03*
G04 #@! TO.P,J2,5,Pin_5*
G04 #@! TO.N,/GP3_SWDIO*
X-13970000Y-12700000D03*
G04 #@! TO.P,J2,6,Pin_6*
G04 #@! TO.N,/GP4_U1TX*
X-11430000Y-12700000D03*
G04 #@! TO.P,J2,7,Pin_7*
G04 #@! TO.N,/GP5_U1RX*
X-8890000Y-12700000D03*
G04 #@! TO.P,J2,8,Pin_8*
G04 #@! TO.N,GND*
X-6350000Y-12700000D03*
G04 #@! TO.P,J2,9,Pin_9*
G04 #@! TO.N,/GP6*
X-3810000Y-12700000D03*
G04 #@! TO.P,J2,10,Pin_10*
G04 #@! TO.N,/GP7*
X-1270000Y-12700000D03*
G04 #@! TO.P,J2,11,Pin_11*
G04 #@! TO.N,/GP8*
X1270000Y-12700000D03*
G04 #@! TO.P,J2,12,Pin_12*
G04 #@! TO.N,/GP9*
X3810000Y-12700000D03*
G04 #@! TO.P,J2,13,Pin_13*
G04 #@! TO.N,GND*
X6350000Y-12700000D03*
G04 #@! TO.P,J2,14,Pin_14*
G04 #@! TO.N,/GP10*
X8890000Y-12700000D03*
G04 #@! TO.P,J2,15,Pin_15*
G04 #@! TO.N,/GP11*
X11430000Y-12700000D03*
G04 #@! TO.P,J2,16,Pin_16*
G04 #@! TO.N,/GP12*
X13970000Y-12700000D03*
G04 #@! TO.P,J2,17,Pin_17*
G04 #@! TO.N,/GP13*
X16510000Y-12700000D03*
G04 #@! TO.P,J2,18,Pin_18*
G04 #@! TO.N,GND*
X19050000Y-12700000D03*
G04 #@! TO.P,J2,19,Pin_19*
G04 #@! TO.N,/GP14*
X21590000Y-12700000D03*
G04 #@! TO.P,J2,20,Pin_20*
G04 #@! TO.N,/GP15*
X24130000Y-12700000D03*
G04 #@! TD*
G04 #@! TO.P,J4,1,Pin_1*
G04 #@! TO.N,/VBUS*
X-24130000Y15240000D03*
G04 #@! TO.P,J4,2,Pin_2*
G04 #@! TO.N,/VSYS*
X-21590000Y15240000D03*
G04 #@! TO.P,J4,3,Pin_3*
G04 #@! TO.N,GND*
X-19050000Y15240000D03*
G04 #@! TO.P,J4,4,Pin_4*
G04 #@! TO.N,/3V3_EN*
X-16510000Y15240000D03*
G04 #@! TO.P,J4,5,Pin_5*
G04 #@! TO.N,/3V3_OUT*
X-13970000Y15240000D03*
G04 #@! TO.P,J4,6,Pin_6*
G04 #@! TO.N,/ADC_VREF*
X-11430000Y15240000D03*
G04 #@! TO.P,J4,7,Pin_7*
G04 #@! TO.N,/GP28*
X-8890000Y15240000D03*
G04 #@! TO.P,J4,8,Pin_8*
G04 #@! TO.N,GND*
X-6350000Y15240000D03*
G04 #@! TO.P,J4,9,Pin_9*
G04 #@! TO.N,/GP27*
X-3810000Y15240000D03*
G04 #@! TO.P,J4,10,Pin_10*
G04 #@! TO.N,/GP26*
X-1270000Y15240000D03*
G04 #@! TO.P,J4,11,Pin_11*
G04 #@! TO.N,/RUN*
X1270000Y15240000D03*
G04 #@! TO.P,J4,12,Pin_12*
G04 #@! TO.N,/GP22*
X3810000Y15240000D03*
G04 #@! TO.P,J4,13,Pin_13*
G04 #@! TO.N,GND*
X6350000Y15240000D03*
G04 #@! TO.P,J4,14,Pin_14*
G04 #@! TO.N,/GP21*
X8890000Y15240000D03*
G04 #@! TO.P,J4,15,Pin_15*
G04 #@! TO.N,/GP20*
X11430000Y15240000D03*
G04 #@! TO.P,J4,16,Pin_16*
G04 #@! TO.N,/GP19*
X13970000Y15240000D03*
G04 #@! TO.P,J4,17,Pin_17*
G04 #@! TO.N,/GP18*
X16510000Y15240000D03*
G04 #@! TO.P,J4,18,Pin_18*
G04 #@! TO.N,GND*
X19050000Y15240000D03*
G04 #@! TO.P,J4,19,Pin_19*
G04 #@! TO.N,/GP17*
X21590000Y15240000D03*
G04 #@! TO.P,J4,20,Pin_20*
G04 #@! TO.N,/GP16*
X24130000Y15240000D03*
G04 #@! TD*
D14*
G04 #@! TO.P,J6,1,Pin_1*
G04 #@! TO.N,/SWDIO*
X29210000Y2540000D03*
D15*
G04 #@! TO.P,J6,2,Pin_2*
G04 #@! TO.N,GND*
X29210000Y0D03*
G04 #@! TO.P,J6,3,Pin_3*
G04 #@! TO.N,/SWCLK*
X29210000Y-2540000D03*
G04 #@! TO.P,J6,4,Pin_4*
G04 #@! TO.N,/VSYS*
X29210000Y-5080000D03*
G04 #@! TD*
D16*
G04 #@! TO.N,/GP2_SWCLK*
X-10900000Y-5800000D03*
G04 #@! TO.N,GND*
X-15000000Y25000000D03*
X30900000Y-7900000D03*
X28600000Y-7900000D03*
X45000000Y-15000000D03*
X18900000Y-4200000D03*
X-30000000Y10000000D03*
X10000000Y25000000D03*
X-12600000Y-3300000D03*
X34600000Y-7500000D03*
X32600000Y3800000D03*
X-5000000Y25000000D03*
X21900000Y-4000000D03*
X-30000000Y-15000000D03*
X-25000000Y-25000000D03*
X45000000Y0D03*
X-17800000Y-7500000D03*
X-8700000Y700000D03*
X5100000Y17800000D03*
X-15000000Y-25000000D03*
X-8900000Y-6400000D03*
X-8100000Y-4200000D03*
X-25000000Y25000000D03*
X-3300000Y-1000000D03*
X27200000Y3800000D03*
X-2900000Y6400000D03*
X-20000000Y-25000000D03*
X6300000Y3700000D03*
X35000000Y25000000D03*
X27200000Y-3900000D03*
X35000000Y-25000000D03*
X27200000Y19600000D03*
X15000000Y25000000D03*
X20000000Y-25000000D03*
X17900000Y-3300000D03*
X-200000Y7300000D03*
X18900000Y-5900000D03*
X-10000000Y-25000000D03*
X27200000Y17600000D03*
X0Y-25000000D03*
X-12700000Y-7700000D03*
X22300000Y3800000D03*
X6300000Y5500000D03*
X-20000000Y25000000D03*
X5000000Y25000000D03*
X-12300000Y-5600000D03*
X6300000Y-5900000D03*
X5000000Y-25000000D03*
X-7600000Y-7700000D03*
X6300000Y-3700000D03*
X-30000000Y-10000000D03*
X28100000Y-9700000D03*
X22300000Y-1400000D03*
X45000000Y-5000000D03*
X30900000Y-9700000D03*
X25000000Y25000000D03*
X10000000Y-25000000D03*
X-3600000Y-3300000D03*
X-18200000Y3500000D03*
X22300000Y1300000D03*
X-200000Y3700000D03*
X-15200000Y-7700000D03*
X45000000Y5000000D03*
X45000000Y-10000000D03*
X37600000Y0D03*
X-11000000Y-4500000D03*
X31400000Y14300000D03*
X-10000000Y25000000D03*
X30000000Y25000000D03*
X40000000Y-20000000D03*
X-6800000Y2500000D03*
X-8900000Y3600000D03*
X-30000000Y15000000D03*
X-5400000Y1100000D03*
X15000000Y-25000000D03*
X30000000Y-25000000D03*
X31400000Y16200000D03*
X-18400000Y1000000D03*
X-17000000Y-5400000D03*
X35100000Y0D03*
X25700000Y-7700000D03*
X-200000Y5500000D03*
X19000000Y5500000D03*
X-22800000Y5500000D03*
X0Y25000000D03*
X-7200000Y-700000D03*
X20000000Y25000000D03*
X-6300000Y-5900000D03*
X45000000Y10000000D03*
X6300000Y-700000D03*
X25000000Y-25000000D03*
X31100000Y-4000000D03*
X34300000Y7300000D03*
X-20400000Y5700000D03*
X45000000Y15000000D03*
X31000000Y3800000D03*
X-5800000Y-1900000D03*
X-5000000Y-25000000D03*
X-4200000Y-300000D03*
G04 #@! TO.N,/VSYS*
X20200000Y-3800000D03*
X-4000000Y-2100000D03*
G04 #@! TD*
D17*
G04 #@! TO.N,/GP2_SWCLK*
X-16510000Y-6410000D02*
X-16510000Y-8890000D01*
X-10900000Y-5800000D02*
X-12500000Y-4200000D01*
X-14300000Y-4200000D02*
X-16510000Y-6410000D01*
X-12500000Y-4200000D02*
X-14300000Y-4200000D01*
D18*
G04 #@! TO.N,/VSYS*
X-21590000Y5190000D02*
X-21590000Y8890000D01*
X-8400000Y2300000D02*
X-18700000Y2300000D01*
X-18700000Y2300000D02*
X-21590000Y5190000D01*
D19*
X30480000Y-6350000D02*
X29210000Y-5080000D01*
X29210000Y-5080000D02*
X21480000Y-5080000D01*
D18*
X-4000000Y-2100000D02*
X-8400000Y2300000D01*
D19*
X36265000Y-6350000D02*
X30480000Y-6350000D01*
X21480000Y-5080000D02*
X20200000Y-3800000D01*
G04 #@! TD*
G04 #@! TA.AperFunction,Conductor*
G04 #@! TO.N,GND*
G36*
X39450500Y26911237D02*
G01*
X39486737Y26875000D01*
X39500000Y26825500D01*
X39500000Y22000000D01*
X41500000Y19500000D01*
X44500000Y18500000D01*
X47842653Y18500000D01*
X47892046Y18486798D01*
X47928266Y18450713D01*
X47941651Y18401370D01*
X47999923Y2778256D01*
X47999999Y2758097D01*
X48000000Y2757728D01*
X48000000Y-18401000D01*
X47986737Y-18450500D01*
X47950500Y-18486737D01*
X47901000Y-18500000D01*
X43000000Y-18500000D01*
X40499999Y-20500000D01*
X40000000Y-22000000D01*
X39500000Y-23500000D01*
X39500000Y-23500002D01*
X39500000Y-26825500D01*
X39486737Y-26875000D01*
X39450500Y-26911237D01*
X39401000Y-26924500D01*
X-25401000Y-26924500D01*
X-25450500Y-26911237D01*
X-25486737Y-26875000D01*
X-25500000Y-26825500D01*
X-25500000Y-22000000D01*
X-27500000Y-19499999D01*
X-29300001Y-18899999D01*
X-30500000Y-18500000D01*
X-30500002Y-18500000D01*
X-33825500Y-18500000D01*
X-33875000Y-18486737D01*
X-33911237Y-18450500D01*
X-33924500Y-18401000D01*
X-33924500Y-15240000D01*
X-25085099Y-15240000D01*
X-25066747Y-15426331D01*
X-25012396Y-15605501D01*
X-24924136Y-15770625D01*
X-24805357Y-15915357D01*
X-24660625Y-16034136D01*
X-24495501Y-16122396D01*
X-24316331Y-16176747D01*
X-24130000Y-16195099D01*
X-23943669Y-16176747D01*
X-23854084Y-16149571D01*
X-23764498Y-16122396D01*
X-23599376Y-16034137D01*
X-23531885Y-15978748D01*
X-23454643Y-15915357D01*
X-23335864Y-15770625D01*
X-23335862Y-15770623D01*
X-23247603Y-15605501D01*
X-23193252Y-15426329D01*
X-23174900Y-15240000D01*
X-22545099Y-15240000D01*
X-22526747Y-15426331D01*
X-22472396Y-15605501D01*
X-22384136Y-15770625D01*
X-22265357Y-15915357D01*
X-22120625Y-16034136D01*
X-21955501Y-16122396D01*
X-21776331Y-16176747D01*
X-21590000Y-16195099D01*
X-21403669Y-16176747D01*
X-21224499Y-16122396D01*
X-21059375Y-16034136D01*
X-20991886Y-15978749D01*
X-19647328Y-15978749D01*
X-19580349Y-16033716D01*
X-19415307Y-16121934D01*
X-19236232Y-16176255D01*
X-19050000Y-16194597D01*
X-18863769Y-16176255D01*
X-18684692Y-16121933D01*
X-18519656Y-16033719D01*
X-18452674Y-15978748D01*
X-19050001Y-15381421D01*
X-19647328Y-15978748D01*
X-19647328Y-15978749D01*
X-20991886Y-15978749D01*
X-20914643Y-15915357D01*
X-20795864Y-15770625D01*
X-20707604Y-15605501D01*
X-20653253Y-15426331D01*
X-20634901Y-15240000D01*
X-20004598Y-15240000D01*
X-19986256Y-15426231D01*
X-19931935Y-15605306D01*
X-19843717Y-15770349D01*
X-19788750Y-15837326D01*
X-19191423Y-15239999D01*
X-18908579Y-15239999D01*
X-18311252Y-15837326D01*
X-18256281Y-15770344D01*
X-18168067Y-15605308D01*
X-18113745Y-15426231D01*
X-18095403Y-15240000D01*
X-17465100Y-15240000D01*
X-17446748Y-15426329D01*
X-17392397Y-15605501D01*
X-17304138Y-15770623D01*
X-17304136Y-15770625D01*
X-17185357Y-15915357D01*
X-17108115Y-15978748D01*
X-17040624Y-16034137D01*
X-16875502Y-16122396D01*
X-16785916Y-16149571D01*
X-16696331Y-16176747D01*
X-16510000Y-16195099D01*
X-16323669Y-16176747D01*
X-16144499Y-16122396D01*
X-15979375Y-16034136D01*
X-15834643Y-15915357D01*
X-15715864Y-15770625D01*
X-15627604Y-15605501D01*
X-15573253Y-15426331D01*
X-15554901Y-15240000D01*
X-14925100Y-15240000D01*
X-14906748Y-15426329D01*
X-14852397Y-15605501D01*
X-14764138Y-15770623D01*
X-14764136Y-15770625D01*
X-14645357Y-15915357D01*
X-14568115Y-15978748D01*
X-14500624Y-16034137D01*
X-14335502Y-16122396D01*
X-14245916Y-16149571D01*
X-14156331Y-16176747D01*
X-13970000Y-16195099D01*
X-13783669Y-16176747D01*
X-13604499Y-16122396D01*
X-13439375Y-16034136D01*
X-13294643Y-15915357D01*
X-13175864Y-15770625D01*
X-13087604Y-15605501D01*
X-13033253Y-15426331D01*
X-13014901Y-15240000D01*
X-12385100Y-15240000D01*
X-12366748Y-15426329D01*
X-12312397Y-15605501D01*
X-12224138Y-15770623D01*
X-12224136Y-15770625D01*
X-12105357Y-15915357D01*
X-12028115Y-15978748D01*
X-11960624Y-16034137D01*
X-11795502Y-16122396D01*
X-11705916Y-16149571D01*
X-11616331Y-16176747D01*
X-11430000Y-16195099D01*
X-11243669Y-16176747D01*
X-11064499Y-16122396D01*
X-10899375Y-16034136D01*
X-10754643Y-15915357D01*
X-10635864Y-15770625D01*
X-10547604Y-15605501D01*
X-10493253Y-15426331D01*
X-10474901Y-15240000D01*
X-9845100Y-15240000D01*
X-9826748Y-15426329D01*
X-9772397Y-15605501D01*
X-9684138Y-15770623D01*
X-9684136Y-15770625D01*
X-9565357Y-15915357D01*
X-9488115Y-15978748D01*
X-9420624Y-16034137D01*
X-9255502Y-16122396D01*
X-9165916Y-16149571D01*
X-9076331Y-16176747D01*
X-8890000Y-16195099D01*
X-8703669Y-16176747D01*
X-8524499Y-16122396D01*
X-8359375Y-16034136D01*
X-8291886Y-15978749D01*
X-6947328Y-15978749D01*
X-6880349Y-16033716D01*
X-6715307Y-16121934D01*
X-6536232Y-16176255D01*
X-6350000Y-16194597D01*
X-6163769Y-16176255D01*
X-5984692Y-16121933D01*
X-5819656Y-16033719D01*
X-5752674Y-15978748D01*
X-6350001Y-15381421D01*
X-6947328Y-15978748D01*
X-6947328Y-15978749D01*
X-8291886Y-15978749D01*
X-8214643Y-15915357D01*
X-8095864Y-15770625D01*
X-8007604Y-15605501D01*
X-7953253Y-15426331D01*
X-7934901Y-15240000D01*
X-7934901Y-15239999D01*
X-7304598Y-15239999D01*
X-7286256Y-15426231D01*
X-7231935Y-15605306D01*
X-7143717Y-15770349D01*
X-7088750Y-15837326D01*
X-6491423Y-15239999D01*
X-6208579Y-15239999D01*
X-5611252Y-15837326D01*
X-5556281Y-15770344D01*
X-5468067Y-15605308D01*
X-5413745Y-15426231D01*
X-5395403Y-15240000D01*
X-4765100Y-15240000D01*
X-4746748Y-15426329D01*
X-4692397Y-15605501D01*
X-4604138Y-15770623D01*
X-4604136Y-15770625D01*
X-4485357Y-15915357D01*
X-4408115Y-15978748D01*
X-4340624Y-16034137D01*
X-4175502Y-16122396D01*
X-4085916Y-16149571D01*
X-3996331Y-16176747D01*
X-3810000Y-16195099D01*
X-3623669Y-16176747D01*
X-3444499Y-16122396D01*
X-3279375Y-16034136D01*
X-3134643Y-15915357D01*
X-3015864Y-15770625D01*
X-2927604Y-15605501D01*
X-2873253Y-15426331D01*
X-2854901Y-15240000D01*
X-2225100Y-15240000D01*
X-2206748Y-15426329D01*
X-2152397Y-15605501D01*
X-2064138Y-15770623D01*
X-2064136Y-15770625D01*
X-1945357Y-15915357D01*
X-1868115Y-15978748D01*
X-1800624Y-16034137D01*
X-1635502Y-16122396D01*
X-1545916Y-16149571D01*
X-1456331Y-16176747D01*
X-1270000Y-16195099D01*
X-1083669Y-16176747D01*
X-904499Y-16122396D01*
X-739375Y-16034136D01*
X-594643Y-15915357D01*
X-475864Y-15770625D01*
X-387604Y-15605501D01*
X-333253Y-15426331D01*
X-314901Y-15240000D01*
X314900Y-15240000D01*
X333252Y-15426329D01*
X387603Y-15605501D01*
X475862Y-15770623D01*
X475864Y-15770625D01*
X594643Y-15915357D01*
X671885Y-15978748D01*
X739376Y-16034137D01*
X904498Y-16122396D01*
X994084Y-16149571D01*
X1083669Y-16176747D01*
X1270000Y-16195099D01*
X1456331Y-16176747D01*
X1635501Y-16122396D01*
X1800625Y-16034136D01*
X1945357Y-15915357D01*
X2064136Y-15770625D01*
X2152396Y-15605501D01*
X2206747Y-15426331D01*
X2225099Y-15240000D01*
X2854900Y-15240000D01*
X2873252Y-15426329D01*
X2927603Y-15605501D01*
X3015862Y-15770623D01*
X3015864Y-15770625D01*
X3134643Y-15915357D01*
X3211885Y-15978748D01*
X3279376Y-16034137D01*
X3444498Y-16122396D01*
X3534084Y-16149571D01*
X3623669Y-16176747D01*
X3810000Y-16195099D01*
X3996331Y-16176747D01*
X4175501Y-16122396D01*
X4340625Y-16034136D01*
X4408114Y-15978749D01*
X5752672Y-15978749D01*
X5819651Y-16033716D01*
X5984693Y-16121934D01*
X6163768Y-16176255D01*
X6350000Y-16194597D01*
X6536231Y-16176255D01*
X6715308Y-16121933D01*
X6880344Y-16033719D01*
X6947326Y-15978748D01*
X6349999Y-15381421D01*
X5752672Y-15978748D01*
X5752672Y-15978749D01*
X4408114Y-15978749D01*
X4485357Y-15915357D01*
X4604136Y-15770625D01*
X4692396Y-15605501D01*
X4746747Y-15426331D01*
X4765099Y-15240000D01*
X4765099Y-15239999D01*
X5395402Y-15239999D01*
X5413744Y-15426231D01*
X5468065Y-15605306D01*
X5556283Y-15770349D01*
X5611250Y-15837326D01*
X6208577Y-15239999D01*
X6491421Y-15239999D01*
X7088748Y-15837326D01*
X7143719Y-15770344D01*
X7231933Y-15605308D01*
X7286255Y-15426231D01*
X7304597Y-15240000D01*
X7934900Y-15240000D01*
X7953252Y-15426329D01*
X8007603Y-15605501D01*
X8095862Y-15770623D01*
X8095864Y-15770625D01*
X8214643Y-15915357D01*
X8291885Y-15978748D01*
X8359376Y-16034137D01*
X8524498Y-16122396D01*
X8614084Y-16149571D01*
X8703669Y-16176747D01*
X8890000Y-16195099D01*
X9076331Y-16176747D01*
X9255501Y-16122396D01*
X9420625Y-16034136D01*
X9565357Y-15915357D01*
X9684136Y-15770625D01*
X9772396Y-15605501D01*
X9826747Y-15426331D01*
X9845099Y-15240000D01*
X9845099Y-15239999D01*
X10474900Y-15239999D01*
X10493252Y-15426329D01*
X10547603Y-15605501D01*
X10635862Y-15770623D01*
X10635864Y-15770625D01*
X10754643Y-15915357D01*
X10831885Y-15978748D01*
X10899376Y-16034137D01*
X11064498Y-16122396D01*
X11154084Y-16149571D01*
X11243669Y-16176747D01*
X11430000Y-16195099D01*
X11616331Y-16176747D01*
X11795501Y-16122396D01*
X11960625Y-16034136D01*
X12105357Y-15915357D01*
X12224136Y-15770625D01*
X12312396Y-15605501D01*
X12366747Y-15426331D01*
X12385099Y-15240000D01*
X12385099Y-15239999D01*
X13014900Y-15239999D01*
X13033252Y-15426329D01*
X13087603Y-15605501D01*
X13175862Y-15770623D01*
X13175864Y-15770625D01*
X13294643Y-15915357D01*
X13371885Y-15978748D01*
X13439376Y-16034137D01*
X13604498Y-16122396D01*
X13694084Y-16149571D01*
X13783669Y-16176747D01*
X13970000Y-16195099D01*
X14156331Y-16176747D01*
X14335501Y-16122396D01*
X14500625Y-16034136D01*
X14645357Y-15915357D01*
X14764136Y-15770625D01*
X14852396Y-15605501D01*
X14906747Y-15426331D01*
X14925099Y-15240000D01*
X14925099Y-15239999D01*
X15554900Y-15239999D01*
X15573252Y-15426329D01*
X15627603Y-15605501D01*
X15715862Y-15770623D01*
X15715864Y-15770625D01*
X15834643Y-15915357D01*
X15911885Y-15978748D01*
X15979376Y-16034137D01*
X16144498Y-16122396D01*
X16234084Y-16149571D01*
X16323669Y-16176747D01*
X16510000Y-16195099D01*
X16696331Y-16176747D01*
X16875501Y-16122396D01*
X17040625Y-16034136D01*
X17108114Y-15978749D01*
X18452672Y-15978749D01*
X18519651Y-16033716D01*
X18684693Y-16121934D01*
X18863768Y-16176255D01*
X19050000Y-16194597D01*
X19236231Y-16176255D01*
X19415308Y-16121933D01*
X19580344Y-16033719D01*
X19647326Y-15978748D01*
X19049999Y-15381421D01*
X18452672Y-15978748D01*
X18452672Y-15978749D01*
X17108114Y-15978749D01*
X17185357Y-15915357D01*
X17304136Y-15770625D01*
X17392396Y-15605501D01*
X17446747Y-15426331D01*
X17465099Y-15240000D01*
X17465099Y-15239999D01*
X18095402Y-15239999D01*
X18113744Y-15426231D01*
X18168065Y-15605306D01*
X18256283Y-15770349D01*
X18311250Y-15837326D01*
X18908577Y-15239999D01*
X19191421Y-15239999D01*
X19788748Y-15837326D01*
X19843719Y-15770344D01*
X19931933Y-15605308D01*
X19986255Y-15426231D01*
X20004597Y-15239999D01*
X20634900Y-15239999D01*
X20653252Y-15426329D01*
X20707603Y-15605501D01*
X20795862Y-15770623D01*
X20795864Y-15770625D01*
X20914643Y-15915357D01*
X20991885Y-15978748D01*
X21059376Y-16034137D01*
X21224498Y-16122396D01*
X21314084Y-16149571D01*
X21403669Y-16176747D01*
X21590000Y-16195099D01*
X21776331Y-16176747D01*
X21955501Y-16122396D01*
X22120625Y-16034136D01*
X22265357Y-15915357D01*
X22384136Y-15770625D01*
X22472396Y-15605501D01*
X22526747Y-15426331D01*
X22545099Y-15240000D01*
X22545099Y-15239999D01*
X23174900Y-15239999D01*
X23193252Y-15426329D01*
X23247603Y-15605501D01*
X23335862Y-15770623D01*
X23335864Y-15770625D01*
X23454643Y-15915357D01*
X23531885Y-15978748D01*
X23599376Y-16034137D01*
X23764498Y-16122396D01*
X23854084Y-16149571D01*
X23943669Y-16176747D01*
X24130000Y-16195099D01*
X24316331Y-16176747D01*
X24495501Y-16122396D01*
X24660625Y-16034136D01*
X24805357Y-15915357D01*
X24924136Y-15770625D01*
X25012396Y-15605501D01*
X25066747Y-15426331D01*
X25085099Y-15240000D01*
X25066747Y-15053669D01*
X25012396Y-14874499D01*
X25012396Y-14874498D01*
X24924137Y-14709376D01*
X24869394Y-14642672D01*
X24805357Y-14564643D01*
X24661136Y-14446283D01*
X24660623Y-14445862D01*
X24495501Y-14357603D01*
X24316329Y-14303252D01*
X24130000Y-14284900D01*
X23943670Y-14303252D01*
X23764498Y-14357603D01*
X23599376Y-14445862D01*
X23454643Y-14564643D01*
X23335862Y-14709376D01*
X23247603Y-14874498D01*
X23193252Y-15053670D01*
X23174900Y-15239999D01*
X22545099Y-15239999D01*
X22526747Y-15053669D01*
X22472396Y-14874499D01*
X22472396Y-14874498D01*
X22384137Y-14709376D01*
X22329394Y-14642672D01*
X22265357Y-14564643D01*
X22121136Y-14446283D01*
X22120623Y-14445862D01*
X21955501Y-14357603D01*
X21776329Y-14303252D01*
X21590000Y-14284900D01*
X21403670Y-14303252D01*
X21224498Y-14357603D01*
X21059376Y-14445862D01*
X20914643Y-14564643D01*
X20795862Y-14709376D01*
X20707603Y-14874498D01*
X20653252Y-15053670D01*
X20634900Y-15239999D01*
X20004597Y-15239999D01*
X19986255Y-15053768D01*
X19931934Y-14874693D01*
X19843716Y-14709651D01*
X19788748Y-14642672D01*
X19191421Y-15239999D01*
X18908577Y-15239999D01*
X18311250Y-14642672D01*
X18256282Y-14709654D01*
X18168065Y-14874693D01*
X18113744Y-15053768D01*
X18095402Y-15239999D01*
X17465099Y-15239999D01*
X17446747Y-15053669D01*
X17392396Y-14874499D01*
X17392396Y-14874498D01*
X17304137Y-14709376D01*
X17249394Y-14642672D01*
X17185357Y-14564643D01*
X17108113Y-14501250D01*
X18452672Y-14501250D01*
X19049999Y-15098577D01*
X19647326Y-14501250D01*
X19580349Y-14446283D01*
X19415306Y-14358065D01*
X19236231Y-14303744D01*
X19050000Y-14285402D01*
X18863768Y-14303744D01*
X18684693Y-14358065D01*
X18519654Y-14446282D01*
X18452672Y-14501250D01*
X17108113Y-14501250D01*
X17041136Y-14446283D01*
X17040623Y-14445862D01*
X16875501Y-14357603D01*
X16696329Y-14303252D01*
X16510000Y-14284900D01*
X16323670Y-14303252D01*
X16144498Y-14357603D01*
X15979376Y-14445862D01*
X15834643Y-14564643D01*
X15715862Y-14709376D01*
X15627603Y-14874498D01*
X15573252Y-15053670D01*
X15554900Y-15239999D01*
X14925099Y-15239999D01*
X14906747Y-15053669D01*
X14852396Y-14874499D01*
X14852396Y-14874498D01*
X14764137Y-14709376D01*
X14709394Y-14642672D01*
X14645357Y-14564643D01*
X14501136Y-14446283D01*
X14500623Y-14445862D01*
X14335501Y-14357603D01*
X14156329Y-14303252D01*
X13970000Y-14284900D01*
X13783670Y-14303252D01*
X13604498Y-14357603D01*
X13439376Y-14445862D01*
X13294643Y-14564643D01*
X13175862Y-14709376D01*
X13087603Y-14874498D01*
X13033252Y-15053670D01*
X13014900Y-15239999D01*
X12385099Y-15239999D01*
X12366747Y-15053669D01*
X12312396Y-14874499D01*
X12312396Y-14874498D01*
X12224137Y-14709376D01*
X12169394Y-14642672D01*
X12105357Y-14564643D01*
X11961136Y-14446283D01*
X11960623Y-14445862D01*
X11795501Y-14357603D01*
X11616329Y-14303252D01*
X11430000Y-14284900D01*
X11243670Y-14303252D01*
X11064498Y-14357603D01*
X10899376Y-14445862D01*
X10754643Y-14564643D01*
X10635862Y-14709376D01*
X10547603Y-14874498D01*
X10493252Y-15053670D01*
X10474900Y-15239999D01*
X9845099Y-15239999D01*
X9826747Y-15053669D01*
X9772396Y-14874499D01*
X9772396Y-14874498D01*
X9684137Y-14709376D01*
X9629394Y-14642672D01*
X9565357Y-14564643D01*
X9421136Y-14446283D01*
X9420623Y-14445862D01*
X9255501Y-14357603D01*
X9076329Y-14303252D01*
X8890000Y-14284900D01*
X8703670Y-14303252D01*
X8524498Y-14357603D01*
X8359376Y-14445862D01*
X8214643Y-14564643D01*
X8095862Y-14709376D01*
X8007603Y-14874498D01*
X7953252Y-15053670D01*
X7934900Y-15240000D01*
X7304597Y-15240000D01*
X7304597Y-15239999D01*
X7286255Y-15053768D01*
X7231934Y-14874693D01*
X7143716Y-14709651D01*
X7088748Y-14642672D01*
X6491421Y-15239999D01*
X6208577Y-15239999D01*
X5611250Y-14642672D01*
X5556282Y-14709654D01*
X5468065Y-14874693D01*
X5413744Y-15053768D01*
X5395402Y-15239999D01*
X4765099Y-15239999D01*
X4746747Y-15053669D01*
X4692396Y-14874499D01*
X4692396Y-14874498D01*
X4604137Y-14709376D01*
X4549394Y-14642672D01*
X4485357Y-14564643D01*
X4408113Y-14501250D01*
X5752672Y-14501250D01*
X6349999Y-15098577D01*
X6947326Y-14501250D01*
X6880349Y-14446283D01*
X6715306Y-14358065D01*
X6536231Y-14303744D01*
X6350000Y-14285402D01*
X6163768Y-14303744D01*
X5984693Y-14358065D01*
X5819654Y-14446282D01*
X5752672Y-14501250D01*
X4408113Y-14501250D01*
X4341136Y-14446283D01*
X4340623Y-14445862D01*
X4175501Y-14357603D01*
X3996329Y-14303252D01*
X3810000Y-14284900D01*
X3623670Y-14303252D01*
X3444498Y-14357603D01*
X3279376Y-14445862D01*
X3134643Y-14564643D01*
X3015862Y-14709376D01*
X2927603Y-14874498D01*
X2873252Y-15053670D01*
X2854900Y-15240000D01*
X2225099Y-15240000D01*
X2206747Y-15053669D01*
X2152396Y-14874499D01*
X2152396Y-14874498D01*
X2064137Y-14709376D01*
X2009394Y-14642672D01*
X1945357Y-14564643D01*
X1801136Y-14446283D01*
X1800623Y-14445862D01*
X1635501Y-14357603D01*
X1456329Y-14303252D01*
X1270000Y-14284900D01*
X1083670Y-14303252D01*
X904498Y-14357603D01*
X739376Y-14445862D01*
X594643Y-14564643D01*
X475862Y-14709376D01*
X387603Y-14874498D01*
X333252Y-15053670D01*
X314900Y-15240000D01*
X-314901Y-15240000D01*
X-333253Y-15053669D01*
X-387604Y-14874499D01*
X-387604Y-14874498D01*
X-475863Y-14709376D01*
X-530606Y-14642672D01*
X-594643Y-14564643D01*
X-738864Y-14446283D01*
X-739377Y-14445862D01*
X-904499Y-14357603D01*
X-1083671Y-14303252D01*
X-1270000Y-14284900D01*
X-1456330Y-14303252D01*
X-1635502Y-14357603D01*
X-1800624Y-14445862D01*
X-1945357Y-14564643D01*
X-2064138Y-14709376D01*
X-2152397Y-14874498D01*
X-2206748Y-15053670D01*
X-2225100Y-15240000D01*
X-2854901Y-15240000D01*
X-2873253Y-15053669D01*
X-2927604Y-14874499D01*
X-2927604Y-14874498D01*
X-3015863Y-14709376D01*
X-3070606Y-14642672D01*
X-3134643Y-14564643D01*
X-3278864Y-14446283D01*
X-3279377Y-14445862D01*
X-3444499Y-14357603D01*
X-3623671Y-14303252D01*
X-3810000Y-14284900D01*
X-3996330Y-14303252D01*
X-4175502Y-14357603D01*
X-4340624Y-14445862D01*
X-4485357Y-14564643D01*
X-4604138Y-14709376D01*
X-4692397Y-14874498D01*
X-4746748Y-15053670D01*
X-4765100Y-15240000D01*
X-5395403Y-15240000D01*
X-5413745Y-15053768D01*
X-5468066Y-14874693D01*
X-5556284Y-14709651D01*
X-5611252Y-14642672D01*
X-6208579Y-15239999D01*
X-6491423Y-15239999D01*
X-7088750Y-14642672D01*
X-7143718Y-14709654D01*
X-7231935Y-14874693D01*
X-7286256Y-15053768D01*
X-7304598Y-15239999D01*
X-7934901Y-15239999D01*
X-7953253Y-15053669D01*
X-8007604Y-14874499D01*
X-8007604Y-14874498D01*
X-8095863Y-14709376D01*
X-8150606Y-14642672D01*
X-8214643Y-14564643D01*
X-8291887Y-14501250D01*
X-6947328Y-14501250D01*
X-6350001Y-15098577D01*
X-5752674Y-14501250D01*
X-5819651Y-14446283D01*
X-5984694Y-14358065D01*
X-6163769Y-14303744D01*
X-6350000Y-14285402D01*
X-6536232Y-14303744D01*
X-6715307Y-14358065D01*
X-6880346Y-14446282D01*
X-6947328Y-14501250D01*
X-8291887Y-14501250D01*
X-8358864Y-14446283D01*
X-8359377Y-14445862D01*
X-8524499Y-14357603D01*
X-8703671Y-14303252D01*
X-8890000Y-14284900D01*
X-9076330Y-14303252D01*
X-9255502Y-14357603D01*
X-9420624Y-14445862D01*
X-9565357Y-14564643D01*
X-9684138Y-14709376D01*
X-9772397Y-14874498D01*
X-9826748Y-15053670D01*
X-9845100Y-15240000D01*
X-10474901Y-15240000D01*
X-10493253Y-15053669D01*
X-10547604Y-14874499D01*
X-10547604Y-14874498D01*
X-10635863Y-14709376D01*
X-10690606Y-14642672D01*
X-10754643Y-14564643D01*
X-10898864Y-14446283D01*
X-10899377Y-14445862D01*
X-11064499Y-14357603D01*
X-11243671Y-14303252D01*
X-11430000Y-14284900D01*
X-11616330Y-14303252D01*
X-11795502Y-14357603D01*
X-11960624Y-14445862D01*
X-12105357Y-14564643D01*
X-12224138Y-14709376D01*
X-12312397Y-14874498D01*
X-12366748Y-15053670D01*
X-12385100Y-15240000D01*
X-13014901Y-15240000D01*
X-13033253Y-15053669D01*
X-13087604Y-14874499D01*
X-13087604Y-14874498D01*
X-13175863Y-14709376D01*
X-13230606Y-14642672D01*
X-13294643Y-14564643D01*
X-13438864Y-14446283D01*
X-13439377Y-14445862D01*
X-13604499Y-14357603D01*
X-13783671Y-14303252D01*
X-13970000Y-14284900D01*
X-14156330Y-14303252D01*
X-14335502Y-14357603D01*
X-14500624Y-14445862D01*
X-14645357Y-14564643D01*
X-14764138Y-14709376D01*
X-14852397Y-14874498D01*
X-14906748Y-15053670D01*
X-14925100Y-15240000D01*
X-15554901Y-15240000D01*
X-15573253Y-15053669D01*
X-15627604Y-14874499D01*
X-15627604Y-14874498D01*
X-15715863Y-14709376D01*
X-15770606Y-14642672D01*
X-15834643Y-14564643D01*
X-15978864Y-14446283D01*
X-15979377Y-14445862D01*
X-16144499Y-14357603D01*
X-16323671Y-14303252D01*
X-16510000Y-14284900D01*
X-16696330Y-14303252D01*
X-16875502Y-14357603D01*
X-17040624Y-14445862D01*
X-17185357Y-14564643D01*
X-17304138Y-14709376D01*
X-17392397Y-14874498D01*
X-17446748Y-15053670D01*
X-17465100Y-15240000D01*
X-18095403Y-15240000D01*
X-18113745Y-15053768D01*
X-18168066Y-14874693D01*
X-18256284Y-14709651D01*
X-18311252Y-14642672D01*
X-18908579Y-15239999D01*
X-19191423Y-15239999D01*
X-19788750Y-14642672D01*
X-19843718Y-14709654D01*
X-19931935Y-14874693D01*
X-19986256Y-15053768D01*
X-20004598Y-15240000D01*
X-20634901Y-15240000D01*
X-20653253Y-15053669D01*
X-20707604Y-14874499D01*
X-20707604Y-14874498D01*
X-20795863Y-14709376D01*
X-20850606Y-14642672D01*
X-20914643Y-14564643D01*
X-20991887Y-14501250D01*
X-19647328Y-14501250D01*
X-19050001Y-15098577D01*
X-18452674Y-14501250D01*
X-18519651Y-14446283D01*
X-18684694Y-14358065D01*
X-18863769Y-14303744D01*
X-19050000Y-14285402D01*
X-19236232Y-14303744D01*
X-19415307Y-14358065D01*
X-19580346Y-14446282D01*
X-19647328Y-14501250D01*
X-20991887Y-14501250D01*
X-21058864Y-14446283D01*
X-21059377Y-14445862D01*
X-21224499Y-14357603D01*
X-21403671Y-14303252D01*
X-21590000Y-14284900D01*
X-21776329Y-14303252D01*
X-21955501Y-14357603D01*
X-22120623Y-14445862D01*
X-22121136Y-14446283D01*
X-22265357Y-14564643D01*
X-22329394Y-14642672D01*
X-22384137Y-14709376D01*
X-22472396Y-14874498D01*
X-22472396Y-14874499D01*
X-22526747Y-15053669D01*
X-22545099Y-15240000D01*
X-23174900Y-15240000D01*
X-23193252Y-15053670D01*
X-23247603Y-14874498D01*
X-23335862Y-14709376D01*
X-23454643Y-14564643D01*
X-23599376Y-14445862D01*
X-23764498Y-14357603D01*
X-23943670Y-14303252D01*
X-24130000Y-14284900D01*
X-24316329Y-14303252D01*
X-24495501Y-14357603D01*
X-24660623Y-14445862D01*
X-24661136Y-14446283D01*
X-24805357Y-14564643D01*
X-24869394Y-14642672D01*
X-24924137Y-14709376D01*
X-25012396Y-14874498D01*
X-25012396Y-14874499D01*
X-25066747Y-15053669D01*
X-25085099Y-15240000D01*
X-33924500Y-15240000D01*
X-33924500Y-12700000D01*
X-25085099Y-12700000D01*
X-25066747Y-12886331D01*
X-25012396Y-13065501D01*
X-24924136Y-13230625D01*
X-24805357Y-13375357D01*
X-24660625Y-13494136D01*
X-24495501Y-13582396D01*
X-24316331Y-13636747D01*
X-24130000Y-13655099D01*
X-23943669Y-13636747D01*
X-23854083Y-13609571D01*
X-23764498Y-13582396D01*
X-23599376Y-13494137D01*
X-23531885Y-13438748D01*
X-23454643Y-13375357D01*
X-23335864Y-13230625D01*
X-23335862Y-13230623D01*
X-23247603Y-13065501D01*
X-23193252Y-12886329D01*
X-23174900Y-12700000D01*
X-22545099Y-12700000D01*
X-22526747Y-12886331D01*
X-22472396Y-13065501D01*
X-22384136Y-13230625D01*
X-22265357Y-13375357D01*
X-22120625Y-13494136D01*
X-21955501Y-13582396D01*
X-21776331Y-13636747D01*
X-21590000Y-13655099D01*
X-21403669Y-13636747D01*
X-21224499Y-13582396D01*
X-21059375Y-13494136D01*
X-20991886Y-13438749D01*
X-19647328Y-13438749D01*
X-19580349Y-13493716D01*
X-19415307Y-13581934D01*
X-19236232Y-13636255D01*
X-19050000Y-13654597D01*
X-18863769Y-13636255D01*
X-18684692Y-13581933D01*
X-18519656Y-13493719D01*
X-18452674Y-13438748D01*
X-19050001Y-12841421D01*
X-19647328Y-13438748D01*
X-19647328Y-13438749D01*
X-20991886Y-13438749D01*
X-20914643Y-13375357D01*
X-20795864Y-13230625D01*
X-20707604Y-13065501D01*
X-20653253Y-12886331D01*
X-20634901Y-12700000D01*
X-20004598Y-12700000D01*
X-19986256Y-12886231D01*
X-19931935Y-13065306D01*
X-19843717Y-13230349D01*
X-19788750Y-13297326D01*
X-19191423Y-12699999D01*
X-18908579Y-12699999D01*
X-18311252Y-13297326D01*
X-18256281Y-13230344D01*
X-18168067Y-13065308D01*
X-18113745Y-12886231D01*
X-18095403Y-12700000D01*
X-17465100Y-12700000D01*
X-17446748Y-12886329D01*
X-17392397Y-13065501D01*
X-17304138Y-13230623D01*
X-17304136Y-13230625D01*
X-17185357Y-13375357D01*
X-17108115Y-13438748D01*
X-17040624Y-13494137D01*
X-16875502Y-13582396D01*
X-16785917Y-13609571D01*
X-16696331Y-13636747D01*
X-16510000Y-13655099D01*
X-16323669Y-13636747D01*
X-16144499Y-13582396D01*
X-15979375Y-13494136D01*
X-15834643Y-13375357D01*
X-15715864Y-13230625D01*
X-15627604Y-13065501D01*
X-15573253Y-12886331D01*
X-15554901Y-12700000D01*
X-14925100Y-12700000D01*
X-14906748Y-12886329D01*
X-14852397Y-13065501D01*
X-14764138Y-13230623D01*
X-14764136Y-13230625D01*
X-14645357Y-13375357D01*
X-14568115Y-13438748D01*
X-14500624Y-13494137D01*
X-14335502Y-13582396D01*
X-14245917Y-13609571D01*
X-14156331Y-13636747D01*
X-13970000Y-13655099D01*
X-13783669Y-13636747D01*
X-13604499Y-13582396D01*
X-13439375Y-13494136D01*
X-13294643Y-13375357D01*
X-13175864Y-13230625D01*
X-13087604Y-13065501D01*
X-13033253Y-12886331D01*
X-13014901Y-12700000D01*
X-12385100Y-12700000D01*
X-12366748Y-12886329D01*
X-12312397Y-13065501D01*
X-12224138Y-13230623D01*
X-12224136Y-13230625D01*
X-12105357Y-13375357D01*
X-12028115Y-13438748D01*
X-11960624Y-13494137D01*
X-11795502Y-13582396D01*
X-11705917Y-13609571D01*
X-11616331Y-13636747D01*
X-11430000Y-13655099D01*
X-11243669Y-13636747D01*
X-11064499Y-13582396D01*
X-10899375Y-13494136D01*
X-10754643Y-13375357D01*
X-10635864Y-13230625D01*
X-10547604Y-13065501D01*
X-10493253Y-12886331D01*
X-10474901Y-12700000D01*
X-9845100Y-12700000D01*
X-9826748Y-12886329D01*
X-9772397Y-13065501D01*
X-9684138Y-13230623D01*
X-9684136Y-13230625D01*
X-9565357Y-13375357D01*
X-9488115Y-13438748D01*
X-9420624Y-13494137D01*
X-9255502Y-13582396D01*
X-9165917Y-13609571D01*
X-9076331Y-13636747D01*
X-8890000Y-13655099D01*
X-8703669Y-13636747D01*
X-8524499Y-13582396D01*
X-8359375Y-13494136D01*
X-8291886Y-13438749D01*
X-6947328Y-13438749D01*
X-6880349Y-13493716D01*
X-6715307Y-13581934D01*
X-6536232Y-13636255D01*
X-6350000Y-13654597D01*
X-6163769Y-13636255D01*
X-5984692Y-13581933D01*
X-5819656Y-13493719D01*
X-5752674Y-13438748D01*
X-6350001Y-12841421D01*
X-6947328Y-13438748D01*
X-6947328Y-13438749D01*
X-8291886Y-13438749D01*
X-8214643Y-13375357D01*
X-8095864Y-13230625D01*
X-8007604Y-13065501D01*
X-7953253Y-12886331D01*
X-7934901Y-12700000D01*
X-7934901Y-12699999D01*
X-7304598Y-12699999D01*
X-7286256Y-12886231D01*
X-7231935Y-13065306D01*
X-7143717Y-13230349D01*
X-7088750Y-13297326D01*
X-6491423Y-12699999D01*
X-6208579Y-12699999D01*
X-5611252Y-13297326D01*
X-5556281Y-13230344D01*
X-5468067Y-13065308D01*
X-5413745Y-12886231D01*
X-5395403Y-12700000D01*
X-4765100Y-12700000D01*
X-4746748Y-12886329D01*
X-4692397Y-13065501D01*
X-4604138Y-13230623D01*
X-4604136Y-13230625D01*
X-4485357Y-13375357D01*
X-4408115Y-13438748D01*
X-4340624Y-13494137D01*
X-4175502Y-13582396D01*
X-4085917Y-13609571D01*
X-3996331Y-13636747D01*
X-3810000Y-13655099D01*
X-3623669Y-13636747D01*
X-3444499Y-13582396D01*
X-3279375Y-13494136D01*
X-3134643Y-13375357D01*
X-3015864Y-13230625D01*
X-2927604Y-13065501D01*
X-2873253Y-12886331D01*
X-2854901Y-12700000D01*
X-2225100Y-12700000D01*
X-2206748Y-12886329D01*
X-2152397Y-13065501D01*
X-2064138Y-13230623D01*
X-2064136Y-13230625D01*
X-1945357Y-13375357D01*
X-1868115Y-13438748D01*
X-1800624Y-13494137D01*
X-1635502Y-13582396D01*
X-1545917Y-13609571D01*
X-1456331Y-13636747D01*
X-1270000Y-13655099D01*
X-1083669Y-13636747D01*
X-904499Y-13582396D01*
X-739375Y-13494136D01*
X-594643Y-13375357D01*
X-475864Y-13230625D01*
X-387604Y-13065501D01*
X-333253Y-12886331D01*
X-314901Y-12700000D01*
X314900Y-12700000D01*
X333252Y-12886329D01*
X387603Y-13065501D01*
X475862Y-13230623D01*
X475864Y-13230625D01*
X594643Y-13375357D01*
X671885Y-13438748D01*
X739376Y-13494137D01*
X904498Y-13582396D01*
X994083Y-13609571D01*
X1083669Y-13636747D01*
X1270000Y-13655099D01*
X1456331Y-13636747D01*
X1635501Y-13582396D01*
X1800625Y-13494136D01*
X1945357Y-13375357D01*
X2064136Y-13230625D01*
X2152396Y-13065501D01*
X2206747Y-12886331D01*
X2225099Y-12700000D01*
X2854900Y-12700000D01*
X2873252Y-12886329D01*
X2927603Y-13065501D01*
X3015862Y-13230623D01*
X3015864Y-13230625D01*
X3134643Y-13375357D01*
X3211885Y-13438748D01*
X3279376Y-13494137D01*
X3444498Y-13582396D01*
X3534083Y-13609571D01*
X3623669Y-13636747D01*
X3810000Y-13655099D01*
X3996331Y-13636747D01*
X4175501Y-13582396D01*
X4340625Y-13494136D01*
X4408114Y-13438749D01*
X5752672Y-13438749D01*
X5819651Y-13493716D01*
X5984693Y-13581934D01*
X6163768Y-13636255D01*
X6350000Y-13654597D01*
X6536231Y-13636255D01*
X6715308Y-13581933D01*
X6880344Y-13493719D01*
X6947326Y-13438748D01*
X6349999Y-12841421D01*
X5752672Y-13438748D01*
X5752672Y-13438749D01*
X4408114Y-13438749D01*
X4485357Y-13375357D01*
X4604136Y-13230625D01*
X4692396Y-13065501D01*
X4746747Y-12886331D01*
X4765099Y-12700000D01*
X4765099Y-12699999D01*
X5395402Y-12699999D01*
X5413744Y-12886231D01*
X5468065Y-13065306D01*
X5556283Y-13230349D01*
X5611250Y-13297326D01*
X6208577Y-12699999D01*
X6491421Y-12699999D01*
X7088748Y-13297326D01*
X7143719Y-13230344D01*
X7231933Y-13065308D01*
X7286255Y-12886231D01*
X7304597Y-12700000D01*
X7934900Y-12700000D01*
X7953252Y-12886329D01*
X8007603Y-13065501D01*
X8095862Y-13230623D01*
X8095864Y-13230625D01*
X8214643Y-13375357D01*
X8291885Y-13438748D01*
X8359376Y-13494137D01*
X8524498Y-13582396D01*
X8614083Y-13609571D01*
X8703669Y-13636747D01*
X8890000Y-13655099D01*
X9076331Y-13636747D01*
X9255501Y-13582396D01*
X9420625Y-13494136D01*
X9565357Y-13375357D01*
X9684136Y-13230625D01*
X9772396Y-13065501D01*
X9826747Y-12886331D01*
X9845099Y-12700000D01*
X10474900Y-12700000D01*
X10493252Y-12886329D01*
X10547603Y-13065501D01*
X10635862Y-13230623D01*
X10635864Y-13230625D01*
X10754643Y-13375357D01*
X10831885Y-13438748D01*
X10899376Y-13494137D01*
X11064498Y-13582396D01*
X11154083Y-13609571D01*
X11243669Y-13636747D01*
X11430000Y-13655099D01*
X11616331Y-13636747D01*
X11795501Y-13582396D01*
X11960625Y-13494136D01*
X12105357Y-13375357D01*
X12224136Y-13230625D01*
X12312396Y-13065501D01*
X12366747Y-12886331D01*
X12385099Y-12700000D01*
X13014900Y-12700000D01*
X13033252Y-12886329D01*
X13087603Y-13065501D01*
X13175862Y-13230623D01*
X13175864Y-13230625D01*
X13294643Y-13375357D01*
X13371885Y-13438748D01*
X13439376Y-13494137D01*
X13604498Y-13582396D01*
X13694083Y-13609571D01*
X13783669Y-13636747D01*
X13970000Y-13655099D01*
X14156331Y-13636747D01*
X14335501Y-13582396D01*
X14500625Y-13494136D01*
X14645357Y-13375357D01*
X14764136Y-13230625D01*
X14852396Y-13065501D01*
X14906747Y-12886331D01*
X14925099Y-12700000D01*
X15554900Y-12700000D01*
X15573252Y-12886329D01*
X15627603Y-13065501D01*
X15715862Y-13230623D01*
X15715864Y-13230625D01*
X15834643Y-13375357D01*
X15911885Y-13438748D01*
X15979376Y-13494137D01*
X16144498Y-13582396D01*
X16234083Y-13609571D01*
X16323669Y-13636747D01*
X16510000Y-13655099D01*
X16696331Y-13636747D01*
X16875501Y-13582396D01*
X17040625Y-13494136D01*
X17108114Y-13438749D01*
X18452672Y-13438749D01*
X18519651Y-13493716D01*
X18684693Y-13581934D01*
X18863768Y-13636255D01*
X19050000Y-13654597D01*
X19236231Y-13636255D01*
X19415308Y-13581933D01*
X19580344Y-13493719D01*
X19647326Y-13438748D01*
X19049999Y-12841421D01*
X18452672Y-13438748D01*
X18452672Y-13438749D01*
X17108114Y-13438749D01*
X17185357Y-13375357D01*
X17304136Y-13230625D01*
X17392396Y-13065501D01*
X17446747Y-12886331D01*
X17465099Y-12700000D01*
X18095402Y-12700000D01*
X18113744Y-12886231D01*
X18168065Y-13065306D01*
X18256283Y-13230349D01*
X18311250Y-13297326D01*
X18908577Y-12699999D01*
X19191421Y-12699999D01*
X19788748Y-13297326D01*
X19843719Y-13230344D01*
X19931933Y-13065308D01*
X19986255Y-12886231D01*
X20004597Y-12700000D01*
X20634900Y-12700000D01*
X20653252Y-12886329D01*
X20707603Y-13065501D01*
X20795862Y-13230623D01*
X20795864Y-13230625D01*
X20914643Y-13375357D01*
X20991885Y-13438748D01*
X21059376Y-13494137D01*
X21224498Y-13582396D01*
X21314083Y-13609571D01*
X21403669Y-13636747D01*
X21590000Y-13655099D01*
X21776331Y-13636747D01*
X21955501Y-13582396D01*
X22120625Y-13494136D01*
X22265357Y-13375357D01*
X22384136Y-13230625D01*
X22472396Y-13065501D01*
X22526747Y-12886331D01*
X22545099Y-12700000D01*
X23174900Y-12700000D01*
X23193252Y-12886329D01*
X23247603Y-13065501D01*
X23335862Y-13230623D01*
X23335864Y-13230625D01*
X23454643Y-13375357D01*
X23531885Y-13438748D01*
X23599376Y-13494137D01*
X23764498Y-13582396D01*
X23854083Y-13609571D01*
X23943669Y-13636747D01*
X24130000Y-13655099D01*
X24316331Y-13636747D01*
X24495501Y-13582396D01*
X24660625Y-13494136D01*
X24805357Y-13375357D01*
X24924136Y-13230625D01*
X25012396Y-13065501D01*
X25066747Y-12886331D01*
X25085099Y-12700000D01*
X25066747Y-12513669D01*
X25012396Y-12334499D01*
X25012396Y-12334498D01*
X24924137Y-12169376D01*
X24869394Y-12102672D01*
X24805357Y-12024643D01*
X24661136Y-11906283D01*
X24660623Y-11905862D01*
X24495501Y-11817603D01*
X24316329Y-11763252D01*
X24130000Y-11744900D01*
X23943670Y-11763252D01*
X23764498Y-11817603D01*
X23599376Y-11905862D01*
X23454643Y-12024643D01*
X23335862Y-12169376D01*
X23247603Y-12334498D01*
X23193252Y-12513670D01*
X23174900Y-12700000D01*
X22545099Y-12700000D01*
X22526747Y-12513669D01*
X22472396Y-12334499D01*
X22472396Y-12334498D01*
X22384137Y-12169376D01*
X22329394Y-12102672D01*
X22265357Y-12024643D01*
X22121136Y-11906283D01*
X22120623Y-11905862D01*
X21955501Y-11817603D01*
X21776329Y-11763252D01*
X21590000Y-11744900D01*
X21403670Y-11763252D01*
X21224498Y-11817603D01*
X21059376Y-11905862D01*
X20914643Y-12024643D01*
X20795862Y-12169376D01*
X20707603Y-12334498D01*
X20653252Y-12513670D01*
X20634900Y-12700000D01*
X20004597Y-12700000D01*
X19986255Y-12513768D01*
X19931934Y-12334693D01*
X19843716Y-12169651D01*
X19788748Y-12102672D01*
X19191421Y-12699999D01*
X18908577Y-12699999D01*
X18311250Y-12102672D01*
X18256282Y-12169654D01*
X18168065Y-12334693D01*
X18113744Y-12513768D01*
X18095402Y-12700000D01*
X17465099Y-12700000D01*
X17446747Y-12513669D01*
X17392396Y-12334499D01*
X17392396Y-12334498D01*
X17304137Y-12169376D01*
X17249394Y-12102672D01*
X17185357Y-12024643D01*
X17108113Y-11961250D01*
X18452672Y-11961250D01*
X19049999Y-12558577D01*
X19647326Y-11961250D01*
X19580349Y-11906283D01*
X19415306Y-11818065D01*
X19236231Y-11763744D01*
X19050000Y-11745402D01*
X18863768Y-11763744D01*
X18684693Y-11818065D01*
X18519654Y-11906282D01*
X18452672Y-11961250D01*
X17108113Y-11961250D01*
X17041136Y-11906283D01*
X17040623Y-11905862D01*
X16875501Y-11817603D01*
X16696329Y-11763252D01*
X16510000Y-11744900D01*
X16323670Y-11763252D01*
X16144498Y-11817603D01*
X15979376Y-11905862D01*
X15834643Y-12024643D01*
X15715862Y-12169376D01*
X15627603Y-12334498D01*
X15573252Y-12513670D01*
X15554900Y-12700000D01*
X14925099Y-12700000D01*
X14906747Y-12513669D01*
X14852396Y-12334499D01*
X14852396Y-12334498D01*
X14764137Y-12169376D01*
X14709394Y-12102672D01*
X14645357Y-12024643D01*
X14501136Y-11906283D01*
X14500623Y-11905862D01*
X14335501Y-11817603D01*
X14156329Y-11763252D01*
X13970000Y-11744900D01*
X13783670Y-11763252D01*
X13604498Y-11817603D01*
X13439376Y-11905862D01*
X13294643Y-12024643D01*
X13175862Y-12169376D01*
X13087603Y-12334498D01*
X13033252Y-12513670D01*
X13014900Y-12700000D01*
X12385099Y-12700000D01*
X12366747Y-12513669D01*
X12312396Y-12334499D01*
X12312396Y-12334498D01*
X12224137Y-12169376D01*
X12169394Y-12102672D01*
X12105357Y-12024643D01*
X11961136Y-11906283D01*
X11960623Y-11905862D01*
X11795501Y-11817603D01*
X11616329Y-11763252D01*
X11430000Y-11744900D01*
X11243670Y-11763252D01*
X11064498Y-11817603D01*
X10899376Y-11905862D01*
X10754643Y-12024643D01*
X10635862Y-12169376D01*
X10547603Y-12334498D01*
X10493252Y-12513670D01*
X10474900Y-12700000D01*
X9845099Y-12700000D01*
X9826747Y-12513669D01*
X9772396Y-12334499D01*
X9772396Y-12334498D01*
X9684137Y-12169376D01*
X9629394Y-12102672D01*
X9565357Y-12024643D01*
X9421136Y-11906283D01*
X9420623Y-11905862D01*
X9255501Y-11817603D01*
X9076329Y-11763252D01*
X8890000Y-11744900D01*
X8703670Y-11763252D01*
X8524498Y-11817603D01*
X8359376Y-11905862D01*
X8214643Y-12024643D01*
X8095862Y-12169376D01*
X8007603Y-12334498D01*
X7953252Y-12513670D01*
X7934900Y-12700000D01*
X7304597Y-12700000D01*
X7304597Y-12699999D01*
X7286255Y-12513768D01*
X7231934Y-12334693D01*
X7143716Y-12169651D01*
X7088748Y-12102672D01*
X6491421Y-12699999D01*
X6208577Y-12699999D01*
X5611250Y-12102672D01*
X5556282Y-12169654D01*
X5468065Y-12334693D01*
X5413744Y-12513768D01*
X5395402Y-12699999D01*
X4765099Y-12699999D01*
X4746747Y-12513669D01*
X4692396Y-12334499D01*
X4692396Y-12334498D01*
X4604137Y-12169376D01*
X4549394Y-12102672D01*
X4485357Y-12024643D01*
X4408113Y-11961250D01*
X5752672Y-11961250D01*
X6349999Y-12558577D01*
X6947326Y-11961250D01*
X6880349Y-11906283D01*
X6715306Y-11818065D01*
X6536231Y-11763744D01*
X6350000Y-11745402D01*
X6163768Y-11763744D01*
X5984693Y-11818065D01*
X5819654Y-11906282D01*
X5752672Y-11961250D01*
X4408113Y-11961250D01*
X4341136Y-11906283D01*
X4340623Y-11905862D01*
X4175501Y-11817603D01*
X3996329Y-11763252D01*
X3810000Y-11744900D01*
X3623670Y-11763252D01*
X3444498Y-11817603D01*
X3279376Y-11905862D01*
X3134643Y-12024643D01*
X3015862Y-12169376D01*
X2927603Y-12334498D01*
X2873252Y-12513670D01*
X2854900Y-12700000D01*
X2225099Y-12700000D01*
X2206747Y-12513669D01*
X2152396Y-12334499D01*
X2152396Y-12334498D01*
X2064137Y-12169376D01*
X2009394Y-12102672D01*
X1945357Y-12024643D01*
X1801136Y-11906283D01*
X1800623Y-11905862D01*
X1635501Y-11817603D01*
X1456329Y-11763252D01*
X1270000Y-11744900D01*
X1083670Y-11763252D01*
X904498Y-11817603D01*
X739376Y-11905862D01*
X594643Y-12024643D01*
X475862Y-12169376D01*
X387603Y-12334498D01*
X333252Y-12513670D01*
X314900Y-12700000D01*
X-314901Y-12700000D01*
X-333253Y-12513669D01*
X-387604Y-12334499D01*
X-387604Y-12334498D01*
X-475863Y-12169376D01*
X-530606Y-12102672D01*
X-594643Y-12024643D01*
X-738864Y-11906283D01*
X-739377Y-11905862D01*
X-904499Y-11817603D01*
X-1083671Y-11763252D01*
X-1270000Y-11744900D01*
X-1456330Y-11763252D01*
X-1635502Y-11817603D01*
X-1800624Y-11905862D01*
X-1945357Y-12024643D01*
X-2064138Y-12169376D01*
X-2152397Y-12334498D01*
X-2206748Y-12513670D01*
X-2225100Y-12700000D01*
X-2854901Y-12700000D01*
X-2873253Y-12513669D01*
X-2927604Y-12334499D01*
X-2927604Y-12334498D01*
X-3015863Y-12169376D01*
X-3070606Y-12102672D01*
X-3134643Y-12024643D01*
X-3278864Y-11906283D01*
X-3279377Y-11905862D01*
X-3444499Y-11817603D01*
X-3623671Y-11763252D01*
X-3810000Y-11744900D01*
X-3996330Y-11763252D01*
X-4175502Y-11817603D01*
X-4340624Y-11905862D01*
X-4485357Y-12024643D01*
X-4604138Y-12169376D01*
X-4692397Y-12334498D01*
X-4746748Y-12513670D01*
X-4765100Y-12700000D01*
X-5395403Y-12700000D01*
X-5395403Y-12699999D01*
X-5413745Y-12513768D01*
X-5468066Y-12334693D01*
X-5556284Y-12169651D01*
X-5611252Y-12102672D01*
X-6208579Y-12699999D01*
X-6491423Y-12699999D01*
X-7088750Y-12102672D01*
X-7143718Y-12169654D01*
X-7231935Y-12334693D01*
X-7286256Y-12513768D01*
X-7304598Y-12699999D01*
X-7934901Y-12699999D01*
X-7953253Y-12513669D01*
X-8007604Y-12334499D01*
X-8007604Y-12334498D01*
X-8095863Y-12169376D01*
X-8150606Y-12102672D01*
X-8214643Y-12024643D01*
X-8291887Y-11961250D01*
X-6947328Y-11961250D01*
X-6350001Y-12558577D01*
X-5752674Y-11961250D01*
X-5819651Y-11906283D01*
X-5984694Y-11818065D01*
X-6163769Y-11763744D01*
X-6350000Y-11745402D01*
X-6536232Y-11763744D01*
X-6715307Y-11818065D01*
X-6880346Y-11906282D01*
X-6947328Y-11961250D01*
X-8291887Y-11961250D01*
X-8358864Y-11906283D01*
X-8359377Y-11905862D01*
X-8524499Y-11817603D01*
X-8703671Y-11763252D01*
X-8890000Y-11744900D01*
X-9076330Y-11763252D01*
X-9255502Y-11817603D01*
X-9420624Y-11905862D01*
X-9565357Y-12024643D01*
X-9684138Y-12169376D01*
X-9772397Y-12334498D01*
X-9826748Y-12513670D01*
X-9845100Y-12700000D01*
X-10474901Y-12700000D01*
X-10493253Y-12513669D01*
X-10547604Y-12334499D01*
X-10547604Y-12334498D01*
X-10635863Y-12169376D01*
X-10690606Y-12102672D01*
X-10754643Y-12024643D01*
X-10898864Y-11906283D01*
X-10899377Y-11905862D01*
X-11064499Y-11817603D01*
X-11243671Y-11763252D01*
X-11430000Y-11744900D01*
X-11616330Y-11763252D01*
X-11795502Y-11817603D01*
X-11960624Y-11905862D01*
X-12105357Y-12024643D01*
X-12224138Y-12169376D01*
X-12312397Y-12334498D01*
X-12366748Y-12513670D01*
X-12385100Y-12700000D01*
X-13014901Y-12700000D01*
X-13033253Y-12513669D01*
X-13087604Y-12334499D01*
X-13087604Y-12334498D01*
X-13175863Y-12169376D01*
X-13230606Y-12102672D01*
X-13294643Y-12024643D01*
X-13438864Y-11906283D01*
X-13439377Y-11905862D01*
X-13604499Y-11817603D01*
X-13783671Y-11763252D01*
X-13970000Y-11744900D01*
X-14156330Y-11763252D01*
X-14335502Y-11817603D01*
X-14500624Y-11905862D01*
X-14645357Y-12024643D01*
X-14764138Y-12169376D01*
X-14852397Y-12334498D01*
X-14906748Y-12513670D01*
X-14925100Y-12700000D01*
X-15554901Y-12700000D01*
X-15573253Y-12513669D01*
X-15627604Y-12334499D01*
X-15627604Y-12334498D01*
X-15715863Y-12169376D01*
X-15770606Y-12102672D01*
X-15834643Y-12024643D01*
X-15978864Y-11906283D01*
X-15979377Y-11905862D01*
X-16144499Y-11817603D01*
X-16323671Y-11763252D01*
X-16510000Y-11744900D01*
X-16696330Y-11763252D01*
X-16875502Y-11817603D01*
X-17040624Y-11905862D01*
X-17185357Y-12024643D01*
X-17304138Y-12169376D01*
X-17392397Y-12334498D01*
X-17446748Y-12513670D01*
X-17465100Y-12700000D01*
X-18095403Y-12700000D01*
X-18113745Y-12513768D01*
X-18168066Y-12334693D01*
X-18256284Y-12169651D01*
X-18311252Y-12102672D01*
X-18908579Y-12699999D01*
X-19191423Y-12699999D01*
X-19788750Y-12102672D01*
X-19843718Y-12169654D01*
X-19931935Y-12334693D01*
X-19986256Y-12513768D01*
X-20004598Y-12700000D01*
X-20634901Y-12700000D01*
X-20653253Y-12513669D01*
X-20707604Y-12334499D01*
X-20707604Y-12334498D01*
X-20795863Y-12169376D01*
X-20850606Y-12102672D01*
X-20914643Y-12024643D01*
X-20991887Y-11961250D01*
X-19647328Y-11961250D01*
X-19050001Y-12558577D01*
X-18452674Y-11961250D01*
X-18519651Y-11906283D01*
X-18684694Y-11818065D01*
X-18863769Y-11763744D01*
X-19050000Y-11745402D01*
X-19236232Y-11763744D01*
X-19415307Y-11818065D01*
X-19580346Y-11906282D01*
X-19647328Y-11961250D01*
X-20991887Y-11961250D01*
X-21058864Y-11906283D01*
X-21059377Y-11905862D01*
X-21224499Y-11817603D01*
X-21403671Y-11763252D01*
X-21590000Y-11744900D01*
X-21776329Y-11763252D01*
X-21955501Y-11817603D01*
X-22120623Y-11905862D01*
X-22121136Y-11906283D01*
X-22265357Y-12024643D01*
X-22329394Y-12102672D01*
X-22384137Y-12169376D01*
X-22472396Y-12334498D01*
X-22472396Y-12334499D01*
X-22526747Y-12513669D01*
X-22545099Y-12700000D01*
X-23174900Y-12700000D01*
X-23193252Y-12513670D01*
X-23247603Y-12334498D01*
X-23335862Y-12169376D01*
X-23454643Y-12024643D01*
X-23599376Y-11905862D01*
X-23764498Y-11817603D01*
X-23943670Y-11763252D01*
X-24130000Y-11744900D01*
X-24316329Y-11763252D01*
X-24495501Y-11817603D01*
X-24660623Y-11905862D01*
X-24661136Y-11906283D01*
X-24805357Y-12024643D01*
X-24869394Y-12102672D01*
X-24924137Y-12169376D01*
X-25012396Y-12334498D01*
X-25012396Y-12334499D01*
X-25066747Y-12513669D01*
X-25085099Y-12700000D01*
X-33924500Y-12700000D01*
X-33924500Y-9334954D01*
X-24930500Y-9334954D01*
X-24915368Y-9469255D01*
X-24855789Y-9639522D01*
X-24759816Y-9792262D01*
X-24632262Y-9919816D01*
X-24479522Y-10015789D01*
X-24309255Y-10075368D01*
X-24130000Y-10095565D01*
X-23950745Y-10075368D01*
X-23950742Y-10075367D01*
X-23950741Y-10075367D01*
X-23888851Y-10053710D01*
X-23780478Y-10015789D01*
X-23627738Y-9919816D01*
X-23500184Y-9792262D01*
X-23404211Y-9639522D01*
X-23401514Y-9631815D01*
X-23344632Y-9469258D01*
X-23329500Y-9334954D01*
X-22390500Y-9334954D01*
X-22375368Y-9469255D01*
X-22315789Y-9639522D01*
X-22219816Y-9792262D01*
X-22092262Y-9919816D01*
X-21939522Y-10015789D01*
X-21769255Y-10075368D01*
X-21590000Y-10095565D01*
X-21410745Y-10075368D01*
X-21240478Y-10015789D01*
X-21087738Y-9919816D01*
X-20960184Y-9792262D01*
X-20864211Y-9639522D01*
X-20804632Y-9469255D01*
X-20789500Y-9334954D01*
X-20789500Y-9334922D01*
X-19850000Y-9334922D01*
X-19834877Y-9469146D01*
X-19775337Y-9639300D01*
X-19679424Y-9791946D01*
X-19551947Y-9919423D01*
X-19399301Y-10015336D01*
X-19229147Y-10074876D01*
X-19150000Y-10083793D01*
X-18950000Y-10083793D01*
X-18870854Y-10074876D01*
X-18700700Y-10015336D01*
X-18548054Y-9919423D01*
X-18420577Y-9791946D01*
X-18324664Y-9639300D01*
X-18265124Y-9469146D01*
X-18250003Y-9334951D01*
X-17310500Y-9334951D01*
X-17295368Y-9469258D01*
X-17238486Y-9631815D01*
X-17235789Y-9639522D01*
X-17139816Y-9792262D01*
X-17012262Y-9919816D01*
X-16859522Y-10015789D01*
X-16751149Y-10053710D01*
X-16689259Y-10075367D01*
X-16689258Y-10075367D01*
X-16689255Y-10075368D01*
X-16510000Y-10095565D01*
X-16330745Y-10075368D01*
X-16160478Y-10015789D01*
X-16007738Y-9919816D01*
X-15880184Y-9792262D01*
X-15784211Y-9639522D01*
X-15724632Y-9469255D01*
X-15709500Y-9334954D01*
X-15709500Y-9334951D01*
X-14770500Y-9334951D01*
X-14755368Y-9469258D01*
X-14698486Y-9631815D01*
X-14695789Y-9639522D01*
X-14599816Y-9792262D01*
X-14472262Y-9919816D01*
X-14319522Y-10015789D01*
X-14211149Y-10053710D01*
X-14149259Y-10075367D01*
X-14149258Y-10075367D01*
X-14149255Y-10075368D01*
X-13970000Y-10095565D01*
X-13790745Y-10075368D01*
X-13620478Y-10015789D01*
X-13467738Y-9919816D01*
X-13340184Y-9792262D01*
X-13244211Y-9639522D01*
X-13184632Y-9469255D01*
X-13169500Y-9334954D01*
X-13169500Y-9334951D01*
X-12230500Y-9334951D01*
X-12215368Y-9469258D01*
X-12158486Y-9631815D01*
X-12155789Y-9639522D01*
X-12059816Y-9792262D01*
X-11932262Y-9919816D01*
X-11779522Y-10015789D01*
X-11671149Y-10053710D01*
X-11609259Y-10075367D01*
X-11609258Y-10075367D01*
X-11609255Y-10075368D01*
X-11430000Y-10095565D01*
X-11250745Y-10075368D01*
X-11080478Y-10015789D01*
X-10927738Y-9919816D01*
X-10800184Y-9792262D01*
X-10704211Y-9639522D01*
X-10644632Y-9469255D01*
X-10629500Y-9334954D01*
X-10629500Y-9334951D01*
X-9690500Y-9334951D01*
X-9675368Y-9469258D01*
X-9618486Y-9631815D01*
X-9615789Y-9639522D01*
X-9519816Y-9792262D01*
X-9392262Y-9919816D01*
X-9239522Y-10015789D01*
X-9131149Y-10053710D01*
X-9069259Y-10075367D01*
X-9069258Y-10075367D01*
X-9069255Y-10075368D01*
X-8890000Y-10095565D01*
X-8710745Y-10075368D01*
X-8540478Y-10015789D01*
X-8387738Y-9919816D01*
X-8260184Y-9792262D01*
X-8164211Y-9639522D01*
X-8104632Y-9469255D01*
X-8089500Y-9334954D01*
X-8089500Y-9334922D01*
X-7150000Y-9334922D01*
X-7134877Y-9469146D01*
X-7075337Y-9639300D01*
X-6979424Y-9791946D01*
X-6851947Y-9919423D01*
X-6699301Y-10015336D01*
X-6529147Y-10074876D01*
X-6450000Y-10083793D01*
X-6250000Y-10083793D01*
X-6170854Y-10074876D01*
X-6000700Y-10015336D01*
X-5848054Y-9919423D01*
X-5720577Y-9791946D01*
X-5624664Y-9639300D01*
X-5565124Y-9469146D01*
X-5550003Y-9334951D01*
X-4610500Y-9334951D01*
X-4595368Y-9469258D01*
X-4538486Y-9631815D01*
X-4535789Y-9639522D01*
X-4439816Y-9792262D01*
X-4312262Y-9919816D01*
X-4159522Y-10015789D01*
X-4051149Y-10053710D01*
X-3989259Y-10075367D01*
X-3989258Y-10075367D01*
X-3989255Y-10075368D01*
X-3810000Y-10095565D01*
X-3630745Y-10075368D01*
X-3460478Y-10015789D01*
X-3307738Y-9919816D01*
X-3180184Y-9792262D01*
X-3084211Y-9639522D01*
X-3024632Y-9469255D01*
X-3009500Y-9334954D01*
X-3009500Y-9334951D01*
X-2070500Y-9334951D01*
X-2055368Y-9469258D01*
X-1998486Y-9631815D01*
X-1995789Y-9639522D01*
X-1899816Y-9792262D01*
X-1772262Y-9919816D01*
X-1619522Y-10015789D01*
X-1511149Y-10053710D01*
X-1449259Y-10075367D01*
X-1449258Y-10075367D01*
X-1449255Y-10075368D01*
X-1270000Y-10095565D01*
X-1090745Y-10075368D01*
X-920478Y-10015789D01*
X-767738Y-9919816D01*
X-640184Y-9792262D01*
X-544211Y-9639522D01*
X-484632Y-9469255D01*
X-469500Y-9334954D01*
X-469500Y-9334951D01*
X469500Y-9334951D01*
X484632Y-9469258D01*
X541514Y-9631815D01*
X544211Y-9639522D01*
X640184Y-9792262D01*
X767738Y-9919816D01*
X920478Y-10015789D01*
X1028851Y-10053710D01*
X1090741Y-10075367D01*
X1090742Y-10075367D01*
X1090745Y-10075368D01*
X1270000Y-10095565D01*
X1449255Y-10075368D01*
X1619522Y-10015789D01*
X1772262Y-9919816D01*
X1899816Y-9792262D01*
X1995789Y-9639522D01*
X2055368Y-9469255D01*
X2070500Y-9334954D01*
X2070500Y-9334951D01*
X3009500Y-9334951D01*
X3024632Y-9469258D01*
X3081514Y-9631815D01*
X3084211Y-9639522D01*
X3180184Y-9792262D01*
X3307738Y-9919816D01*
X3460478Y-10015789D01*
X3568851Y-10053710D01*
X3630741Y-10075367D01*
X3630742Y-10075367D01*
X3630745Y-10075368D01*
X3810000Y-10095565D01*
X3989255Y-10075368D01*
X4159522Y-10015789D01*
X4312262Y-9919816D01*
X4439816Y-9792262D01*
X4535789Y-9639522D01*
X4595368Y-9469255D01*
X4610500Y-9334954D01*
X4610500Y-9334922D01*
X5550000Y-9334922D01*
X5565123Y-9469146D01*
X5624663Y-9639300D01*
X5720576Y-9791946D01*
X5848053Y-9919423D01*
X6000699Y-10015336D01*
X6170853Y-10074876D01*
X6250000Y-10083793D01*
X6450000Y-10083793D01*
X6529146Y-10074876D01*
X6699300Y-10015336D01*
X6851946Y-9919423D01*
X6979423Y-9791946D01*
X7075336Y-9639300D01*
X7134876Y-9469146D01*
X7149997Y-9334951D01*
X8089500Y-9334951D01*
X8104632Y-9469258D01*
X8161514Y-9631815D01*
X8164211Y-9639522D01*
X8260184Y-9792262D01*
X8387738Y-9919816D01*
X8540478Y-10015789D01*
X8648851Y-10053710D01*
X8710741Y-10075367D01*
X8710742Y-10075367D01*
X8710745Y-10075368D01*
X8890000Y-10095565D01*
X9069255Y-10075368D01*
X9239522Y-10015789D01*
X9392262Y-9919816D01*
X9519816Y-9792262D01*
X9615789Y-9639522D01*
X9675368Y-9469255D01*
X9690500Y-9334954D01*
X9690500Y-9334951D01*
X10629500Y-9334951D01*
X10644632Y-9469258D01*
X10701514Y-9631815D01*
X10704211Y-9639522D01*
X10800184Y-9792262D01*
X10927738Y-9919816D01*
X11080478Y-10015789D01*
X11188851Y-10053710D01*
X11250741Y-10075367D01*
X11250742Y-10075367D01*
X11250745Y-10075368D01*
X11430000Y-10095565D01*
X11609255Y-10075368D01*
X11779522Y-10015789D01*
X11932262Y-9919816D01*
X12059816Y-9792262D01*
X12155789Y-9639522D01*
X12215368Y-9469255D01*
X12230500Y-9334954D01*
X12230500Y-9334951D01*
X13169500Y-9334951D01*
X13184632Y-9469258D01*
X13241514Y-9631815D01*
X13244211Y-9639522D01*
X13340184Y-9792262D01*
X13467738Y-9919816D01*
X13620478Y-10015789D01*
X13728851Y-10053710D01*
X13790741Y-10075367D01*
X13790742Y-10075367D01*
X13790745Y-10075368D01*
X13970000Y-10095565D01*
X14149255Y-10075368D01*
X14319522Y-10015789D01*
X14472262Y-9919816D01*
X14599816Y-9792262D01*
X14695789Y-9639522D01*
X14755368Y-9469255D01*
X14770500Y-9334954D01*
X14770500Y-9334951D01*
X15709500Y-9334951D01*
X15724632Y-9469258D01*
X15781514Y-9631815D01*
X15784211Y-9639522D01*
X15880184Y-9792262D01*
X16007738Y-9919816D01*
X16160478Y-10015789D01*
X16268851Y-10053710D01*
X16330741Y-10075367D01*
X16330742Y-10075367D01*
X16330745Y-10075368D01*
X16510000Y-10095565D01*
X16689255Y-10075368D01*
X16859522Y-10015789D01*
X17012262Y-9919816D01*
X17139816Y-9792262D01*
X17235789Y-9639522D01*
X17295368Y-9469255D01*
X17310500Y-9334954D01*
X17310500Y-9334922D01*
X18250000Y-9334922D01*
X18265123Y-9469146D01*
X18324663Y-9639300D01*
X18420576Y-9791946D01*
X18548053Y-9919423D01*
X18700699Y-10015336D01*
X18870853Y-10074876D01*
X18950000Y-10083793D01*
X19150000Y-10083793D01*
X19229146Y-10074876D01*
X19399300Y-10015336D01*
X19551946Y-9919423D01*
X19679423Y-9791946D01*
X19775336Y-9639300D01*
X19834876Y-9469146D01*
X19849997Y-9334951D01*
X20789500Y-9334951D01*
X20804632Y-9469258D01*
X20861514Y-9631815D01*
X20864211Y-9639522D01*
X20960184Y-9792262D01*
X21087738Y-9919816D01*
X21240478Y-10015789D01*
X21348851Y-10053710D01*
X21410741Y-10075367D01*
X21410742Y-10075367D01*
X21410745Y-10075368D01*
X21590000Y-10095565D01*
X21769255Y-10075368D01*
X21939522Y-10015789D01*
X22092262Y-9919816D01*
X22219816Y-9792262D01*
X22315789Y-9639522D01*
X22375368Y-9469255D01*
X22390500Y-9334954D01*
X22390500Y-9334951D01*
X23329500Y-9334951D01*
X23344632Y-9469258D01*
X23401514Y-9631815D01*
X23404211Y-9639522D01*
X23500184Y-9792262D01*
X23627738Y-9919816D01*
X23780478Y-10015789D01*
X23888851Y-10053710D01*
X23950741Y-10075367D01*
X23950742Y-10075367D01*
X23950745Y-10075368D01*
X24130000Y-10095565D01*
X24309255Y-10075368D01*
X24479522Y-10015789D01*
X24632262Y-9919816D01*
X24759816Y-9792262D01*
X24855789Y-9639522D01*
X24915368Y-9469255D01*
X24930500Y-9334954D01*
X24930500Y-8445046D01*
X24915368Y-8310745D01*
X24855789Y-8140478D01*
X24759816Y-7987738D01*
X24632262Y-7860184D01*
X24479522Y-7764211D01*
X24461766Y-7757998D01*
X24309258Y-7704632D01*
X24130000Y-7684435D01*
X23950741Y-7704632D01*
X23780480Y-7764210D01*
X23780478Y-7764210D01*
X23780478Y-7764211D01*
X23733171Y-7793936D01*
X23627739Y-7860183D01*
X23500183Y-7987739D01*
X23404210Y-8140480D01*
X23344632Y-8310741D01*
X23329500Y-8445049D01*
X23329500Y-9334951D01*
X22390500Y-9334951D01*
X22390500Y-8445046D01*
X22375368Y-8310745D01*
X22315789Y-8140478D01*
X22219816Y-7987738D01*
X22092262Y-7860184D01*
X21939522Y-7764211D01*
X21921766Y-7757998D01*
X21769258Y-7704632D01*
X21590000Y-7684435D01*
X21410741Y-7704632D01*
X21240480Y-7764210D01*
X21240478Y-7764210D01*
X21240478Y-7764211D01*
X21193171Y-7793936D01*
X21087739Y-7860183D01*
X20960183Y-7987739D01*
X20864210Y-8140480D01*
X20804632Y-8310741D01*
X20789500Y-8445049D01*
X20789500Y-9334951D01*
X19849997Y-9334951D01*
X19850000Y-9334922D01*
X19850000Y-8990001D01*
X19849999Y-8990000D01*
X19150001Y-8990000D01*
X19150000Y-8990001D01*
X19150000Y-10083793D01*
X18950000Y-10083793D01*
X18950000Y-8990001D01*
X18949999Y-8990000D01*
X18250001Y-8990000D01*
X18250000Y-8990001D01*
X18250000Y-9334922D01*
X17310500Y-9334922D01*
X17310500Y-8789999D01*
X18250000Y-8789999D01*
X18250001Y-8790000D01*
X18949999Y-8790000D01*
X18950000Y-8789999D01*
X18950000Y-7696207D01*
X19150000Y-7696207D01*
X19150000Y-8789999D01*
X19150001Y-8790000D01*
X19849999Y-8790000D01*
X19850000Y-8789999D01*
X19850000Y-8445078D01*
X19834876Y-8310853D01*
X19775336Y-8140699D01*
X19679423Y-7988053D01*
X19551946Y-7860576D01*
X19399300Y-7764663D01*
X19229146Y-7705123D01*
X19150000Y-7696207D01*
X18950000Y-7696207D01*
X18870853Y-7705123D01*
X18700699Y-7764663D01*
X18548053Y-7860576D01*
X18420576Y-7988053D01*
X18324663Y-8140699D01*
X18265123Y-8310853D01*
X18250000Y-8445078D01*
X18250000Y-8789999D01*
X17310500Y-8789999D01*
X17310500Y-8445046D01*
X17295368Y-8310745D01*
X17235789Y-8140478D01*
X17139816Y-7987738D01*
X17012262Y-7860184D01*
X16859522Y-7764211D01*
X16841766Y-7757998D01*
X16689258Y-7704632D01*
X16510000Y-7684435D01*
X16330741Y-7704632D01*
X16160480Y-7764210D01*
X16160478Y-7764210D01*
X16160478Y-7764211D01*
X16113171Y-7793936D01*
X16007739Y-7860183D01*
X15880183Y-7987739D01*
X15784210Y-8140480D01*
X15724632Y-8310741D01*
X15709500Y-8445049D01*
X15709500Y-9334951D01*
X14770500Y-9334951D01*
X14770500Y-8445046D01*
X14755368Y-8310745D01*
X14695789Y-8140478D01*
X14599816Y-7987738D01*
X14472262Y-7860184D01*
X14319522Y-7764211D01*
X14301766Y-7757998D01*
X14149258Y-7704632D01*
X13970000Y-7684435D01*
X13790741Y-7704632D01*
X13620480Y-7764210D01*
X13620478Y-7764210D01*
X13620478Y-7764211D01*
X13573171Y-7793936D01*
X13467739Y-7860183D01*
X13340183Y-7987739D01*
X13244210Y-8140480D01*
X13184632Y-8310741D01*
X13169500Y-8445049D01*
X13169500Y-9334951D01*
X12230500Y-9334951D01*
X12230500Y-8445046D01*
X12215368Y-8310745D01*
X12155789Y-8140478D01*
X12059816Y-7987738D01*
X11932262Y-7860184D01*
X11779522Y-7764211D01*
X11761766Y-7757998D01*
X11609258Y-7704632D01*
X11430000Y-7684435D01*
X11250741Y-7704632D01*
X11080480Y-7764210D01*
X11080478Y-7764210D01*
X11080478Y-7764211D01*
X11033171Y-7793936D01*
X10927739Y-7860183D01*
X10800183Y-7987739D01*
X10704210Y-8140480D01*
X10644632Y-8310741D01*
X10629500Y-8445049D01*
X10629500Y-9334951D01*
X9690500Y-9334951D01*
X9690500Y-8445046D01*
X9675368Y-8310745D01*
X9615789Y-8140478D01*
X9519816Y-7987738D01*
X9392262Y-7860184D01*
X9239522Y-7764211D01*
X9221766Y-7757998D01*
X9069258Y-7704632D01*
X8890000Y-7684435D01*
X8710741Y-7704632D01*
X8540480Y-7764210D01*
X8540478Y-7764210D01*
X8540478Y-7764211D01*
X8493171Y-7793936D01*
X8387739Y-7860183D01*
X8260183Y-7987739D01*
X8164210Y-8140480D01*
X8104632Y-8310741D01*
X8089500Y-8445049D01*
X8089500Y-9334951D01*
X7149997Y-9334951D01*
X7150000Y-9334922D01*
X7150000Y-8990001D01*
X7149999Y-8990000D01*
X6450001Y-8990000D01*
X6450000Y-8990001D01*
X6450000Y-10083793D01*
X6250000Y-10083793D01*
X6250000Y-8990001D01*
X6249999Y-8990000D01*
X5550001Y-8990000D01*
X5550000Y-8990001D01*
X5550000Y-9334922D01*
X4610500Y-9334922D01*
X4610500Y-8789999D01*
X5550000Y-8789999D01*
X5550001Y-8790000D01*
X6249999Y-8790000D01*
X6250000Y-8789999D01*
X6250000Y-7696207D01*
X6450000Y-7696207D01*
X6450000Y-8789999D01*
X6450001Y-8790000D01*
X7149999Y-8790000D01*
X7150000Y-8789999D01*
X7150000Y-8445078D01*
X7134876Y-8310853D01*
X7075336Y-8140699D01*
X6979423Y-7988053D01*
X6851946Y-7860576D01*
X6699300Y-7764663D01*
X6529146Y-7705123D01*
X6450000Y-7696207D01*
X6250000Y-7696207D01*
X6170853Y-7705123D01*
X6000699Y-7764663D01*
X5848053Y-7860576D01*
X5720576Y-7988053D01*
X5624663Y-8140699D01*
X5565123Y-8310853D01*
X5550000Y-8445078D01*
X5550000Y-8789999D01*
X4610500Y-8789999D01*
X4610500Y-8445046D01*
X4595368Y-8310745D01*
X4535789Y-8140478D01*
X4439816Y-7987738D01*
X4312262Y-7860184D01*
X4159522Y-7764211D01*
X4141766Y-7757998D01*
X3989258Y-7704632D01*
X3810000Y-7684435D01*
X3630741Y-7704632D01*
X3460480Y-7764210D01*
X3460478Y-7764210D01*
X3460478Y-7764211D01*
X3413171Y-7793936D01*
X3307739Y-7860183D01*
X3180183Y-7987739D01*
X3084210Y-8140480D01*
X3024632Y-8310741D01*
X3009500Y-8445049D01*
X3009500Y-9334951D01*
X2070500Y-9334951D01*
X2070500Y-8445046D01*
X2055368Y-8310745D01*
X1995789Y-8140478D01*
X1899816Y-7987738D01*
X1772262Y-7860184D01*
X1619522Y-7764211D01*
X1601766Y-7757998D01*
X1449258Y-7704632D01*
X1270000Y-7684435D01*
X1090741Y-7704632D01*
X920480Y-7764210D01*
X920478Y-7764210D01*
X920478Y-7764211D01*
X873171Y-7793936D01*
X767739Y-7860183D01*
X640183Y-7987739D01*
X544210Y-8140480D01*
X484632Y-8310741D01*
X469500Y-8445049D01*
X469500Y-9334951D01*
X-469500Y-9334951D01*
X-469500Y-8445046D01*
X-484632Y-8310745D01*
X-544211Y-8140478D01*
X-640184Y-7987738D01*
X-767738Y-7860184D01*
X-920478Y-7764211D01*
X-938234Y-7757998D01*
X-1090742Y-7704632D01*
X-1270000Y-7684435D01*
X-1449259Y-7704632D01*
X-1619520Y-7764210D01*
X-1619522Y-7764210D01*
X-1619522Y-7764211D01*
X-1666829Y-7793936D01*
X-1772261Y-7860183D01*
X-1899817Y-7987739D01*
X-1995790Y-8140480D01*
X-2055368Y-8310741D01*
X-2070500Y-8445049D01*
X-2070500Y-9334951D01*
X-3009500Y-9334951D01*
X-3009500Y-8445046D01*
X-3024632Y-8310745D01*
X-3084211Y-8140478D01*
X-3180184Y-7987738D01*
X-3307738Y-7860184D01*
X-3460478Y-7764211D01*
X-3478234Y-7757998D01*
X-3630742Y-7704632D01*
X-3810000Y-7684435D01*
X-3989259Y-7704632D01*
X-4159520Y-7764210D01*
X-4159522Y-7764210D01*
X-4159522Y-7764211D01*
X-4206829Y-7793936D01*
X-4312261Y-7860183D01*
X-4439817Y-7987739D01*
X-4535790Y-8140480D01*
X-4595368Y-8310741D01*
X-4610500Y-8445049D01*
X-4610500Y-9334951D01*
X-5550003Y-9334951D01*
X-5550000Y-9334922D01*
X-5550000Y-8990001D01*
X-5550001Y-8990000D01*
X-6249999Y-8990000D01*
X-6250000Y-8990001D01*
X-6250000Y-10083793D01*
X-6450000Y-10083793D01*
X-6450000Y-8990001D01*
X-6450001Y-8990000D01*
X-7149999Y-8990000D01*
X-7150000Y-8990001D01*
X-7150000Y-9334922D01*
X-8089500Y-9334922D01*
X-8089500Y-8789999D01*
X-7150000Y-8789999D01*
X-7149999Y-8790000D01*
X-6450001Y-8790000D01*
X-6450000Y-8789999D01*
X-6450000Y-7696207D01*
X-6250000Y-7696207D01*
X-6250000Y-8789999D01*
X-6249999Y-8790000D01*
X-5550001Y-8790000D01*
X-5550000Y-8789999D01*
X-5550000Y-8445078D01*
X-5565124Y-8310853D01*
X-5624664Y-8140699D01*
X-5720577Y-7988053D01*
X-5848054Y-7860576D01*
X-6000700Y-7764663D01*
X-6170854Y-7705123D01*
X-6250000Y-7696207D01*
X-6450000Y-7696207D01*
X-6529147Y-7705123D01*
X-6699301Y-7764663D01*
X-6851947Y-7860576D01*
X-6979424Y-7988053D01*
X-7075337Y-8140699D01*
X-7134877Y-8310853D01*
X-7150000Y-8445078D01*
X-7150000Y-8789999D01*
X-8089500Y-8789999D01*
X-8089500Y-8445046D01*
X-8104632Y-8310745D01*
X-8164211Y-8140478D01*
X-8260184Y-7987738D01*
X-8387738Y-7860184D01*
X-8540478Y-7764211D01*
X-8558234Y-7757998D01*
X-8710742Y-7704632D01*
X-8890000Y-7684435D01*
X-9069259Y-7704632D01*
X-9239520Y-7764210D01*
X-9239522Y-7764210D01*
X-9239522Y-7764211D01*
X-9286829Y-7793936D01*
X-9392261Y-7860183D01*
X-9519817Y-7987739D01*
X-9615790Y-8140480D01*
X-9675368Y-8310741D01*
X-9690500Y-8445049D01*
X-9690500Y-9334951D01*
X-10629500Y-9334951D01*
X-10629500Y-8445046D01*
X-10644632Y-8310745D01*
X-10704211Y-8140478D01*
X-10800184Y-7987738D01*
X-10927738Y-7860184D01*
X-11080478Y-7764211D01*
X-11098234Y-7757998D01*
X-11250742Y-7704632D01*
X-11430000Y-7684435D01*
X-11609259Y-7704632D01*
X-11779520Y-7764210D01*
X-11779522Y-7764210D01*
X-11779522Y-7764211D01*
X-11826829Y-7793936D01*
X-11932261Y-7860183D01*
X-12059817Y-7987739D01*
X-12155790Y-8140480D01*
X-12215368Y-8310741D01*
X-12230500Y-8445049D01*
X-12230500Y-9334951D01*
X-13169500Y-9334951D01*
X-13169500Y-8445046D01*
X-13184632Y-8310745D01*
X-13244211Y-8140478D01*
X-13340184Y-7987738D01*
X-13467738Y-7860184D01*
X-13620478Y-7764211D01*
X-13638234Y-7757998D01*
X-13790742Y-7704632D01*
X-13970000Y-7684435D01*
X-14149259Y-7704632D01*
X-14319520Y-7764210D01*
X-14319522Y-7764210D01*
X-14319522Y-7764211D01*
X-14366829Y-7793936D01*
X-14472261Y-7860183D01*
X-14599817Y-7987739D01*
X-14695790Y-8140480D01*
X-14755368Y-8310741D01*
X-14770500Y-8445049D01*
X-14770500Y-9334951D01*
X-15709500Y-9334951D01*
X-15709500Y-8445046D01*
X-15724632Y-8310745D01*
X-15784211Y-8140478D01*
X-15880184Y-7987738D01*
X-16007738Y-7860184D01*
X-16054455Y-7830830D01*
X-16113171Y-7793936D01*
X-16147147Y-7757998D01*
X-16159500Y-7710110D01*
X-16159500Y-6596190D01*
X-16151964Y-6558304D01*
X-16130504Y-6526186D01*
X-14183814Y-4579496D01*
X-14151696Y-4558036D01*
X-14113810Y-4550500D01*
X-12686190Y-4550500D01*
X-12648304Y-4558036D01*
X-12616186Y-4579496D01*
X-11527407Y-5668275D01*
X-11503665Y-5706456D01*
X-11499258Y-5751200D01*
X-11505682Y-5799999D01*
X-11485045Y-5956761D01*
X-11424536Y-6102841D01*
X-11328283Y-6228282D01*
X-11294852Y-6253934D01*
X-11202841Y-6324536D01*
X-11056762Y-6385044D01*
X-10900000Y-6405682D01*
X-10743238Y-6385044D01*
X-10597159Y-6324536D01*
X-10471718Y-6228282D01*
X-10375464Y-6102841D01*
X-10314956Y-5956762D01*
X-10294318Y-5800000D01*
X-10314956Y-5643238D01*
X-10375464Y-5497159D01*
X-10439847Y-5413253D01*
X-10471718Y-5371717D01*
X-10597159Y-5275464D01*
X-10743239Y-5214955D01*
X-10863528Y-5199119D01*
X-10900000Y-5194318D01*
X-10900001Y-5194318D01*
X-10948801Y-5200742D01*
X-10993545Y-5196335D01*
X-11031726Y-5172593D01*
X-11624823Y-4579496D01*
X-12219199Y-3985119D01*
X-12232075Y-3969262D01*
X-12238564Y-3959330D01*
X-12262691Y-3940551D01*
X-12271882Y-3932435D01*
X-12272690Y-3931627D01*
X-12288772Y-3920145D01*
X-12292051Y-3917700D01*
X-12302940Y-3909225D01*
X-12330874Y-3887483D01*
X-12330876Y-3887482D01*
X-12335178Y-3884134D01*
X-12338708Y-3882316D01*
X-12391091Y-3866720D01*
X-12394984Y-3865472D01*
X-12446672Y-3847728D01*
X-12450592Y-3847157D01*
X-12500935Y-3849239D01*
X-12505177Y-3849415D01*
X-12509267Y-3849500D01*
X-14253381Y-3849500D01*
X-14273697Y-3847393D01*
X-14285315Y-3844957D01*
X-14315663Y-3848740D01*
X-14327908Y-3849500D01*
X-14329040Y-3849500D01*
X-14335466Y-3850571D01*
X-14348529Y-3852751D01*
X-14352569Y-3853339D01*
X-14406797Y-3860100D01*
X-14410592Y-3861316D01*
X-14458640Y-3887318D01*
X-14462276Y-3889189D01*
X-14511375Y-3913192D01*
X-14514570Y-3915574D01*
X-14551568Y-3955764D01*
X-14554399Y-3958715D01*
X-16724883Y-6129199D01*
X-16740735Y-6142072D01*
X-16750670Y-6148563D01*
X-16769454Y-6172696D01*
X-16777563Y-6181880D01*
X-16778373Y-6182690D01*
X-16789866Y-6198786D01*
X-16792310Y-6202062D01*
X-16825861Y-6245169D01*
X-16827687Y-6248716D01*
X-16843283Y-6301097D01*
X-16844530Y-6304990D01*
X-16862272Y-6356672D01*
X-16862843Y-6360591D01*
X-16860585Y-6415175D01*
X-16860500Y-6419267D01*
X-16860500Y-7710110D01*
X-16872853Y-7757998D01*
X-16906829Y-7793936D01*
X-17012261Y-7860183D01*
X-17139817Y-7987739D01*
X-17235790Y-8140480D01*
X-17295368Y-8310741D01*
X-17310500Y-8445049D01*
X-17310500Y-9334951D01*
X-18250003Y-9334951D01*
X-18250000Y-9334922D01*
X-18250000Y-8990001D01*
X-18250001Y-8990000D01*
X-18949999Y-8990000D01*
X-18950000Y-8990001D01*
X-18950000Y-10083793D01*
X-19150000Y-10083793D01*
X-19150000Y-8990001D01*
X-19150001Y-8990000D01*
X-19849999Y-8990000D01*
X-19850000Y-8990001D01*
X-19850000Y-9334922D01*
X-20789500Y-9334922D01*
X-20789500Y-8789999D01*
X-19850000Y-8789999D01*
X-19849999Y-8790000D01*
X-19150001Y-8790000D01*
X-19150000Y-8789999D01*
X-19150000Y-7696207D01*
X-18950000Y-7696207D01*
X-18950000Y-8789999D01*
X-18949999Y-8790000D01*
X-18250001Y-8790000D01*
X-18250000Y-8789999D01*
X-18250000Y-8445078D01*
X-18265124Y-8310853D01*
X-18324664Y-8140699D01*
X-18420577Y-7988053D01*
X-18548054Y-7860576D01*
X-18700700Y-7764663D01*
X-18870854Y-7705123D01*
X-18950000Y-7696207D01*
X-19150000Y-7696207D01*
X-19229147Y-7705123D01*
X-19399301Y-7764663D01*
X-19551947Y-7860576D01*
X-19679424Y-7988053D01*
X-19775337Y-8140699D01*
X-19834877Y-8310853D01*
X-19850000Y-8445078D01*
X-19850000Y-8789999D01*
X-20789500Y-8789999D01*
X-20789500Y-8445046D01*
X-20804632Y-8310745D01*
X-20864211Y-8140478D01*
X-20960184Y-7987738D01*
X-21087738Y-7860184D01*
X-21240478Y-7764211D01*
X-21258234Y-7757998D01*
X-21410742Y-7704632D01*
X-21590000Y-7684435D01*
X-21769258Y-7704632D01*
X-21921766Y-7757998D01*
X-21939522Y-7764211D01*
X-22092262Y-7860184D01*
X-22219816Y-7987738D01*
X-22315789Y-8140478D01*
X-22375368Y-8310745D01*
X-22390500Y-8445046D01*
X-22390500Y-9334954D01*
X-23329500Y-9334954D01*
X-23329500Y-9334951D01*
X-23329500Y-8445049D01*
X-23344632Y-8310741D01*
X-23404210Y-8140480D01*
X-23500183Y-7987739D01*
X-23627739Y-7860183D01*
X-23733171Y-7793936D01*
X-23780478Y-7764211D01*
X-23780478Y-7764210D01*
X-23780480Y-7764210D01*
X-23950741Y-7704632D01*
X-24130000Y-7684435D01*
X-24309258Y-7704632D01*
X-24461766Y-7757998D01*
X-24479522Y-7764211D01*
X-24632262Y-7860184D01*
X-24759816Y-7987738D01*
X-24855789Y-8140478D01*
X-24915368Y-8310745D01*
X-24930500Y-8445046D01*
X-24930500Y-9334954D01*
X-33924500Y-9334954D01*
X-33924500Y-9004319D01*
X-33924123Y-8995691D01*
X-33911210Y-8848094D01*
X-33908214Y-8831099D01*
X-33870987Y-8692168D01*
X-33865085Y-8675952D01*
X-33804300Y-8545597D01*
X-33795671Y-8530652D01*
X-33713178Y-8412841D01*
X-33702086Y-8399621D01*
X-33600378Y-8297913D01*
X-33587158Y-8286821D01*
X-33469343Y-8204326D01*
X-33454405Y-8195701D01*
X-33324046Y-8134913D01*
X-33307831Y-8129012D01*
X-33168893Y-8091783D01*
X-33151913Y-8088790D01*
X-33004309Y-8075877D01*
X-32995681Y-8075500D01*
X-27863965Y-8075500D01*
X-27594221Y-8039987D01*
X-27331421Y-7969570D01*
X-27080060Y-7865453D01*
X-26844440Y-7729418D01*
X-26785817Y-7684435D01*
X-26628596Y-7563796D01*
X-26628595Y-7563795D01*
X-26628591Y-7563792D01*
X-26436208Y-7371409D01*
X-26385326Y-7305099D01*
X-26270584Y-7155563D01*
X-26263987Y-7144137D01*
X-26134547Y-6919940D01*
X-26115739Y-6874535D01*
X-26096085Y-6827085D01*
X-26030430Y-6668579D01*
X-25960013Y-6405779D01*
X-25954063Y-6360591D01*
X-25924500Y-6136035D01*
X-25924500Y-3799999D01*
X19594318Y-3799999D01*
X19614955Y-3956761D01*
X19675464Y-4102841D01*
X19771716Y-4228281D01*
X19798062Y-4248496D01*
X19807800Y-4257035D01*
X21022963Y-5472198D01*
X21031502Y-5481936D01*
X21051718Y-5508283D01*
X21113728Y-5555864D01*
X21162799Y-5593517D01*
X21177159Y-5604536D01*
X21323238Y-5665044D01*
X21480000Y-5685682D01*
X21512927Y-5681346D01*
X21525849Y-5680500D01*
X28297022Y-5680500D01*
X28339350Y-5690005D01*
X28373548Y-5716693D01*
X28463590Y-5826410D01*
X28623550Y-5957685D01*
X28806046Y-6055232D01*
X28962994Y-6102841D01*
X29004066Y-6115300D01*
X29209998Y-6135583D01*
X29209998Y-6135582D01*
X29210000Y-6135583D01*
X29351249Y-6121670D01*
X29394302Y-6126980D01*
X29430954Y-6150189D01*
X30022963Y-6742198D01*
X30031502Y-6751936D01*
X30051718Y-6778282D01*
X30116464Y-6827963D01*
X30177159Y-6874536D01*
X30323238Y-6935044D01*
X30480000Y-6955682D01*
X30512927Y-6951346D01*
X30525849Y-6950500D01*
X35481386Y-6950500D01*
X35523714Y-6960005D01*
X35557913Y-6986694D01*
X35589643Y-7025357D01*
X35712369Y-7126076D01*
X35734376Y-7144137D01*
X35899498Y-7232396D01*
X35989083Y-7259571D01*
X36078669Y-7286747D01*
X36265000Y-7305099D01*
X36451331Y-7286747D01*
X36630501Y-7232396D01*
X36795625Y-7144136D01*
X36940357Y-7025357D01*
X37059136Y-6880625D01*
X37147396Y-6715501D01*
X37201747Y-6536331D01*
X37220099Y-6350000D01*
X37201747Y-6163669D01*
X37147396Y-5984499D01*
X37147396Y-5984498D01*
X37059137Y-5819376D01*
X37003186Y-5751200D01*
X36940357Y-5674643D01*
X36795625Y-5555864D01*
X36795626Y-5555864D01*
X36795623Y-5555862D01*
X36630501Y-5467603D01*
X36451329Y-5413252D01*
X36265000Y-5394900D01*
X36078670Y-5413252D01*
X35899498Y-5467603D01*
X35734376Y-5555862D01*
X35627910Y-5643238D01*
X35589643Y-5674643D01*
X35580584Y-5685682D01*
X35557914Y-5713305D01*
X35523714Y-5739995D01*
X35481386Y-5749500D01*
X30769743Y-5749500D01*
X30731857Y-5741964D01*
X30699739Y-5720504D01*
X30280189Y-5300954D01*
X30256980Y-5264302D01*
X30251670Y-5221249D01*
X30265583Y-5080000D01*
X30245300Y-4874066D01*
X30185232Y-4676046D01*
X30087685Y-4493550D01*
X29956410Y-4333590D01*
X29796450Y-4202315D01*
X29613954Y-4104768D01*
X29613953Y-4104767D01*
X29613952Y-4104767D01*
X29415933Y-4044699D01*
X29209999Y-4024416D01*
X29004066Y-4044699D01*
X28806047Y-4104767D01*
X28623549Y-4202315D01*
X28556873Y-4257035D01*
X28463590Y-4333590D01*
X28373548Y-4443306D01*
X28339350Y-4469995D01*
X28297022Y-4479500D01*
X21769743Y-4479500D01*
X21731857Y-4471964D01*
X21699739Y-4450504D01*
X21059234Y-3809999D01*
X35309900Y-3809999D01*
X35328252Y-3996329D01*
X35382603Y-4175501D01*
X35470862Y-4340623D01*
X35470864Y-4340625D01*
X35589643Y-4485357D01*
X35704351Y-4579496D01*
X35734376Y-4604137D01*
X35899498Y-4692396D01*
X35989084Y-4719571D01*
X36078669Y-4746747D01*
X36265000Y-4765099D01*
X36451331Y-4746747D01*
X36630501Y-4692396D01*
X36795625Y-4604136D01*
X36940357Y-4485357D01*
X37059136Y-4340625D01*
X37147396Y-4175501D01*
X37201747Y-3996331D01*
X37220099Y-3810000D01*
X37201747Y-3623669D01*
X37147396Y-3444499D01*
X37147396Y-3444498D01*
X37059137Y-3279376D01*
X37006268Y-3214956D01*
X36940357Y-3134643D01*
X36795625Y-3015864D01*
X36795626Y-3015864D01*
X36795623Y-3015862D01*
X36630501Y-2927603D01*
X36451329Y-2873252D01*
X36265000Y-2854900D01*
X36078670Y-2873252D01*
X35899498Y-2927603D01*
X35734376Y-3015862D01*
X35589643Y-3134643D01*
X35470862Y-3279376D01*
X35382603Y-3444498D01*
X35328252Y-3623670D01*
X35309900Y-3809999D01*
X21059234Y-3809999D01*
X20657035Y-3407800D01*
X20648496Y-3398062D01*
X20628281Y-3371716D01*
X20502841Y-3275464D01*
X20356761Y-3214955D01*
X20200000Y-3194318D01*
X20043238Y-3214955D01*
X19897158Y-3275464D01*
X19771717Y-3371717D01*
X19675464Y-3497158D01*
X19614955Y-3643238D01*
X19594318Y-3799999D01*
X-25924500Y-3799999D01*
X-25924500Y6136035D01*
X-25960012Y6405776D01*
X-26030431Y6668581D01*
X-26134545Y6919937D01*
X-26270584Y7155564D01*
X-26436203Y7371404D01*
X-26628596Y7563797D01*
X-26844436Y7729416D01*
X-27080063Y7865455D01*
X-27284993Y7950340D01*
X-27331421Y7969570D01*
X-27525387Y8021543D01*
X-27594224Y8039988D01*
X-27863965Y8075500D01*
X-27972520Y8075500D01*
X-32995681Y8075500D01*
X-33004309Y8075877D01*
X-33151905Y8088790D01*
X-33168900Y8091786D01*
X-33307831Y8129013D01*
X-33324047Y8134915D01*
X-33454402Y8195700D01*
X-33469347Y8204329D01*
X-33587158Y8286822D01*
X-33600378Y8297914D01*
X-33702086Y8399622D01*
X-33713178Y8412842D01*
X-33735728Y8445046D01*
X-24930500Y8445046D01*
X-24915368Y8310745D01*
X-24855789Y8140478D01*
X-24759816Y7987738D01*
X-24632262Y7860184D01*
X-24479522Y7764211D01*
X-24309255Y7704632D01*
X-24130000Y7684435D01*
X-23950745Y7704632D01*
X-23950742Y7704633D01*
X-23950741Y7704633D01*
X-23888851Y7726290D01*
X-23780478Y7764211D01*
X-23627738Y7860184D01*
X-23500184Y7987738D01*
X-23404211Y8140478D01*
X-23384888Y8195700D01*
X-23344632Y8310742D01*
X-23333928Y8405743D01*
X-23329500Y8445046D01*
X-22390500Y8445046D01*
X-22375368Y8310745D01*
X-22315789Y8140478D01*
X-22305673Y8124380D01*
X-22290500Y8071710D01*
X-22290500Y5214155D01*
X-22290681Y5208177D01*
X-22294358Y5147394D01*
X-22283375Y5087466D01*
X-22282479Y5081581D01*
X-22275140Y5021128D01*
X-22270740Y5009528D01*
X-22265933Y4992286D01*
X-22263695Y4980068D01*
X-22238685Y4924501D01*
X-22236417Y4919026D01*
X-22214818Y4862070D01*
X-22207768Y4851859D01*
X-22198966Y4836251D01*
X-22193878Y4824943D01*
X-22156320Y4777005D01*
X-22152778Y4772193D01*
X-22118183Y4722071D01*
X-22072580Y4681672D01*
X-22068278Y4677623D01*
X-19836013Y2445356D01*
X-19212403Y1821746D01*
X-19208305Y1817391D01*
X-19167931Y1771818D01*
X-19117809Y1737221D01*
X-19112993Y1733677D01*
X-19086373Y1712822D01*
X-19065057Y1696122D01*
X-19053748Y1691033D01*
X-19038145Y1682233D01*
X-19027930Y1675182D01*
X-18970982Y1653585D01*
X-18965470Y1651302D01*
X-18909932Y1626306D01*
X-18897728Y1624070D01*
X-18880468Y1619258D01*
X-18868872Y1614860D01*
X-18808395Y1607517D01*
X-18802530Y1606625D01*
X-18742606Y1595643D01*
X-18742606Y1595644D01*
X-18742605Y1595643D01*
X-18705941Y1597861D01*
X-18681833Y1599320D01*
X-18675856Y1599500D01*
X-8731165Y1599500D01*
X-8693279Y1591964D01*
X-8661162Y1570505D01*
X-4465367Y-2625290D01*
X-4465363Y-2625293D01*
X-4465362Y-2625294D01*
X-4365058Y-2703878D01*
X-4209930Y-2773696D01*
X-4042607Y-2804358D01*
X-4042607Y-2804357D01*
X-4042606Y-2804358D01*
X-3872804Y-2794086D01*
X-3710394Y-2743478D01*
X-3564815Y-2655472D01*
X-3543987Y-2634644D01*
X22699500Y-2634644D01*
X22738856Y-2819804D01*
X22794131Y-2943952D01*
X22815849Y-2992730D01*
X22832657Y-3015864D01*
X22927113Y-3145873D01*
X23067781Y-3272531D01*
X23067783Y-3272532D01*
X23067784Y-3272533D01*
X23231716Y-3367179D01*
X23411744Y-3425674D01*
X23552808Y-3440500D01*
X24247189Y-3440500D01*
X24247192Y-3440500D01*
X24388256Y-3425674D01*
X24568284Y-3367179D01*
X24732216Y-3272533D01*
X24872888Y-3145871D01*
X24984151Y-2992730D01*
X25061144Y-2819803D01*
X25100500Y-2634646D01*
X25100500Y-2539999D01*
X28154416Y-2539999D01*
X28174699Y-2745933D01*
X28207754Y-2854900D01*
X28234768Y-2943954D01*
X28332315Y-3126450D01*
X28463590Y-3286410D01*
X28623550Y-3417685D01*
X28806046Y-3515232D01*
X29004066Y-3575300D01*
X29210000Y-3595583D01*
X29415934Y-3575300D01*
X29613954Y-3515232D01*
X29796450Y-3417685D01*
X29956410Y-3286410D01*
X30087685Y-3126450D01*
X30185232Y-2943954D01*
X30245300Y-2745934D01*
X30265583Y-2540000D01*
X30245300Y-2334066D01*
X30185232Y-2136046D01*
X30087685Y-1953550D01*
X29956410Y-1793590D01*
X29796450Y-1662315D01*
X29613954Y-1564768D01*
X29613953Y-1564767D01*
X29613952Y-1564767D01*
X29415933Y-1504699D01*
X29209999Y-1484416D01*
X29004066Y-1504699D01*
X28806047Y-1564767D01*
X28623549Y-1662315D01*
X28463590Y-1793590D01*
X28332315Y-1953549D01*
X28234767Y-2136047D01*
X28174699Y-2334066D01*
X28154416Y-2539999D01*
X25100500Y-2539999D01*
X25100500Y-2445354D01*
X25061144Y-2260197D01*
X24984151Y-2087270D01*
X24872888Y-1934129D01*
X24872886Y-1934126D01*
X24732218Y-1807468D01*
X24568284Y-1712821D01*
X24412843Y-1662315D01*
X24388256Y-1654326D01*
X24247192Y-1639500D01*
X23552808Y-1639500D01*
X23411744Y-1654325D01*
X23411744Y-1654326D01*
X23231715Y-1712821D01*
X23067781Y-1807468D01*
X22927113Y-1934126D01*
X22815848Y-2087271D01*
X22738856Y-2260195D01*
X22699500Y-2445356D01*
X22699500Y-2634644D01*
X-3543987Y-2634644D01*
X-3444528Y-2535185D01*
X-3356522Y-2389606D01*
X-3305914Y-2227196D01*
X-3295642Y-2057394D01*
X-3295642Y-2057393D01*
X-3326304Y-1890070D01*
X-3396122Y-1734942D01*
X-3474706Y-1634638D01*
X-3474707Y-1634637D01*
X-3474710Y-1634633D01*
X-3839343Y-1270000D01*
X35309900Y-1270000D01*
X35328252Y-1456329D01*
X35382603Y-1635501D01*
X35470862Y-1800623D01*
X35470864Y-1800625D01*
X35589643Y-1945357D01*
X35712369Y-2046076D01*
X35734376Y-2064137D01*
X35899498Y-2152396D01*
X35989083Y-2179571D01*
X36078669Y-2206747D01*
X36265000Y-2225099D01*
X36451331Y-2206747D01*
X36630501Y-2152396D01*
X36795625Y-2064136D01*
X36940357Y-1945357D01*
X37059136Y-1800625D01*
X37147396Y-1635501D01*
X37201747Y-1456331D01*
X37220099Y-1270000D01*
X37201747Y-1083669D01*
X37147396Y-904499D01*
X37147396Y-904498D01*
X37059137Y-739376D01*
X37041076Y-717369D01*
X36940357Y-594643D01*
X36795625Y-475864D01*
X36795626Y-475864D01*
X36795623Y-475862D01*
X36630501Y-387603D01*
X36451329Y-333252D01*
X36265000Y-314900D01*
X36078670Y-333252D01*
X35899498Y-387603D01*
X35734376Y-475862D01*
X35589643Y-594643D01*
X35470862Y-739376D01*
X35382603Y-904498D01*
X35328252Y-1083670D01*
X35309900Y-1270000D01*
X-3839343Y-1270000D01*
X-5009343Y-100000D01*
X22701150Y-100000D01*
X22739336Y-279649D01*
X22816283Y-452476D01*
X22927487Y-605536D01*
X23068077Y-732124D01*
X23231924Y-826720D01*
X23411845Y-885181D01*
X23552839Y-900000D01*
X23799999Y-900000D01*
X23800000Y-899999D01*
X24000000Y-899999D01*
X24000001Y-900000D01*
X24247161Y-900000D01*
X24388154Y-885181D01*
X24568075Y-826720D01*
X24731922Y-732124D01*
X24872514Y-605533D01*
X24983716Y-452479D01*
X25060663Y-279651D01*
X25098850Y-100000D01*
X28164767Y-100000D01*
X28175191Y-205835D01*
X28235231Y-403763D01*
X28332730Y-586170D01*
X28463945Y-746054D01*
X28623829Y-877269D01*
X28806236Y-974768D01*
X29004164Y-1034808D01*
X29109999Y-1045232D01*
X29110000Y-1045232D01*
X29310000Y-1045232D01*
X29415835Y-1034808D01*
X29613763Y-974768D01*
X29796170Y-877269D01*
X29956054Y-746054D01*
X30087269Y-586170D01*
X30184768Y-403763D01*
X30244808Y-205835D01*
X30255232Y-100000D01*
X29310001Y-100000D01*
X29310000Y-100001D01*
X29310000Y-1045232D01*
X29110000Y-1045232D01*
X29110000Y-100001D01*
X29109999Y-100000D01*
X28164767Y-100000D01*
X25098850Y-100000D01*
X24000001Y-100000D01*
X24000000Y-100001D01*
X24000000Y-899999D01*
X23800000Y-899999D01*
X23800000Y-100001D01*
X23799999Y-100000D01*
X22701150Y-100000D01*
X-5009343Y-100000D01*
X-5209343Y100000D01*
X22701150Y100000D01*
X23799999Y100000D01*
X23800000Y100001D01*
X24000000Y100001D01*
X24000001Y100000D01*
X25098850Y100000D01*
X25098850Y100001D01*
X28164767Y100001D01*
X28164768Y100000D01*
X29109999Y100000D01*
X29110000Y100001D01*
X29110000Y1045232D01*
X29109999Y1045233D01*
X29310000Y1045233D01*
X29310000Y100001D01*
X29310001Y100000D01*
X30255232Y100000D01*
X30255232Y100001D01*
X30244808Y205836D01*
X30184768Y403764D01*
X30087269Y586171D01*
X29956054Y746055D01*
X29796170Y877270D01*
X29613763Y974769D01*
X29415835Y1034809D01*
X29310000Y1045233D01*
X29109999Y1045233D01*
X29004164Y1034809D01*
X28806236Y974769D01*
X28623829Y877270D01*
X28463945Y746055D01*
X28332730Y586171D01*
X28235231Y403764D01*
X28175191Y205836D01*
X28164767Y100001D01*
X25098850Y100001D01*
X25060663Y279650D01*
X24983716Y452477D01*
X24872512Y605537D01*
X24731922Y732125D01*
X24568075Y826721D01*
X24388154Y885182D01*
X24247161Y900000D01*
X24000001Y900000D01*
X24000000Y899999D01*
X24000000Y100001D01*
X23800000Y100001D01*
X23800000Y899999D01*
X23799999Y900000D01*
X23552839Y900000D01*
X23411845Y885182D01*
X23231924Y826721D01*
X23068077Y732125D01*
X22927485Y605534D01*
X22816283Y452480D01*
X22739336Y279652D01*
X22701150Y100000D01*
X-5209343Y100000D01*
X-6379343Y1270000D01*
X35309900Y1270000D01*
X35328252Y1083671D01*
X35382603Y904499D01*
X35470862Y739377D01*
X35470864Y739375D01*
X35589643Y594643D01*
X35712369Y493924D01*
X35734376Y475863D01*
X35899498Y387604D01*
X35989083Y360429D01*
X36078669Y333253D01*
X36265000Y314901D01*
X36451331Y333253D01*
X36630501Y387604D01*
X36795625Y475864D01*
X36940357Y594643D01*
X37059136Y739375D01*
X37147396Y904499D01*
X37201747Y1083669D01*
X37220099Y1270000D01*
X37201747Y1456331D01*
X37154595Y1611769D01*
X37147396Y1635502D01*
X37059137Y1800624D01*
X37041076Y1822631D01*
X36940357Y1945357D01*
X36795625Y2064136D01*
X36795626Y2064136D01*
X36795623Y2064138D01*
X36630501Y2152397D01*
X36451329Y2206748D01*
X36265000Y2225100D01*
X36078670Y2206748D01*
X35899498Y2152397D01*
X35734376Y2064138D01*
X35589643Y1945357D01*
X35470862Y1800624D01*
X35382603Y1635502D01*
X35328252Y1456330D01*
X35309900Y1270000D01*
X-6379343Y1270000D01*
X-7554699Y2445356D01*
X22699500Y2445356D01*
X22738856Y2260196D01*
X22815848Y2087272D01*
X22815849Y2087270D01*
X22832657Y2064136D01*
X22927113Y1934127D01*
X23067781Y1807469D01*
X23067783Y1807468D01*
X23067784Y1807467D01*
X23231716Y1712821D01*
X23411744Y1654326D01*
X23552808Y1639500D01*
X24247189Y1639500D01*
X24247192Y1639500D01*
X24388256Y1654326D01*
X24437274Y1670253D01*
X28159500Y1670253D01*
X28171133Y1611769D01*
X28215447Y1545448D01*
X28259762Y1515838D01*
X28281769Y1501133D01*
X28340252Y1489500D01*
X30079747Y1489500D01*
X30079748Y1489500D01*
X30138231Y1501133D01*
X30204552Y1545448D01*
X30248867Y1611769D01*
X30260500Y1670252D01*
X30260500Y3071251D01*
X35667672Y3071251D01*
X35734651Y3016284D01*
X35899693Y2928066D01*
X36078768Y2873745D01*
X36265000Y2855403D01*
X36451231Y2873745D01*
X36630308Y2928067D01*
X36795344Y3016281D01*
X36862326Y3071252D01*
X36264999Y3668579D01*
X35667672Y3071252D01*
X35667672Y3071251D01*
X30260500Y3071251D01*
X30260500Y3409748D01*
X30248867Y3468231D01*
X30234162Y3490239D01*
X30204552Y3534553D01*
X30138231Y3578867D01*
X30079748Y3590500D01*
X28340252Y3590500D01*
X28311010Y3584684D01*
X28281768Y3578867D01*
X28215447Y3534553D01*
X28171133Y3468232D01*
X28159500Y3409747D01*
X28159500Y1670253D01*
X24437274Y1670253D01*
X24568284Y1712821D01*
X24732216Y1807467D01*
X24872888Y1934129D01*
X24984151Y2087270D01*
X25061144Y2260197D01*
X25100500Y2445354D01*
X25100500Y2634646D01*
X25061144Y2819803D01*
X24984151Y2992730D01*
X24872888Y3145871D01*
X24872886Y3145874D01*
X24732218Y3272532D01*
X24568284Y3367179D01*
X24568283Y3367180D01*
X24388256Y3425674D01*
X24247192Y3440500D01*
X23552808Y3440500D01*
X23411744Y3425675D01*
X23411744Y3425674D01*
X23231715Y3367179D01*
X23067781Y3272532D01*
X22927113Y3145874D01*
X22815848Y2992729D01*
X22738856Y2819805D01*
X22699500Y2634644D01*
X22699500Y2445356D01*
X-7554699Y2445356D01*
X-7887600Y2778257D01*
X-7891698Y2782611D01*
X-7932071Y2828183D01*
X-7982201Y2862786D01*
X-7987009Y2866324D01*
X-8034944Y2903879D01*
X-8046254Y2908969D01*
X-8061862Y2917772D01*
X-8072069Y2924818D01*
X-8089781Y2931535D01*
X-8129026Y2946419D01*
X-8134519Y2948695D01*
X-8190068Y2973695D01*
X-8202279Y2975933D01*
X-8219535Y2980744D01*
X-8231127Y2985140D01*
X-8291563Y2992479D01*
X-8297471Y2993378D01*
X-8357396Y3004359D01*
X-8418177Y3000681D01*
X-8424155Y3000500D01*
X-18368835Y3000500D01*
X-18406721Y3008036D01*
X-18438839Y3029496D01*
X-19219343Y3810000D01*
X35310402Y3810000D01*
X35328744Y3623769D01*
X35383065Y3444694D01*
X35471283Y3279651D01*
X35526250Y3212674D01*
X36123577Y3810001D01*
X36406421Y3810001D01*
X37003748Y3212674D01*
X37058719Y3279656D01*
X37146933Y3444692D01*
X37201255Y3623769D01*
X37219597Y3810000D01*
X37201255Y3996232D01*
X37146934Y4175307D01*
X37058716Y4340349D01*
X37003748Y4407328D01*
X36406421Y3810001D01*
X36123577Y3810001D01*
X35526250Y4407328D01*
X35471282Y4340346D01*
X35383065Y4175307D01*
X35328744Y3996232D01*
X35310402Y3810000D01*
X-19219343Y3810000D01*
X-19958093Y4548750D01*
X35667672Y4548750D01*
X36264999Y3951423D01*
X36862326Y4548750D01*
X36795349Y4603717D01*
X36630306Y4691935D01*
X36451231Y4746256D01*
X36265000Y4764598D01*
X36078768Y4746256D01*
X35899693Y4691935D01*
X35734654Y4603718D01*
X35667672Y4548750D01*
X-19958093Y4548750D01*
X-20860504Y5451161D01*
X-20881964Y5483279D01*
X-20889500Y5521165D01*
X-20889500Y6350000D01*
X35309900Y6350000D01*
X35328252Y6163671D01*
X35382603Y5984499D01*
X35470862Y5819377D01*
X35470864Y5819375D01*
X35589643Y5674643D01*
X35712369Y5573924D01*
X35734376Y5555863D01*
X35899498Y5467604D01*
X35953704Y5451161D01*
X36078669Y5413253D01*
X36265000Y5394901D01*
X36451331Y5413253D01*
X36630501Y5467604D01*
X36795625Y5555864D01*
X36940357Y5674643D01*
X37059136Y5819375D01*
X37147396Y5984499D01*
X37201747Y6163669D01*
X37220099Y6350000D01*
X37201747Y6536331D01*
X37147396Y6715501D01*
X37147396Y6715502D01*
X37059137Y6880624D01*
X37026871Y6919940D01*
X36940357Y7025357D01*
X36795625Y7144136D01*
X36795626Y7144136D01*
X36795623Y7144138D01*
X36630501Y7232397D01*
X36451329Y7286748D01*
X36265000Y7305100D01*
X36078670Y7286748D01*
X35899498Y7232397D01*
X35734376Y7144138D01*
X35589643Y7025357D01*
X35470862Y6880624D01*
X35382603Y6715502D01*
X35328252Y6536330D01*
X35309900Y6350000D01*
X-20889500Y6350000D01*
X-20889500Y8071710D01*
X-20874327Y8124380D01*
X-20864211Y8140478D01*
X-20804632Y8310745D01*
X-20789500Y8445046D01*
X-20789500Y8445078D01*
X-19850000Y8445078D01*
X-19834877Y8310854D01*
X-19775337Y8140700D01*
X-19679424Y7988054D01*
X-19551947Y7860577D01*
X-19399301Y7764664D01*
X-19229147Y7705124D01*
X-19150000Y7696207D01*
X-18950000Y7696207D01*
X-18870854Y7705124D01*
X-18700700Y7764664D01*
X-18548054Y7860577D01*
X-18420577Y7988054D01*
X-18324664Y8140700D01*
X-18265124Y8310854D01*
X-18250004Y8445046D01*
X-17310500Y8445046D01*
X-17306072Y8405743D01*
X-17295368Y8310742D01*
X-17255112Y8195700D01*
X-17235789Y8140478D01*
X-17139816Y7987738D01*
X-17012262Y7860184D01*
X-16859522Y7764211D01*
X-16751149Y7726290D01*
X-16689259Y7704633D01*
X-16689258Y7704633D01*
X-16689255Y7704632D01*
X-16510000Y7684435D01*
X-16330745Y7704632D01*
X-16160478Y7764211D01*
X-16007738Y7860184D01*
X-15880184Y7987738D01*
X-15784211Y8140478D01*
X-15724632Y8310745D01*
X-15709500Y8445046D01*
X-14770500Y8445046D01*
X-14766072Y8405743D01*
X-14755368Y8310742D01*
X-14715112Y8195700D01*
X-14695789Y8140478D01*
X-14599816Y7987738D01*
X-14472262Y7860184D01*
X-14319522Y7764211D01*
X-14211149Y7726290D01*
X-14149259Y7704633D01*
X-14149258Y7704633D01*
X-14149255Y7704632D01*
X-13970000Y7684435D01*
X-13790745Y7704632D01*
X-13620478Y7764211D01*
X-13467738Y7860184D01*
X-13340184Y7987738D01*
X-13244211Y8140478D01*
X-13184632Y8310745D01*
X-13169500Y8445046D01*
X-12230500Y8445046D01*
X-12226072Y8405743D01*
X-12215368Y8310742D01*
X-12175112Y8195700D01*
X-12155789Y8140478D01*
X-12059816Y7987738D01*
X-11932262Y7860184D01*
X-11779522Y7764211D01*
X-11671149Y7726290D01*
X-11609259Y7704633D01*
X-11609258Y7704633D01*
X-11609255Y7704632D01*
X-11430000Y7684435D01*
X-11250745Y7704632D01*
X-11080478Y7764211D01*
X-10927738Y7860184D01*
X-10800184Y7987738D01*
X-10704211Y8140478D01*
X-10644632Y8310745D01*
X-10629500Y8445046D01*
X-9690500Y8445046D01*
X-9686072Y8405743D01*
X-9675368Y8310742D01*
X-9635112Y8195700D01*
X-9615789Y8140478D01*
X-9519816Y7987738D01*
X-9392262Y7860184D01*
X-9239522Y7764211D01*
X-9131149Y7726290D01*
X-9069259Y7704633D01*
X-9069258Y7704633D01*
X-9069255Y7704632D01*
X-8890000Y7684435D01*
X-8710745Y7704632D01*
X-8540478Y7764211D01*
X-8387738Y7860184D01*
X-8260184Y7987738D01*
X-8164211Y8140478D01*
X-8104632Y8310745D01*
X-8089500Y8445046D01*
X-8089500Y8445078D01*
X-7150000Y8445078D01*
X-7134877Y8310854D01*
X-7075337Y8140700D01*
X-6979424Y7988054D01*
X-6851947Y7860577D01*
X-6699301Y7764664D01*
X-6529147Y7705124D01*
X-6450000Y7696207D01*
X-6250000Y7696207D01*
X-6170854Y7705124D01*
X-6000700Y7764664D01*
X-5848054Y7860577D01*
X-5720577Y7988054D01*
X-5624664Y8140700D01*
X-5565124Y8310854D01*
X-5550004Y8445046D01*
X-4610500Y8445046D01*
X-4606072Y8405743D01*
X-4595368Y8310742D01*
X-4555112Y8195700D01*
X-4535789Y8140478D01*
X-4439816Y7987738D01*
X-4312262Y7860184D01*
X-4159522Y7764211D01*
X-4051149Y7726290D01*
X-3989259Y7704633D01*
X-3989258Y7704633D01*
X-3989255Y7704632D01*
X-3810000Y7684435D01*
X-3630745Y7704632D01*
X-3460478Y7764211D01*
X-3307738Y7860184D01*
X-3180184Y7987738D01*
X-3084211Y8140478D01*
X-3024632Y8310745D01*
X-3009500Y8445046D01*
X-2070500Y8445046D01*
X-2066072Y8405743D01*
X-2055368Y8310742D01*
X-2015112Y8195700D01*
X-1995789Y8140478D01*
X-1899816Y7987738D01*
X-1772262Y7860184D01*
X-1619522Y7764211D01*
X-1511149Y7726290D01*
X-1449259Y7704633D01*
X-1449258Y7704633D01*
X-1449255Y7704632D01*
X-1270000Y7684435D01*
X-1090745Y7704632D01*
X-920478Y7764211D01*
X-767738Y7860184D01*
X-640184Y7987738D01*
X-544211Y8140478D01*
X-484632Y8310745D01*
X-469500Y8445046D01*
X469500Y8445046D01*
X473928Y8405743D01*
X484632Y8310742D01*
X524888Y8195700D01*
X544211Y8140478D01*
X640184Y7987738D01*
X767738Y7860184D01*
X920478Y7764211D01*
X1028851Y7726290D01*
X1090741Y7704633D01*
X1090742Y7704633D01*
X1090745Y7704632D01*
X1270000Y7684435D01*
X1449255Y7704632D01*
X1619522Y7764211D01*
X1772262Y7860184D01*
X1899816Y7987738D01*
X1995789Y8140478D01*
X2055368Y8310745D01*
X2070500Y8445046D01*
X3009500Y8445046D01*
X3013928Y8405743D01*
X3024632Y8310742D01*
X3064888Y8195700D01*
X3084211Y8140478D01*
X3180184Y7987738D01*
X3307738Y7860184D01*
X3460478Y7764211D01*
X3568851Y7726290D01*
X3630741Y7704633D01*
X3630742Y7704633D01*
X3630745Y7704632D01*
X3810000Y7684435D01*
X3989255Y7704632D01*
X4159522Y7764211D01*
X4312262Y7860184D01*
X4439816Y7987738D01*
X4535789Y8140478D01*
X4595368Y8310745D01*
X4610500Y8445046D01*
X4610500Y8445078D01*
X5550000Y8445078D01*
X5565123Y8310854D01*
X5624663Y8140700D01*
X5720576Y7988054D01*
X5848053Y7860577D01*
X6000699Y7764664D01*
X6170853Y7705124D01*
X6250000Y7696207D01*
X6450000Y7696207D01*
X6529146Y7705124D01*
X6699300Y7764664D01*
X6851946Y7860577D01*
X6979423Y7988054D01*
X7075336Y8140700D01*
X7134876Y8310854D01*
X7149996Y8445046D01*
X8089500Y8445046D01*
X8093928Y8405743D01*
X8104632Y8310742D01*
X8144888Y8195700D01*
X8164211Y8140478D01*
X8260184Y7987738D01*
X8387738Y7860184D01*
X8540478Y7764211D01*
X8648851Y7726290D01*
X8710741Y7704633D01*
X8710742Y7704633D01*
X8710745Y7704632D01*
X8890000Y7684435D01*
X9069255Y7704632D01*
X9239522Y7764211D01*
X9392262Y7860184D01*
X9519816Y7987738D01*
X9615789Y8140478D01*
X9675368Y8310745D01*
X9690500Y8445046D01*
X10629500Y8445046D01*
X10633928Y8405743D01*
X10644632Y8310742D01*
X10684888Y8195700D01*
X10704211Y8140478D01*
X10800184Y7987738D01*
X10927738Y7860184D01*
X11080478Y7764211D01*
X11188851Y7726290D01*
X11250741Y7704633D01*
X11250742Y7704633D01*
X11250745Y7704632D01*
X11430000Y7684435D01*
X11609255Y7704632D01*
X11779522Y7764211D01*
X11932262Y7860184D01*
X12059816Y7987738D01*
X12155789Y8140478D01*
X12215368Y8310745D01*
X12230500Y8445046D01*
X13169500Y8445046D01*
X13173928Y8405743D01*
X13184632Y8310742D01*
X13224888Y8195700D01*
X13244211Y8140478D01*
X13340184Y7987738D01*
X13467738Y7860184D01*
X13620478Y7764211D01*
X13728851Y7726290D01*
X13790741Y7704633D01*
X13790742Y7704633D01*
X13790745Y7704632D01*
X13970000Y7684435D01*
X14149255Y7704632D01*
X14319522Y7764211D01*
X14472262Y7860184D01*
X14599816Y7987738D01*
X14695789Y8140478D01*
X14755368Y8310745D01*
X14770500Y8445046D01*
X15709500Y8445046D01*
X15713928Y8405743D01*
X15724632Y8310742D01*
X15764888Y8195700D01*
X15784211Y8140478D01*
X15880184Y7987738D01*
X16007738Y7860184D01*
X16160478Y7764211D01*
X16268851Y7726290D01*
X16330741Y7704633D01*
X16330742Y7704633D01*
X16330745Y7704632D01*
X16510000Y7684435D01*
X16689255Y7704632D01*
X16859522Y7764211D01*
X17012262Y7860184D01*
X17139816Y7987738D01*
X17235789Y8140478D01*
X17295368Y8310745D01*
X17310500Y8445046D01*
X17310500Y8445078D01*
X18250000Y8445078D01*
X18265123Y8310854D01*
X18324663Y8140700D01*
X18420576Y7988054D01*
X18548053Y7860577D01*
X18700699Y7764664D01*
X18870853Y7705124D01*
X18950000Y7696207D01*
X19150000Y7696207D01*
X19229146Y7705124D01*
X19399300Y7764664D01*
X19551946Y7860577D01*
X19679423Y7988054D01*
X19775336Y8140700D01*
X19834876Y8310854D01*
X19849996Y8445046D01*
X20789500Y8445046D01*
X20793928Y8405743D01*
X20804632Y8310742D01*
X20844888Y8195700D01*
X20864211Y8140478D01*
X20960184Y7987738D01*
X21087738Y7860184D01*
X21240478Y7764211D01*
X21348851Y7726290D01*
X21410741Y7704633D01*
X21410742Y7704633D01*
X21410745Y7704632D01*
X21590000Y7684435D01*
X21769255Y7704632D01*
X21939522Y7764211D01*
X22092262Y7860184D01*
X22219816Y7987738D01*
X22315789Y8140478D01*
X22375368Y8310745D01*
X22390500Y8445046D01*
X23329500Y8445046D01*
X23333928Y8405743D01*
X23344632Y8310742D01*
X23384888Y8195700D01*
X23404211Y8140478D01*
X23500184Y7987738D01*
X23627738Y7860184D01*
X23780478Y7764211D01*
X23888851Y7726290D01*
X23950741Y7704633D01*
X23950742Y7704633D01*
X23950745Y7704632D01*
X24130000Y7684435D01*
X24309255Y7704632D01*
X24479522Y7764211D01*
X24632262Y7860184D01*
X24759816Y7987738D01*
X24855789Y8140478D01*
X24915368Y8310745D01*
X24930500Y8445046D01*
X24930500Y9334954D01*
X24915368Y9469255D01*
X24855789Y9639522D01*
X24759816Y9792262D01*
X24632262Y9919816D01*
X24479522Y10015789D01*
X24471815Y10018486D01*
X24309258Y10075368D01*
X24130000Y10095565D01*
X23950741Y10075368D01*
X23780480Y10015790D01*
X23627739Y9919817D01*
X23500183Y9792261D01*
X23404210Y9639520D01*
X23344632Y9469259D01*
X23335985Y9392512D01*
X23329500Y9334954D01*
X23329500Y8445046D01*
X22390500Y8445046D01*
X22390500Y9334954D01*
X22375368Y9469255D01*
X22315789Y9639522D01*
X22219816Y9792262D01*
X22092262Y9919816D01*
X21939522Y10015789D01*
X21931815Y10018486D01*
X21769258Y10075368D01*
X21590000Y10095565D01*
X21410741Y10075368D01*
X21240480Y10015790D01*
X21087739Y9919817D01*
X20960183Y9792261D01*
X20864210Y9639520D01*
X20804632Y9469259D01*
X20795985Y9392512D01*
X20789500Y9334954D01*
X20789500Y8445046D01*
X19849996Y8445046D01*
X19850000Y8445078D01*
X19850000Y8789999D01*
X19849999Y8790000D01*
X19150001Y8790000D01*
X19150000Y8789999D01*
X19150000Y7696207D01*
X18950000Y7696207D01*
X18950000Y8789999D01*
X18949999Y8790000D01*
X18250001Y8790000D01*
X18250000Y8789999D01*
X18250000Y8445078D01*
X17310500Y8445078D01*
X17310500Y8990001D01*
X18250000Y8990001D01*
X18250001Y8990000D01*
X18949999Y8990000D01*
X18950000Y8990001D01*
X18950000Y10083793D01*
X19150000Y10083793D01*
X19150000Y8990001D01*
X19150001Y8990000D01*
X19849999Y8990000D01*
X19850000Y8990001D01*
X19850000Y9334922D01*
X19834876Y9469147D01*
X19775336Y9639301D01*
X19679423Y9791947D01*
X19551946Y9919424D01*
X19399300Y10015337D01*
X19229146Y10074877D01*
X19150000Y10083793D01*
X18950000Y10083793D01*
X18870853Y10074877D01*
X18700699Y10015337D01*
X18548053Y9919424D01*
X18420576Y9791947D01*
X18324663Y9639301D01*
X18265123Y9469147D01*
X18250000Y9334922D01*
X18250000Y8990001D01*
X17310500Y8990001D01*
X17310500Y9334954D01*
X17295368Y9469255D01*
X17235789Y9639522D01*
X17139816Y9792262D01*
X17012262Y9919816D01*
X16859522Y10015789D01*
X16851815Y10018486D01*
X16689258Y10075368D01*
X16510000Y10095565D01*
X16330741Y10075368D01*
X16160480Y10015790D01*
X16007739Y9919817D01*
X15880183Y9792261D01*
X15784210Y9639520D01*
X15724632Y9469259D01*
X15715985Y9392512D01*
X15709500Y9334954D01*
X15709500Y8445046D01*
X14770500Y8445046D01*
X14770500Y9334954D01*
X14755368Y9469255D01*
X14695789Y9639522D01*
X14599816Y9792262D01*
X14472262Y9919816D01*
X14319522Y10015789D01*
X14311815Y10018486D01*
X14149258Y10075368D01*
X13970000Y10095565D01*
X13790741Y10075368D01*
X13620480Y10015790D01*
X13467739Y9919817D01*
X13340183Y9792261D01*
X13244210Y9639520D01*
X13184632Y9469259D01*
X13175985Y9392512D01*
X13169500Y9334954D01*
X13169500Y8445046D01*
X12230500Y8445046D01*
X12230500Y9334954D01*
X12215368Y9469255D01*
X12155789Y9639522D01*
X12059816Y9792262D01*
X11932262Y9919816D01*
X11779522Y10015789D01*
X11771815Y10018486D01*
X11609258Y10075368D01*
X11430000Y10095565D01*
X11250741Y10075368D01*
X11080480Y10015790D01*
X10927739Y9919817D01*
X10800183Y9792261D01*
X10704210Y9639520D01*
X10644632Y9469259D01*
X10635985Y9392512D01*
X10629500Y9334954D01*
X10629500Y8445046D01*
X9690500Y8445046D01*
X9690500Y9334954D01*
X9675368Y9469255D01*
X9615789Y9639522D01*
X9519816Y9792262D01*
X9392262Y9919816D01*
X9239522Y10015789D01*
X9231815Y10018486D01*
X9069258Y10075368D01*
X8890000Y10095565D01*
X8710741Y10075368D01*
X8540480Y10015790D01*
X8387739Y9919817D01*
X8260183Y9792261D01*
X8164210Y9639520D01*
X8104632Y9469259D01*
X8095985Y9392512D01*
X8089500Y9334954D01*
X8089500Y8445046D01*
X7149996Y8445046D01*
X7150000Y8445078D01*
X7150000Y8789999D01*
X7149999Y8790000D01*
X6450001Y8790000D01*
X6450000Y8789999D01*
X6450000Y7696207D01*
X6250000Y7696207D01*
X6250000Y8789999D01*
X6249999Y8790000D01*
X5550001Y8790000D01*
X5550000Y8789999D01*
X5550000Y8445078D01*
X4610500Y8445078D01*
X4610500Y8990001D01*
X5550000Y8990001D01*
X5550001Y8990000D01*
X6249999Y8990000D01*
X6250000Y8990001D01*
X6250000Y10083793D01*
X6450000Y10083793D01*
X6450000Y8990001D01*
X6450001Y8990000D01*
X7149999Y8990000D01*
X7150000Y8990001D01*
X7150000Y9334922D01*
X7134876Y9469147D01*
X7075336Y9639301D01*
X6979423Y9791947D01*
X6851946Y9919424D01*
X6699300Y10015337D01*
X6529146Y10074877D01*
X6450000Y10083793D01*
X6250000Y10083793D01*
X6170853Y10074877D01*
X6000699Y10015337D01*
X5848053Y9919424D01*
X5720576Y9791947D01*
X5624663Y9639301D01*
X5565123Y9469147D01*
X5550000Y9334922D01*
X5550000Y8990001D01*
X4610500Y8990001D01*
X4610500Y9334954D01*
X4595368Y9469255D01*
X4535789Y9639522D01*
X4439816Y9792262D01*
X4312262Y9919816D01*
X4159522Y10015789D01*
X4151815Y10018486D01*
X3989258Y10075368D01*
X3810000Y10095565D01*
X3630741Y10075368D01*
X3460480Y10015790D01*
X3307739Y9919817D01*
X3180183Y9792261D01*
X3084210Y9639520D01*
X3024632Y9469259D01*
X3015985Y9392512D01*
X3009500Y9334954D01*
X3009500Y8445046D01*
X2070500Y8445046D01*
X2070500Y9334954D01*
X2055368Y9469255D01*
X1995789Y9639522D01*
X1899816Y9792262D01*
X1772262Y9919816D01*
X1619522Y10015789D01*
X1611815Y10018486D01*
X1449258Y10075368D01*
X1270000Y10095565D01*
X1090741Y10075368D01*
X920480Y10015790D01*
X767739Y9919817D01*
X640183Y9792261D01*
X544210Y9639520D01*
X484632Y9469259D01*
X475985Y9392512D01*
X469500Y9334954D01*
X469500Y8445046D01*
X-469500Y8445046D01*
X-469500Y9334954D01*
X-484632Y9469255D01*
X-544211Y9639522D01*
X-640184Y9792262D01*
X-767738Y9919816D01*
X-920478Y10015789D01*
X-928185Y10018486D01*
X-1090742Y10075368D01*
X-1270000Y10095565D01*
X-1449259Y10075368D01*
X-1619520Y10015790D01*
X-1772261Y9919817D01*
X-1899817Y9792261D01*
X-1995790Y9639520D01*
X-2055368Y9469259D01*
X-2064015Y9392512D01*
X-2070500Y9334954D01*
X-2070500Y8445046D01*
X-3009500Y8445046D01*
X-3009500Y9334954D01*
X-3024632Y9469255D01*
X-3084211Y9639522D01*
X-3180184Y9792262D01*
X-3307738Y9919816D01*
X-3460478Y10015789D01*
X-3468185Y10018486D01*
X-3630742Y10075368D01*
X-3810000Y10095565D01*
X-3989259Y10075368D01*
X-4159520Y10015790D01*
X-4312261Y9919817D01*
X-4439817Y9792261D01*
X-4535790Y9639520D01*
X-4595368Y9469259D01*
X-4604015Y9392512D01*
X-4610500Y9334954D01*
X-4610500Y8445046D01*
X-5550004Y8445046D01*
X-5550000Y8445078D01*
X-5550000Y8789999D01*
X-5550001Y8790000D01*
X-6249999Y8790000D01*
X-6250000Y8789999D01*
X-6250000Y7696207D01*
X-6450000Y7696207D01*
X-6450000Y8789999D01*
X-6450001Y8790000D01*
X-7149999Y8790000D01*
X-7150000Y8789999D01*
X-7150000Y8445078D01*
X-8089500Y8445078D01*
X-8089500Y8990001D01*
X-7150000Y8990001D01*
X-7149999Y8990000D01*
X-6450001Y8990000D01*
X-6450000Y8990001D01*
X-6450000Y10083793D01*
X-6250000Y10083793D01*
X-6250000Y8990001D01*
X-6249999Y8990000D01*
X-5550001Y8990000D01*
X-5550000Y8990001D01*
X-5550000Y9334922D01*
X-5565124Y9469147D01*
X-5624664Y9639301D01*
X-5720577Y9791947D01*
X-5848054Y9919424D01*
X-6000700Y10015337D01*
X-6170854Y10074877D01*
X-6250000Y10083793D01*
X-6450000Y10083793D01*
X-6529147Y10074877D01*
X-6699301Y10015337D01*
X-6851947Y9919424D01*
X-6979424Y9791947D01*
X-7075337Y9639301D01*
X-7134877Y9469147D01*
X-7150000Y9334922D01*
X-7150000Y8990001D01*
X-8089500Y8990001D01*
X-8089500Y9334954D01*
X-8104632Y9469255D01*
X-8164211Y9639522D01*
X-8260184Y9792262D01*
X-8387738Y9919816D01*
X-8540478Y10015789D01*
X-8548185Y10018486D01*
X-8710742Y10075368D01*
X-8890000Y10095565D01*
X-9069259Y10075368D01*
X-9239520Y10015790D01*
X-9392261Y9919817D01*
X-9519817Y9792261D01*
X-9615790Y9639520D01*
X-9675368Y9469259D01*
X-9684015Y9392512D01*
X-9690500Y9334954D01*
X-9690500Y8445046D01*
X-10629500Y8445046D01*
X-10629500Y9334954D01*
X-10644632Y9469255D01*
X-10704211Y9639522D01*
X-10800184Y9792262D01*
X-10927738Y9919816D01*
X-11080478Y10015789D01*
X-11088185Y10018486D01*
X-11250742Y10075368D01*
X-11430000Y10095565D01*
X-11609259Y10075368D01*
X-11779520Y10015790D01*
X-11932261Y9919817D01*
X-12059817Y9792261D01*
X-12155790Y9639520D01*
X-12215368Y9469259D01*
X-12224015Y9392512D01*
X-12230500Y9334954D01*
X-12230500Y8445046D01*
X-13169500Y8445046D01*
X-13169500Y9334954D01*
X-13184632Y9469255D01*
X-13244211Y9639522D01*
X-13340184Y9792262D01*
X-13467738Y9919816D01*
X-13620478Y10015789D01*
X-13628185Y10018486D01*
X-13790742Y10075368D01*
X-13970000Y10095565D01*
X-14149259Y10075368D01*
X-14319520Y10015790D01*
X-14472261Y9919817D01*
X-14599817Y9792261D01*
X-14695790Y9639520D01*
X-14755368Y9469259D01*
X-14764015Y9392512D01*
X-14770500Y9334954D01*
X-14770500Y8445046D01*
X-15709500Y8445046D01*
X-15709500Y9334954D01*
X-15724632Y9469255D01*
X-15784211Y9639522D01*
X-15880184Y9792262D01*
X-16007738Y9919816D01*
X-16160478Y10015789D01*
X-16168185Y10018486D01*
X-16330742Y10075368D01*
X-16510000Y10095565D01*
X-16689259Y10075368D01*
X-16859520Y10015790D01*
X-17012261Y9919817D01*
X-17139817Y9792261D01*
X-17235790Y9639520D01*
X-17295368Y9469259D01*
X-17304015Y9392512D01*
X-17310500Y9334954D01*
X-17310500Y8445046D01*
X-18250004Y8445046D01*
X-18250000Y8445078D01*
X-18250000Y8789999D01*
X-18250001Y8790000D01*
X-18949999Y8790000D01*
X-18950000Y8789999D01*
X-18950000Y7696207D01*
X-19150000Y7696207D01*
X-19150000Y8789999D01*
X-19150001Y8790000D01*
X-19849999Y8790000D01*
X-19850000Y8789999D01*
X-19850000Y8445078D01*
X-20789500Y8445078D01*
X-20789500Y8990001D01*
X-19850000Y8990001D01*
X-19849999Y8990000D01*
X-19150001Y8990000D01*
X-19150000Y8990001D01*
X-19150000Y10083793D01*
X-18950000Y10083793D01*
X-18950000Y8990001D01*
X-18949999Y8990000D01*
X-18250001Y8990000D01*
X-18250000Y8990001D01*
X-18250000Y9334922D01*
X-18265124Y9469147D01*
X-18324664Y9639301D01*
X-18420577Y9791947D01*
X-18548054Y9919424D01*
X-18700700Y10015337D01*
X-18870854Y10074877D01*
X-18950000Y10083793D01*
X-19150000Y10083793D01*
X-19229147Y10074877D01*
X-19399301Y10015337D01*
X-19551947Y9919424D01*
X-19679424Y9791947D01*
X-19775337Y9639301D01*
X-19834877Y9469147D01*
X-19850000Y9334922D01*
X-19850000Y8990001D01*
X-20789500Y8990001D01*
X-20789500Y9334954D01*
X-20804632Y9469255D01*
X-20864211Y9639522D01*
X-20960184Y9792262D01*
X-21087738Y9919816D01*
X-21240478Y10015789D01*
X-21248185Y10018486D01*
X-21410742Y10075368D01*
X-21590000Y10095565D01*
X-21769258Y10075368D01*
X-21931815Y10018486D01*
X-21939522Y10015789D01*
X-22092262Y9919816D01*
X-22219816Y9792262D01*
X-22315789Y9639522D01*
X-22375368Y9469255D01*
X-22390500Y9334954D01*
X-22390500Y8445046D01*
X-23329500Y8445046D01*
X-23329500Y9334954D01*
X-23335985Y9392512D01*
X-23344632Y9469259D01*
X-23404210Y9639520D01*
X-23500183Y9792261D01*
X-23627739Y9919817D01*
X-23780480Y10015790D01*
X-23950741Y10075368D01*
X-24130000Y10095565D01*
X-24309258Y10075368D01*
X-24471815Y10018486D01*
X-24479522Y10015789D01*
X-24632262Y9919816D01*
X-24759816Y9792262D01*
X-24855789Y9639522D01*
X-24915368Y9469255D01*
X-24930500Y9334954D01*
X-24930500Y8445046D01*
X-33735728Y8445046D01*
X-33795671Y8530653D01*
X-33804300Y8545598D01*
X-33865085Y8675953D01*
X-33870987Y8692169D01*
X-33908214Y8831100D01*
X-33911210Y8848095D01*
X-33924123Y8995691D01*
X-33924500Y9004319D01*
X-33924500Y12700000D01*
X-25085099Y12700000D01*
X-25066747Y12513669D01*
X-25012396Y12334499D01*
X-24924136Y12169375D01*
X-24805357Y12024643D01*
X-24660625Y11905864D01*
X-24495501Y11817604D01*
X-24316331Y11763253D01*
X-24130000Y11744901D01*
X-23943669Y11763253D01*
X-23854083Y11790429D01*
X-23764498Y11817604D01*
X-23599376Y11905863D01*
X-23531885Y11961252D01*
X-23454643Y12024643D01*
X-23335864Y12169375D01*
X-23335862Y12169377D01*
X-23247603Y12334499D01*
X-23193252Y12513671D01*
X-23174900Y12700000D01*
X-22545099Y12700000D01*
X-22526747Y12513669D01*
X-22472396Y12334499D01*
X-22384136Y12169375D01*
X-22265357Y12024643D01*
X-22120625Y11905864D01*
X-21955501Y11817604D01*
X-21776331Y11763253D01*
X-21590000Y11744901D01*
X-21403669Y11763253D01*
X-21224499Y11817604D01*
X-21059375Y11905864D01*
X-20991886Y11961251D01*
X-19647328Y11961251D01*
X-19580349Y11906284D01*
X-19415307Y11818066D01*
X-19236232Y11763745D01*
X-19050000Y11745403D01*
X-18863769Y11763745D01*
X-18684692Y11818067D01*
X-18519656Y11906281D01*
X-18452674Y11961252D01*
X-19050001Y12558579D01*
X-19647328Y11961252D01*
X-19647328Y11961251D01*
X-20991886Y11961251D01*
X-20914643Y12024643D01*
X-20795864Y12169375D01*
X-20707604Y12334499D01*
X-20653253Y12513669D01*
X-20634901Y12700000D01*
X-20004598Y12700000D01*
X-19986256Y12513769D01*
X-19931935Y12334694D01*
X-19843717Y12169651D01*
X-19788750Y12102674D01*
X-19191423Y12700001D01*
X-18908579Y12700001D01*
X-18311252Y12102674D01*
X-18256281Y12169656D01*
X-18168067Y12334692D01*
X-18113745Y12513769D01*
X-18095403Y12700000D01*
X-17465100Y12700000D01*
X-17446748Y12513671D01*
X-17392397Y12334499D01*
X-17304138Y12169377D01*
X-17304136Y12169375D01*
X-17185357Y12024643D01*
X-17108115Y11961252D01*
X-17040624Y11905863D01*
X-16875502Y11817604D01*
X-16785917Y11790429D01*
X-16696331Y11763253D01*
X-16510000Y11744901D01*
X-16323669Y11763253D01*
X-16144499Y11817604D01*
X-15979375Y11905864D01*
X-15834643Y12024643D01*
X-15715864Y12169375D01*
X-15627604Y12334499D01*
X-15573253Y12513669D01*
X-15554901Y12700000D01*
X-14925100Y12700000D01*
X-14906748Y12513671D01*
X-14852397Y12334499D01*
X-14764138Y12169377D01*
X-14764136Y12169375D01*
X-14645357Y12024643D01*
X-14568115Y11961252D01*
X-14500624Y11905863D01*
X-14335502Y11817604D01*
X-14245917Y11790429D01*
X-14156331Y11763253D01*
X-13970000Y11744901D01*
X-13783669Y11763253D01*
X-13604499Y11817604D01*
X-13439375Y11905864D01*
X-13294643Y12024643D01*
X-13175864Y12169375D01*
X-13087604Y12334499D01*
X-13033253Y12513669D01*
X-13014901Y12700000D01*
X-12385100Y12700000D01*
X-12366748Y12513671D01*
X-12312397Y12334499D01*
X-12224138Y12169377D01*
X-12224136Y12169375D01*
X-12105357Y12024643D01*
X-12028115Y11961252D01*
X-11960624Y11905863D01*
X-11795502Y11817604D01*
X-11705917Y11790429D01*
X-11616331Y11763253D01*
X-11430000Y11744901D01*
X-11243669Y11763253D01*
X-11064499Y11817604D01*
X-10899375Y11905864D01*
X-10754643Y12024643D01*
X-10635864Y12169375D01*
X-10547604Y12334499D01*
X-10493253Y12513669D01*
X-10474901Y12700000D01*
X-10474901Y12700001D01*
X-9845100Y12700001D01*
X-9826748Y12513671D01*
X-9772397Y12334499D01*
X-9684138Y12169377D01*
X-9684136Y12169375D01*
X-9565357Y12024643D01*
X-9488115Y11961252D01*
X-9420624Y11905863D01*
X-9255502Y11817604D01*
X-9165917Y11790429D01*
X-9076331Y11763253D01*
X-8890000Y11744901D01*
X-8703669Y11763253D01*
X-8524499Y11817604D01*
X-8359375Y11905864D01*
X-8291886Y11961251D01*
X-6947328Y11961251D01*
X-6880349Y11906284D01*
X-6715307Y11818066D01*
X-6536232Y11763745D01*
X-6350000Y11745403D01*
X-6163769Y11763745D01*
X-5984692Y11818067D01*
X-5819656Y11906281D01*
X-5752674Y11961252D01*
X-6350001Y12558579D01*
X-6947328Y11961252D01*
X-6947328Y11961251D01*
X-8291886Y11961251D01*
X-8214643Y12024643D01*
X-8095864Y12169375D01*
X-8007604Y12334499D01*
X-7953253Y12513669D01*
X-7934901Y12700000D01*
X-7934901Y12700001D01*
X-7304598Y12700001D01*
X-7286256Y12513769D01*
X-7231935Y12334694D01*
X-7143717Y12169651D01*
X-7088750Y12102674D01*
X-6491423Y12700001D01*
X-6208579Y12700001D01*
X-5611252Y12102674D01*
X-5556281Y12169656D01*
X-5468067Y12334692D01*
X-5413745Y12513769D01*
X-5395403Y12700001D01*
X-4765100Y12700001D01*
X-4746748Y12513671D01*
X-4692397Y12334499D01*
X-4604138Y12169377D01*
X-4604136Y12169375D01*
X-4485357Y12024643D01*
X-4408115Y11961252D01*
X-4340624Y11905863D01*
X-4175502Y11817604D01*
X-4085917Y11790429D01*
X-3996331Y11763253D01*
X-3810000Y11744901D01*
X-3623669Y11763253D01*
X-3444499Y11817604D01*
X-3279375Y11905864D01*
X-3134643Y12024643D01*
X-3015864Y12169375D01*
X-2927604Y12334499D01*
X-2873253Y12513669D01*
X-2854901Y12700000D01*
X-2854901Y12700001D01*
X-2225100Y12700001D01*
X-2206748Y12513671D01*
X-2152397Y12334499D01*
X-2064138Y12169377D01*
X-2064136Y12169375D01*
X-1945357Y12024643D01*
X-1868115Y11961252D01*
X-1800624Y11905863D01*
X-1635502Y11817604D01*
X-1545917Y11790429D01*
X-1456331Y11763253D01*
X-1270000Y11744901D01*
X-1083669Y11763253D01*
X-904499Y11817604D01*
X-739375Y11905864D01*
X-594643Y12024643D01*
X-475864Y12169375D01*
X-387604Y12334499D01*
X-333253Y12513669D01*
X-314901Y12700000D01*
X-314901Y12700001D01*
X314900Y12700001D01*
X333252Y12513671D01*
X387603Y12334499D01*
X475862Y12169377D01*
X475864Y12169375D01*
X594643Y12024643D01*
X671885Y11961252D01*
X739376Y11905863D01*
X904498Y11817604D01*
X994083Y11790429D01*
X1083669Y11763253D01*
X1270000Y11744901D01*
X1456331Y11763253D01*
X1635501Y11817604D01*
X1800625Y11905864D01*
X1945357Y12024643D01*
X2064136Y12169375D01*
X2152396Y12334499D01*
X2206747Y12513669D01*
X2225099Y12700000D01*
X2225099Y12700001D01*
X2854900Y12700001D01*
X2873252Y12513671D01*
X2927603Y12334499D01*
X3015862Y12169377D01*
X3015864Y12169375D01*
X3134643Y12024643D01*
X3211885Y11961252D01*
X3279376Y11905863D01*
X3444498Y11817604D01*
X3534083Y11790429D01*
X3623669Y11763253D01*
X3810000Y11744901D01*
X3996331Y11763253D01*
X4175501Y11817604D01*
X4340625Y11905864D01*
X4408114Y11961251D01*
X5752672Y11961251D01*
X5819651Y11906284D01*
X5984693Y11818066D01*
X6163768Y11763745D01*
X6350000Y11745403D01*
X6536231Y11763745D01*
X6715308Y11818067D01*
X6880344Y11906281D01*
X6947326Y11961252D01*
X6349999Y12558579D01*
X5752672Y11961252D01*
X5752672Y11961251D01*
X4408114Y11961251D01*
X4485357Y12024643D01*
X4604136Y12169375D01*
X4692396Y12334499D01*
X4746747Y12513669D01*
X4765099Y12700000D01*
X4765099Y12700001D01*
X5395402Y12700001D01*
X5413744Y12513769D01*
X5468065Y12334694D01*
X5556283Y12169651D01*
X5611250Y12102674D01*
X6208577Y12700001D01*
X6491421Y12700001D01*
X7088748Y12102674D01*
X7143719Y12169656D01*
X7231933Y12334692D01*
X7286255Y12513769D01*
X7304597Y12700001D01*
X7934900Y12700001D01*
X7953252Y12513671D01*
X8007603Y12334499D01*
X8095862Y12169377D01*
X8095864Y12169375D01*
X8214643Y12024643D01*
X8291885Y11961252D01*
X8359376Y11905863D01*
X8524498Y11817604D01*
X8614083Y11790429D01*
X8703669Y11763253D01*
X8890000Y11744901D01*
X9076331Y11763253D01*
X9255501Y11817604D01*
X9420625Y11905864D01*
X9565357Y12024643D01*
X9684136Y12169375D01*
X9772396Y12334499D01*
X9826747Y12513669D01*
X9845099Y12700000D01*
X9845099Y12700001D01*
X10474900Y12700001D01*
X10493252Y12513671D01*
X10547603Y12334499D01*
X10635862Y12169377D01*
X10635864Y12169375D01*
X10754643Y12024643D01*
X10831885Y11961252D01*
X10899376Y11905863D01*
X11064498Y11817604D01*
X11154083Y11790429D01*
X11243669Y11763253D01*
X11430000Y11744901D01*
X11616331Y11763253D01*
X11795501Y11817604D01*
X11960625Y11905864D01*
X12105357Y12024643D01*
X12224136Y12169375D01*
X12312396Y12334499D01*
X12366747Y12513669D01*
X12385099Y12700000D01*
X13014900Y12700000D01*
X13033252Y12513671D01*
X13087603Y12334499D01*
X13175862Y12169377D01*
X13175864Y12169375D01*
X13294643Y12024643D01*
X13371885Y11961252D01*
X13439376Y11905863D01*
X13604498Y11817604D01*
X13694083Y11790429D01*
X13783669Y11763253D01*
X13970000Y11744901D01*
X14156331Y11763253D01*
X14335501Y11817604D01*
X14500625Y11905864D01*
X14645357Y12024643D01*
X14764136Y12169375D01*
X14852396Y12334499D01*
X14906747Y12513669D01*
X14925099Y12700000D01*
X15554900Y12700000D01*
X15573252Y12513671D01*
X15627603Y12334499D01*
X15715862Y12169377D01*
X15715864Y12169375D01*
X15834643Y12024643D01*
X15911885Y11961252D01*
X15979376Y11905863D01*
X16144498Y11817604D01*
X16234083Y11790429D01*
X16323669Y11763253D01*
X16510000Y11744901D01*
X16696331Y11763253D01*
X16875501Y11817604D01*
X17040625Y11905864D01*
X17108114Y11961251D01*
X18452672Y11961251D01*
X18519651Y11906284D01*
X18684693Y11818066D01*
X18863768Y11763745D01*
X19050000Y11745403D01*
X19236231Y11763745D01*
X19415308Y11818067D01*
X19580344Y11906281D01*
X19647326Y11961252D01*
X19049999Y12558579D01*
X18452672Y11961252D01*
X18452672Y11961251D01*
X17108114Y11961251D01*
X17185357Y12024643D01*
X17304136Y12169375D01*
X17392396Y12334499D01*
X17446747Y12513669D01*
X17465099Y12700000D01*
X17465099Y12700001D01*
X18095402Y12700001D01*
X18113744Y12513769D01*
X18168065Y12334694D01*
X18256283Y12169651D01*
X18311250Y12102674D01*
X18908577Y12700001D01*
X19191421Y12700001D01*
X19788748Y12102674D01*
X19843719Y12169656D01*
X19931933Y12334692D01*
X19986255Y12513769D01*
X20004597Y12700000D01*
X20634900Y12700000D01*
X20653252Y12513671D01*
X20707603Y12334499D01*
X20795862Y12169377D01*
X20795864Y12169375D01*
X20914643Y12024643D01*
X20991885Y11961252D01*
X21059376Y11905863D01*
X21224498Y11817604D01*
X21314083Y11790429D01*
X21403669Y11763253D01*
X21590000Y11744901D01*
X21776331Y11763253D01*
X21955501Y11817604D01*
X22120625Y11905864D01*
X22265357Y12024643D01*
X22384136Y12169375D01*
X22472396Y12334499D01*
X22526747Y12513669D01*
X22545099Y12700000D01*
X23174900Y12700000D01*
X23193252Y12513671D01*
X23247603Y12334499D01*
X23335862Y12169377D01*
X23335864Y12169375D01*
X23454643Y12024643D01*
X23531885Y11961252D01*
X23599376Y11905863D01*
X23764498Y11817604D01*
X23854083Y11790429D01*
X23943669Y11763253D01*
X24130000Y11744901D01*
X24316331Y11763253D01*
X24495501Y11817604D01*
X24660625Y11905864D01*
X24805357Y12024643D01*
X24924136Y12169375D01*
X25012396Y12334499D01*
X25066747Y12513669D01*
X25085099Y12700000D01*
X25066747Y12886331D01*
X25012396Y13065501D01*
X25012396Y13065502D01*
X24924137Y13230624D01*
X24869394Y13297328D01*
X24805357Y13375357D01*
X24661136Y13493717D01*
X24660623Y13494138D01*
X24495501Y13582397D01*
X24316329Y13636748D01*
X24130000Y13655100D01*
X23943670Y13636748D01*
X23764498Y13582397D01*
X23599376Y13494138D01*
X23454643Y13375357D01*
X23335862Y13230624D01*
X23247603Y13065502D01*
X23193252Y12886330D01*
X23174900Y12700000D01*
X22545099Y12700000D01*
X22526747Y12886331D01*
X22472396Y13065501D01*
X22472396Y13065502D01*
X22384137Y13230624D01*
X22329394Y13297328D01*
X22265357Y13375357D01*
X22121136Y13493717D01*
X22120623Y13494138D01*
X21955501Y13582397D01*
X21776329Y13636748D01*
X21590000Y13655100D01*
X21403670Y13636748D01*
X21224498Y13582397D01*
X21059376Y13494138D01*
X20914643Y13375357D01*
X20795862Y13230624D01*
X20707603Y13065502D01*
X20653252Y12886330D01*
X20634900Y12700000D01*
X20004597Y12700000D01*
X20004597Y12700001D01*
X19986255Y12886232D01*
X19931934Y13065307D01*
X19843716Y13230349D01*
X19788748Y13297328D01*
X19191421Y12700001D01*
X18908577Y12700001D01*
X18311250Y13297328D01*
X18256282Y13230346D01*
X18168065Y13065307D01*
X18113744Y12886232D01*
X18095402Y12700001D01*
X17465099Y12700001D01*
X17446747Y12886331D01*
X17392396Y13065501D01*
X17392396Y13065502D01*
X17304137Y13230624D01*
X17249394Y13297328D01*
X17185357Y13375357D01*
X17108113Y13438750D01*
X18452672Y13438750D01*
X19049999Y12841423D01*
X19647326Y13438750D01*
X19580349Y13493717D01*
X19415306Y13581935D01*
X19236231Y13636256D01*
X19050000Y13654598D01*
X18863768Y13636256D01*
X18684693Y13581935D01*
X18519654Y13493718D01*
X18452672Y13438750D01*
X17108113Y13438750D01*
X17041136Y13493717D01*
X17040623Y13494138D01*
X16875501Y13582397D01*
X16696329Y13636748D01*
X16510000Y13655100D01*
X16323670Y13636748D01*
X16144498Y13582397D01*
X15979376Y13494138D01*
X15834643Y13375357D01*
X15715862Y13230624D01*
X15627603Y13065502D01*
X15573252Y12886330D01*
X15554900Y12700000D01*
X14925099Y12700000D01*
X14906747Y12886331D01*
X14852396Y13065501D01*
X14852396Y13065502D01*
X14764137Y13230624D01*
X14709394Y13297328D01*
X14645357Y13375357D01*
X14501136Y13493717D01*
X14500623Y13494138D01*
X14335501Y13582397D01*
X14156329Y13636748D01*
X13970000Y13655100D01*
X13783670Y13636748D01*
X13604498Y13582397D01*
X13439376Y13494138D01*
X13294643Y13375357D01*
X13175862Y13230624D01*
X13087603Y13065502D01*
X13033252Y12886330D01*
X13014900Y12700000D01*
X12385099Y12700000D01*
X12366747Y12886331D01*
X12312396Y13065501D01*
X12312396Y13065502D01*
X12224137Y13230624D01*
X12169394Y13297328D01*
X12105357Y13375357D01*
X11961136Y13493717D01*
X11960623Y13494138D01*
X11795501Y13582397D01*
X11616329Y13636748D01*
X11430000Y13655100D01*
X11243670Y13636748D01*
X11064498Y13582397D01*
X10899376Y13494138D01*
X10754643Y13375357D01*
X10635862Y13230624D01*
X10547603Y13065502D01*
X10493252Y12886330D01*
X10474900Y12700001D01*
X9845099Y12700001D01*
X9826747Y12886331D01*
X9772396Y13065501D01*
X9772396Y13065502D01*
X9684137Y13230624D01*
X9629394Y13297328D01*
X9565357Y13375357D01*
X9421136Y13493717D01*
X9420623Y13494138D01*
X9255501Y13582397D01*
X9076329Y13636748D01*
X8890000Y13655100D01*
X8703670Y13636748D01*
X8524498Y13582397D01*
X8359376Y13494138D01*
X8214643Y13375357D01*
X8095862Y13230624D01*
X8007603Y13065502D01*
X7953252Y12886330D01*
X7934900Y12700001D01*
X7304597Y12700001D01*
X7286255Y12886232D01*
X7231934Y13065307D01*
X7143716Y13230349D01*
X7088748Y13297328D01*
X6491421Y12700001D01*
X6208577Y12700001D01*
X5611250Y13297328D01*
X5556282Y13230346D01*
X5468065Y13065307D01*
X5413744Y12886232D01*
X5395402Y12700001D01*
X4765099Y12700001D01*
X4746747Y12886331D01*
X4692396Y13065501D01*
X4692396Y13065502D01*
X4604137Y13230624D01*
X4549394Y13297328D01*
X4485357Y13375357D01*
X4408113Y13438750D01*
X5752672Y13438750D01*
X6349999Y12841423D01*
X6947326Y13438750D01*
X6880349Y13493717D01*
X6715306Y13581935D01*
X6536231Y13636256D01*
X6350000Y13654598D01*
X6163768Y13636256D01*
X5984693Y13581935D01*
X5819654Y13493718D01*
X5752672Y13438750D01*
X4408113Y13438750D01*
X4341136Y13493717D01*
X4340623Y13494138D01*
X4175501Y13582397D01*
X3996329Y13636748D01*
X3810000Y13655100D01*
X3623670Y13636748D01*
X3444498Y13582397D01*
X3279376Y13494138D01*
X3134643Y13375357D01*
X3015862Y13230624D01*
X2927603Y13065502D01*
X2873252Y12886330D01*
X2854900Y12700001D01*
X2225099Y12700001D01*
X2206747Y12886331D01*
X2152396Y13065501D01*
X2152396Y13065502D01*
X2064137Y13230624D01*
X2009394Y13297328D01*
X1945357Y13375357D01*
X1801136Y13493717D01*
X1800623Y13494138D01*
X1635501Y13582397D01*
X1456329Y13636748D01*
X1270000Y13655100D01*
X1083670Y13636748D01*
X904498Y13582397D01*
X739376Y13494138D01*
X594643Y13375357D01*
X475862Y13230624D01*
X387603Y13065502D01*
X333252Y12886330D01*
X314900Y12700001D01*
X-314901Y12700001D01*
X-333253Y12886331D01*
X-387604Y13065501D01*
X-387604Y13065502D01*
X-475863Y13230624D01*
X-530606Y13297328D01*
X-594643Y13375357D01*
X-738864Y13493717D01*
X-739377Y13494138D01*
X-904499Y13582397D01*
X-1083671Y13636748D01*
X-1270000Y13655100D01*
X-1456330Y13636748D01*
X-1635502Y13582397D01*
X-1800624Y13494138D01*
X-1945357Y13375357D01*
X-2064138Y13230624D01*
X-2152397Y13065502D01*
X-2206748Y12886330D01*
X-2225100Y12700001D01*
X-2854901Y12700001D01*
X-2873253Y12886331D01*
X-2927604Y13065501D01*
X-2927604Y13065502D01*
X-3015863Y13230624D01*
X-3070606Y13297328D01*
X-3134643Y13375357D01*
X-3278864Y13493717D01*
X-3279377Y13494138D01*
X-3444499Y13582397D01*
X-3623671Y13636748D01*
X-3810000Y13655100D01*
X-3996330Y13636748D01*
X-4175502Y13582397D01*
X-4340624Y13494138D01*
X-4485357Y13375357D01*
X-4604138Y13230624D01*
X-4692397Y13065502D01*
X-4746748Y12886330D01*
X-4765100Y12700001D01*
X-5395403Y12700001D01*
X-5413745Y12886232D01*
X-5468066Y13065307D01*
X-5556284Y13230349D01*
X-5611252Y13297328D01*
X-6208579Y12700001D01*
X-6491423Y12700001D01*
X-7088750Y13297328D01*
X-7143718Y13230346D01*
X-7231935Y13065307D01*
X-7286256Y12886232D01*
X-7304598Y12700001D01*
X-7934901Y12700001D01*
X-7953253Y12886331D01*
X-8007604Y13065501D01*
X-8007604Y13065502D01*
X-8095863Y13230624D01*
X-8150606Y13297328D01*
X-8214643Y13375357D01*
X-8291887Y13438750D01*
X-6947328Y13438750D01*
X-6350001Y12841423D01*
X-5752674Y13438750D01*
X-5819651Y13493717D01*
X-5984694Y13581935D01*
X-6163769Y13636256D01*
X-6350000Y13654598D01*
X-6536232Y13636256D01*
X-6715307Y13581935D01*
X-6880346Y13493718D01*
X-6947328Y13438750D01*
X-8291887Y13438750D01*
X-8358864Y13493717D01*
X-8359377Y13494138D01*
X-8524499Y13582397D01*
X-8703671Y13636748D01*
X-8890000Y13655100D01*
X-9076330Y13636748D01*
X-9255502Y13582397D01*
X-9420624Y13494138D01*
X-9565357Y13375357D01*
X-9684138Y13230624D01*
X-9772397Y13065502D01*
X-9826748Y12886330D01*
X-9845100Y12700001D01*
X-10474901Y12700001D01*
X-10493253Y12886331D01*
X-10547604Y13065501D01*
X-10547604Y13065502D01*
X-10635863Y13230624D01*
X-10690606Y13297328D01*
X-10754643Y13375357D01*
X-10898864Y13493717D01*
X-10899377Y13494138D01*
X-11064499Y13582397D01*
X-11243671Y13636748D01*
X-11430000Y13655100D01*
X-11616330Y13636748D01*
X-11795502Y13582397D01*
X-11960624Y13494138D01*
X-12105357Y13375357D01*
X-12224138Y13230624D01*
X-12312397Y13065502D01*
X-12366748Y12886330D01*
X-12385100Y12700000D01*
X-13014901Y12700000D01*
X-13033253Y12886331D01*
X-13087604Y13065501D01*
X-13087604Y13065502D01*
X-13175863Y13230624D01*
X-13230606Y13297328D01*
X-13294643Y13375357D01*
X-13438864Y13493717D01*
X-13439377Y13494138D01*
X-13604499Y13582397D01*
X-13783671Y13636748D01*
X-13970000Y13655100D01*
X-14156330Y13636748D01*
X-14335502Y13582397D01*
X-14500624Y13494138D01*
X-14645357Y13375357D01*
X-14764138Y13230624D01*
X-14852397Y13065502D01*
X-14906748Y12886330D01*
X-14925100Y12700000D01*
X-15554901Y12700000D01*
X-15573253Y12886331D01*
X-15627604Y13065501D01*
X-15627604Y13065502D01*
X-15715863Y13230624D01*
X-15770606Y13297328D01*
X-15834643Y13375357D01*
X-15978864Y13493717D01*
X-15979377Y13494138D01*
X-16144499Y13582397D01*
X-16323671Y13636748D01*
X-16510000Y13655100D01*
X-16696330Y13636748D01*
X-16875502Y13582397D01*
X-17040624Y13494138D01*
X-17185357Y13375357D01*
X-17304138Y13230624D01*
X-17392397Y13065502D01*
X-17446748Y12886330D01*
X-17465100Y12700000D01*
X-18095403Y12700000D01*
X-18113745Y12886232D01*
X-18168066Y13065307D01*
X-18256284Y13230349D01*
X-18311252Y13297328D01*
X-18908579Y12700001D01*
X-19191423Y12700001D01*
X-19788750Y13297328D01*
X-19843718Y13230346D01*
X-19931935Y13065307D01*
X-19986256Y12886232D01*
X-20004598Y12700000D01*
X-20634901Y12700000D01*
X-20653253Y12886331D01*
X-20707604Y13065501D01*
X-20707604Y13065502D01*
X-20795863Y13230624D01*
X-20850606Y13297328D01*
X-20914643Y13375357D01*
X-20991887Y13438750D01*
X-19647328Y13438750D01*
X-19050001Y12841423D01*
X-18452674Y13438750D01*
X-18519651Y13493717D01*
X-18684694Y13581935D01*
X-18863769Y13636256D01*
X-19050000Y13654598D01*
X-19236232Y13636256D01*
X-19415307Y13581935D01*
X-19580346Y13493718D01*
X-19647328Y13438750D01*
X-20991887Y13438750D01*
X-21058864Y13493717D01*
X-21059377Y13494138D01*
X-21224499Y13582397D01*
X-21403671Y13636748D01*
X-21590000Y13655100D01*
X-21776329Y13636748D01*
X-21955501Y13582397D01*
X-22120623Y13494138D01*
X-22121136Y13493717D01*
X-22265357Y13375357D01*
X-22329394Y13297328D01*
X-22384137Y13230624D01*
X-22472396Y13065502D01*
X-22472396Y13065501D01*
X-22526747Y12886331D01*
X-22545099Y12700000D01*
X-23174900Y12700000D01*
X-23193252Y12886330D01*
X-23247603Y13065502D01*
X-23335862Y13230624D01*
X-23454643Y13375357D01*
X-23599376Y13494138D01*
X-23764498Y13582397D01*
X-23943670Y13636748D01*
X-24130000Y13655100D01*
X-24316329Y13636748D01*
X-24495501Y13582397D01*
X-24660623Y13494138D01*
X-24661136Y13493717D01*
X-24805357Y13375357D01*
X-24869394Y13297328D01*
X-24924137Y13230624D01*
X-25012396Y13065502D01*
X-25012396Y13065501D01*
X-25066747Y12886331D01*
X-25085099Y12700000D01*
X-33924500Y12700000D01*
X-33924500Y15240000D01*
X-25085099Y15240000D01*
X-25066747Y15053669D01*
X-25012396Y14874499D01*
X-24924136Y14709375D01*
X-24805357Y14564643D01*
X-24660625Y14445864D01*
X-24495501Y14357604D01*
X-24316331Y14303253D01*
X-24130000Y14284901D01*
X-23943669Y14303253D01*
X-23854084Y14330429D01*
X-23764498Y14357604D01*
X-23599376Y14445863D01*
X-23531885Y14501252D01*
X-23454643Y14564643D01*
X-23335864Y14709375D01*
X-23335862Y14709377D01*
X-23247603Y14874499D01*
X-23193252Y15053671D01*
X-23174900Y15240000D01*
X-22545099Y15240000D01*
X-22526747Y15053669D01*
X-22472396Y14874499D01*
X-22384136Y14709375D01*
X-22265357Y14564643D01*
X-22120625Y14445864D01*
X-21955501Y14357604D01*
X-21776331Y14303253D01*
X-21590000Y14284901D01*
X-21403669Y14303253D01*
X-21224499Y14357604D01*
X-21059375Y14445864D01*
X-20991886Y14501251D01*
X-19647328Y14501251D01*
X-19580349Y14446284D01*
X-19415307Y14358066D01*
X-19236232Y14303745D01*
X-19050000Y14285403D01*
X-18863769Y14303745D01*
X-18684692Y14358067D01*
X-18519656Y14446281D01*
X-18452674Y14501252D01*
X-19050001Y15098579D01*
X-19647328Y14501252D01*
X-19647328Y14501251D01*
X-20991886Y14501251D01*
X-20914643Y14564643D01*
X-20795864Y14709375D01*
X-20707604Y14874499D01*
X-20653253Y15053669D01*
X-20634901Y15240000D01*
X-20004598Y15240000D01*
X-19986256Y15053769D01*
X-19931935Y14874694D01*
X-19843717Y14709651D01*
X-19788750Y14642674D01*
X-19191423Y15240001D01*
X-18908579Y15240001D01*
X-18311252Y14642674D01*
X-18256281Y14709656D01*
X-18168067Y14874692D01*
X-18113745Y15053769D01*
X-18095403Y15240000D01*
X-17465100Y15240000D01*
X-17446748Y15053671D01*
X-17392397Y14874499D01*
X-17304138Y14709377D01*
X-17304136Y14709375D01*
X-17185357Y14564643D01*
X-17108115Y14501252D01*
X-17040624Y14445863D01*
X-16875502Y14357604D01*
X-16785916Y14330429D01*
X-16696331Y14303253D01*
X-16510000Y14284901D01*
X-16323669Y14303253D01*
X-16144499Y14357604D01*
X-15979375Y14445864D01*
X-15834643Y14564643D01*
X-15715864Y14709375D01*
X-15627604Y14874499D01*
X-15573253Y15053669D01*
X-15554901Y15240000D01*
X-15554901Y15240001D01*
X-14925100Y15240001D01*
X-14906748Y15053671D01*
X-14852397Y14874499D01*
X-14764138Y14709377D01*
X-14764136Y14709375D01*
X-14645357Y14564643D01*
X-14568115Y14501252D01*
X-14500624Y14445863D01*
X-14335502Y14357604D01*
X-14245916Y14330429D01*
X-14156331Y14303253D01*
X-13970000Y14284901D01*
X-13783669Y14303253D01*
X-13604499Y14357604D01*
X-13439375Y14445864D01*
X-13294643Y14564643D01*
X-13175864Y14709375D01*
X-13087604Y14874499D01*
X-13033253Y15053669D01*
X-13014901Y15240000D01*
X-12385100Y15240000D01*
X-12366748Y15053671D01*
X-12312397Y14874499D01*
X-12224138Y14709377D01*
X-12224136Y14709375D01*
X-12105357Y14564643D01*
X-12028115Y14501252D01*
X-11960624Y14445863D01*
X-11795502Y14357604D01*
X-11705916Y14330429D01*
X-11616331Y14303253D01*
X-11430000Y14284901D01*
X-11243669Y14303253D01*
X-11064499Y14357604D01*
X-10899375Y14445864D01*
X-10754643Y14564643D01*
X-10635864Y14709375D01*
X-10547604Y14874499D01*
X-10493253Y15053669D01*
X-10474901Y15240000D01*
X-9845100Y15240000D01*
X-9826748Y15053671D01*
X-9772397Y14874499D01*
X-9684138Y14709377D01*
X-9684136Y14709375D01*
X-9565357Y14564643D01*
X-9488115Y14501252D01*
X-9420624Y14445863D01*
X-9255502Y14357604D01*
X-9165916Y14330429D01*
X-9076331Y14303253D01*
X-8890000Y14284901D01*
X-8703669Y14303253D01*
X-8524499Y14357604D01*
X-8359375Y14445864D01*
X-8291886Y14501251D01*
X-6947328Y14501251D01*
X-6880349Y14446284D01*
X-6715307Y14358066D01*
X-6536232Y14303745D01*
X-6350000Y14285403D01*
X-6163769Y14303745D01*
X-5984692Y14358067D01*
X-5819656Y14446281D01*
X-5752674Y14501252D01*
X-6350001Y15098579D01*
X-6947328Y14501252D01*
X-6947328Y14501251D01*
X-8291886Y14501251D01*
X-8214643Y14564643D01*
X-8095864Y14709375D01*
X-8007604Y14874499D01*
X-7953253Y15053669D01*
X-7934901Y15240000D01*
X-7934901Y15240001D01*
X-7304598Y15240001D01*
X-7286256Y15053769D01*
X-7231935Y14874694D01*
X-7143717Y14709651D01*
X-7088750Y14642674D01*
X-6491423Y15240001D01*
X-6208579Y15240001D01*
X-5611252Y14642674D01*
X-5556281Y14709656D01*
X-5468067Y14874692D01*
X-5413745Y15053769D01*
X-5395403Y15240000D01*
X-4765100Y15240000D01*
X-4746748Y15053671D01*
X-4692397Y14874499D01*
X-4604138Y14709377D01*
X-4604136Y14709375D01*
X-4485357Y14564643D01*
X-4408115Y14501252D01*
X-4340624Y14445863D01*
X-4175502Y14357604D01*
X-4085916Y14330429D01*
X-3996331Y14303253D01*
X-3810000Y14284901D01*
X-3623669Y14303253D01*
X-3444499Y14357604D01*
X-3279375Y14445864D01*
X-3134643Y14564643D01*
X-3015864Y14709375D01*
X-2927604Y14874499D01*
X-2873253Y15053669D01*
X-2854901Y15240000D01*
X-2225100Y15240000D01*
X-2206748Y15053671D01*
X-2152397Y14874499D01*
X-2064138Y14709377D01*
X-2064136Y14709375D01*
X-1945357Y14564643D01*
X-1868115Y14501252D01*
X-1800624Y14445863D01*
X-1635502Y14357604D01*
X-1545916Y14330429D01*
X-1456331Y14303253D01*
X-1270000Y14284901D01*
X-1083669Y14303253D01*
X-904499Y14357604D01*
X-739375Y14445864D01*
X-594643Y14564643D01*
X-475864Y14709375D01*
X-387604Y14874499D01*
X-333253Y15053669D01*
X-314901Y15240000D01*
X314900Y15240000D01*
X333252Y15053671D01*
X387603Y14874499D01*
X475862Y14709377D01*
X475864Y14709375D01*
X594643Y14564643D01*
X671885Y14501252D01*
X739376Y14445863D01*
X904498Y14357604D01*
X994084Y14330429D01*
X1083669Y14303253D01*
X1270000Y14284901D01*
X1456331Y14303253D01*
X1635501Y14357604D01*
X1800625Y14445864D01*
X1945357Y14564643D01*
X2064136Y14709375D01*
X2152396Y14874499D01*
X2206747Y15053669D01*
X2225099Y15240000D01*
X2854900Y15240000D01*
X2873252Y15053671D01*
X2927603Y14874499D01*
X3015862Y14709377D01*
X3015864Y14709375D01*
X3134643Y14564643D01*
X3211885Y14501252D01*
X3279376Y14445863D01*
X3444498Y14357604D01*
X3534084Y14330429D01*
X3623669Y14303253D01*
X3810000Y14284901D01*
X3996331Y14303253D01*
X4175501Y14357604D01*
X4340625Y14445864D01*
X4408114Y14501251D01*
X5752672Y14501251D01*
X5819651Y14446284D01*
X5984693Y14358066D01*
X6163768Y14303745D01*
X6350000Y14285403D01*
X6536231Y14303745D01*
X6715308Y14358067D01*
X6880344Y14446281D01*
X6947326Y14501252D01*
X6349999Y15098579D01*
X5752672Y14501252D01*
X5752672Y14501251D01*
X4408114Y14501251D01*
X4485357Y14564643D01*
X4604136Y14709375D01*
X4692396Y14874499D01*
X4746747Y15053669D01*
X4765099Y15240000D01*
X4765099Y15240001D01*
X5395402Y15240001D01*
X5413744Y15053769D01*
X5468065Y14874694D01*
X5556283Y14709651D01*
X5611250Y14642674D01*
X6208577Y15240001D01*
X6491421Y15240001D01*
X7088748Y14642674D01*
X7143719Y14709656D01*
X7231933Y14874692D01*
X7286255Y15053769D01*
X7304597Y15240000D01*
X7934900Y15240000D01*
X7953252Y15053671D01*
X8007603Y14874499D01*
X8095862Y14709377D01*
X8095864Y14709375D01*
X8214643Y14564643D01*
X8291885Y14501252D01*
X8359376Y14445863D01*
X8524498Y14357604D01*
X8614084Y14330429D01*
X8703669Y14303253D01*
X8890000Y14284901D01*
X9076331Y14303253D01*
X9255501Y14357604D01*
X9420625Y14445864D01*
X9565357Y14564643D01*
X9684136Y14709375D01*
X9772396Y14874499D01*
X9826747Y15053669D01*
X9845099Y15240000D01*
X10474900Y15240000D01*
X10493252Y15053671D01*
X10547603Y14874499D01*
X10635862Y14709377D01*
X10635864Y14709375D01*
X10754643Y14564643D01*
X10831885Y14501252D01*
X10899376Y14445863D01*
X11064498Y14357604D01*
X11154084Y14330429D01*
X11243669Y14303253D01*
X11430000Y14284901D01*
X11616331Y14303253D01*
X11795501Y14357604D01*
X11960625Y14445864D01*
X12105357Y14564643D01*
X12224136Y14709375D01*
X12312396Y14874499D01*
X12366747Y15053669D01*
X12385099Y15240000D01*
X12385099Y15240001D01*
X13014900Y15240001D01*
X13033252Y15053671D01*
X13087603Y14874499D01*
X13175862Y14709377D01*
X13175864Y14709375D01*
X13294643Y14564643D01*
X13371885Y14501252D01*
X13439376Y14445863D01*
X13604498Y14357604D01*
X13694084Y14330429D01*
X13783669Y14303253D01*
X13970000Y14284901D01*
X14156331Y14303253D01*
X14335501Y14357604D01*
X14500625Y14445864D01*
X14645357Y14564643D01*
X14764136Y14709375D01*
X14852396Y14874499D01*
X14906747Y15053669D01*
X14925099Y15240000D01*
X14925099Y15240001D01*
X15554900Y15240001D01*
X15573252Y15053671D01*
X15627603Y14874499D01*
X15715862Y14709377D01*
X15715864Y14709375D01*
X15834643Y14564643D01*
X15911885Y14501252D01*
X15979376Y14445863D01*
X16144498Y14357604D01*
X16234084Y14330429D01*
X16323669Y14303253D01*
X16510000Y14284901D01*
X16696331Y14303253D01*
X16875501Y14357604D01*
X17040625Y14445864D01*
X17108114Y14501251D01*
X18452672Y14501251D01*
X18519651Y14446284D01*
X18684693Y14358066D01*
X18863768Y14303745D01*
X19050000Y14285403D01*
X19236231Y14303745D01*
X19415308Y14358067D01*
X19580344Y14446281D01*
X19647326Y14501252D01*
X19049999Y15098579D01*
X18452672Y14501252D01*
X18452672Y14501251D01*
X17108114Y14501251D01*
X17185357Y14564643D01*
X17304136Y14709375D01*
X17392396Y14874499D01*
X17446747Y15053669D01*
X17465099Y15240000D01*
X18095402Y15240000D01*
X18113744Y15053769D01*
X18168065Y14874694D01*
X18256283Y14709651D01*
X18311250Y14642674D01*
X18908577Y15240001D01*
X19191421Y15240001D01*
X19788748Y14642674D01*
X19843719Y14709656D01*
X19931933Y14874692D01*
X19986255Y15053769D01*
X20004597Y15240000D01*
X20004597Y15240001D01*
X20634900Y15240001D01*
X20653252Y15053671D01*
X20707603Y14874499D01*
X20795862Y14709377D01*
X20795864Y14709375D01*
X20914643Y14564643D01*
X20991885Y14501252D01*
X21059376Y14445863D01*
X21224498Y14357604D01*
X21314084Y14330429D01*
X21403669Y14303253D01*
X21590000Y14284901D01*
X21776331Y14303253D01*
X21955501Y14357604D01*
X22120625Y14445864D01*
X22265357Y14564643D01*
X22384136Y14709375D01*
X22472396Y14874499D01*
X22526747Y15053669D01*
X22545099Y15240000D01*
X22545099Y15240001D01*
X23174900Y15240001D01*
X23193252Y15053671D01*
X23247603Y14874499D01*
X23335862Y14709377D01*
X23335864Y14709375D01*
X23454643Y14564643D01*
X23531885Y14501252D01*
X23599376Y14445863D01*
X23764498Y14357604D01*
X23854084Y14330429D01*
X23943669Y14303253D01*
X24130000Y14284901D01*
X24316331Y14303253D01*
X24495501Y14357604D01*
X24660625Y14445864D01*
X24805357Y14564643D01*
X24924136Y14709375D01*
X25012396Y14874499D01*
X25032809Y14941792D01*
X32629500Y14941792D01*
X32644154Y14797682D01*
X32702026Y14613230D01*
X32795839Y14444211D01*
X32921447Y14297896D01*
X32921760Y14297532D01*
X33074627Y14179204D01*
X33248184Y14094070D01*
X33435326Y14045615D01*
X33628390Y14035824D01*
X33628390Y14035825D01*
X33628392Y14035824D01*
X33755779Y14055340D01*
X33819474Y14065097D01*
X34000753Y14132236D01*
X34164807Y14234491D01*
X34304919Y14367677D01*
X34415353Y14526342D01*
X34491587Y14703988D01*
X34530500Y14893344D01*
X34530500Y14941823D01*
X39130000Y14941823D01*
X39144647Y14797782D01*
X39202488Y14613428D01*
X39296252Y14444499D01*
X39422106Y14297896D01*
X39574891Y14179632D01*
X39748359Y14094542D01*
X39935402Y14046114D01*
X39980000Y14043852D01*
X39980000Y14044237D01*
X40180000Y14044237D01*
X40319343Y14065583D01*
X40500531Y14132688D01*
X40664501Y14234892D01*
X40804537Y14368006D01*
X40914912Y14526585D01*
X40991108Y14704141D01*
X41030000Y14893391D01*
X41030000Y15139999D01*
X41029999Y15140000D01*
X40180001Y15140000D01*
X40180000Y15139999D01*
X40180000Y14044237D01*
X39980000Y14044237D01*
X39980000Y15139999D01*
X39979999Y15140000D01*
X39130001Y15140000D01*
X39130000Y15139999D01*
X39130000Y14941823D01*
X34530500Y14941823D01*
X34530500Y15340001D01*
X39130000Y15340001D01*
X39130001Y15340000D01*
X39979999Y15340000D01*
X39980000Y15340001D01*
X39980000Y16435763D01*
X39979999Y16435764D01*
X39840656Y16414418D01*
X39659468Y16347313D01*
X39495498Y16245109D01*
X39355462Y16111995D01*
X39245087Y15953416D01*
X39168891Y15775860D01*
X39130000Y15586609D01*
X39130000Y15340001D01*
X34530500Y15340001D01*
X34530500Y15538206D01*
X34515845Y15682321D01*
X34457974Y15866768D01*
X34457973Y15866769D01*
X34457973Y15866771D01*
X34364160Y16035790D01*
X34238241Y16182467D01*
X34085372Y16300797D01*
X33911816Y16385930D01*
X33724672Y16434386D01*
X33689908Y16436149D01*
X40180000Y16436149D01*
X40180000Y15340001D01*
X40180001Y15340000D01*
X41029999Y15340000D01*
X41030000Y15340001D01*
X41030000Y15538177D01*
X41015352Y15682219D01*
X40957511Y15866573D01*
X40863747Y16035502D01*
X40737893Y16182105D01*
X40585108Y16300369D01*
X40411640Y16385459D01*
X40224597Y16433887D01*
X40180000Y16436149D01*
X33689908Y16436149D01*
X33531607Y16444177D01*
X33340526Y16414904D01*
X33159247Y16347765D01*
X32995192Y16245510D01*
X32855081Y16112323D01*
X32744647Y15953660D01*
X32668413Y15776014D01*
X32629500Y15586654D01*
X32629500Y14941792D01*
X25032809Y14941792D01*
X25066747Y15053669D01*
X25085099Y15240000D01*
X25066747Y15426331D01*
X25012396Y15605501D01*
X25012396Y15605502D01*
X24924137Y15770624D01*
X24845233Y15866768D01*
X24805357Y15915357D01*
X24661136Y16033717D01*
X24660623Y16034138D01*
X24495501Y16122397D01*
X24316329Y16176748D01*
X24130000Y16195100D01*
X23943670Y16176748D01*
X23764498Y16122397D01*
X23599376Y16034138D01*
X23454643Y15915357D01*
X23335862Y15770624D01*
X23247603Y15605502D01*
X23193252Y15426330D01*
X23174900Y15240001D01*
X22545099Y15240001D01*
X22526747Y15426331D01*
X22472396Y15605501D01*
X22472396Y15605502D01*
X22384137Y15770624D01*
X22305233Y15866768D01*
X22265357Y15915357D01*
X22121136Y16033717D01*
X22120623Y16034138D01*
X21955501Y16122397D01*
X21776329Y16176748D01*
X21590000Y16195100D01*
X21403670Y16176748D01*
X21224498Y16122397D01*
X21059376Y16034138D01*
X20914643Y15915357D01*
X20795862Y15770624D01*
X20707603Y15605502D01*
X20653252Y15426330D01*
X20634900Y15240001D01*
X20004597Y15240001D01*
X19986255Y15426232D01*
X19931934Y15605307D01*
X19843716Y15770349D01*
X19788748Y15837328D01*
X19191421Y15240001D01*
X18908577Y15240001D01*
X18311250Y15837328D01*
X18256282Y15770346D01*
X18168065Y15605307D01*
X18113744Y15426232D01*
X18095402Y15240000D01*
X17465099Y15240000D01*
X17446747Y15426331D01*
X17392396Y15605501D01*
X17392396Y15605502D01*
X17304137Y15770624D01*
X17225233Y15866768D01*
X17185357Y15915357D01*
X17108113Y15978750D01*
X18452672Y15978750D01*
X19049999Y15381423D01*
X19647326Y15978750D01*
X19580349Y16033717D01*
X19415306Y16121935D01*
X19236231Y16176256D01*
X19049999Y16194598D01*
X18863768Y16176256D01*
X18684693Y16121935D01*
X18519654Y16033718D01*
X18452672Y15978750D01*
X17108113Y15978750D01*
X17041136Y16033717D01*
X17040623Y16034138D01*
X16875501Y16122397D01*
X16696329Y16176748D01*
X16510000Y16195100D01*
X16323670Y16176748D01*
X16144498Y16122397D01*
X15979376Y16034138D01*
X15834643Y15915357D01*
X15715862Y15770624D01*
X15627603Y15605502D01*
X15573252Y15426330D01*
X15554900Y15240001D01*
X14925099Y15240001D01*
X14906747Y15426331D01*
X14852396Y15605501D01*
X14852396Y15605502D01*
X14764137Y15770624D01*
X14685233Y15866768D01*
X14645357Y15915357D01*
X14501136Y16033717D01*
X14500623Y16034138D01*
X14335501Y16122397D01*
X14156329Y16176748D01*
X13970000Y16195100D01*
X13783670Y16176748D01*
X13604498Y16122397D01*
X13439376Y16034138D01*
X13294643Y15915357D01*
X13175862Y15770624D01*
X13087603Y15605502D01*
X13033252Y15426330D01*
X13014900Y15240001D01*
X12385099Y15240001D01*
X12366747Y15426331D01*
X12312396Y15605501D01*
X12312396Y15605502D01*
X12224137Y15770624D01*
X12145233Y15866768D01*
X12105357Y15915357D01*
X11961136Y16033717D01*
X11960623Y16034138D01*
X11795501Y16122397D01*
X11616329Y16176748D01*
X11430000Y16195100D01*
X11243670Y16176748D01*
X11064498Y16122397D01*
X10899376Y16034138D01*
X10754643Y15915357D01*
X10635862Y15770624D01*
X10547603Y15605502D01*
X10493252Y15426330D01*
X10474900Y15240000D01*
X9845099Y15240000D01*
X9826747Y15426331D01*
X9772396Y15605501D01*
X9772396Y15605502D01*
X9684137Y15770624D01*
X9605233Y15866768D01*
X9565357Y15915357D01*
X9421136Y16033717D01*
X9420623Y16034138D01*
X9255501Y16122397D01*
X9076329Y16176748D01*
X8890000Y16195100D01*
X8703670Y16176748D01*
X8524498Y16122397D01*
X8359376Y16034138D01*
X8214643Y15915357D01*
X8095862Y15770624D01*
X8007603Y15605502D01*
X7953252Y15426330D01*
X7934900Y15240000D01*
X7304597Y15240000D01*
X7304597Y15240001D01*
X7286255Y15426232D01*
X7231934Y15605307D01*
X7143716Y15770349D01*
X7088748Y15837328D01*
X6491421Y15240001D01*
X6208577Y15240001D01*
X5611250Y15837328D01*
X5556282Y15770346D01*
X5468065Y15605307D01*
X5413744Y15426232D01*
X5395402Y15240001D01*
X4765099Y15240001D01*
X4746747Y15426331D01*
X4692396Y15605501D01*
X4692396Y15605502D01*
X4604137Y15770624D01*
X4525233Y15866768D01*
X4485357Y15915357D01*
X4408113Y15978750D01*
X5752672Y15978750D01*
X6349999Y15381423D01*
X6947326Y15978750D01*
X6880349Y16033717D01*
X6715306Y16121935D01*
X6536231Y16176256D01*
X6349999Y16194598D01*
X6163768Y16176256D01*
X5984693Y16121935D01*
X5819654Y16033718D01*
X5752672Y15978750D01*
X4408113Y15978750D01*
X4341136Y16033717D01*
X4340623Y16034138D01*
X4175501Y16122397D01*
X3996329Y16176748D01*
X3810000Y16195100D01*
X3623670Y16176748D01*
X3444498Y16122397D01*
X3279376Y16034138D01*
X3134643Y15915357D01*
X3015862Y15770624D01*
X2927603Y15605502D01*
X2873252Y15426330D01*
X2854900Y15240000D01*
X2225099Y15240000D01*
X2206747Y15426331D01*
X2152396Y15605501D01*
X2152396Y15605502D01*
X2064137Y15770624D01*
X1985233Y15866768D01*
X1945357Y15915357D01*
X1801136Y16033717D01*
X1800623Y16034138D01*
X1635501Y16122397D01*
X1456329Y16176748D01*
X1270000Y16195100D01*
X1083670Y16176748D01*
X904498Y16122397D01*
X739376Y16034138D01*
X594643Y15915357D01*
X475862Y15770624D01*
X387603Y15605502D01*
X333252Y15426330D01*
X314900Y15240000D01*
X-314901Y15240000D01*
X-333253Y15426331D01*
X-387604Y15605501D01*
X-387604Y15605502D01*
X-475863Y15770624D01*
X-554767Y15866768D01*
X-594643Y15915357D01*
X-738864Y16033717D01*
X-739377Y16034138D01*
X-904499Y16122397D01*
X-1083671Y16176748D01*
X-1270000Y16195100D01*
X-1456330Y16176748D01*
X-1635502Y16122397D01*
X-1800624Y16034138D01*
X-1945357Y15915357D01*
X-2064138Y15770624D01*
X-2152397Y15605502D01*
X-2206748Y15426330D01*
X-2225100Y15240000D01*
X-2854901Y15240000D01*
X-2873253Y15426331D01*
X-2927604Y15605501D01*
X-2927604Y15605502D01*
X-3015863Y15770624D01*
X-3094767Y15866768D01*
X-3134643Y15915357D01*
X-3278864Y16033717D01*
X-3279377Y16034138D01*
X-3444499Y16122397D01*
X-3623671Y16176748D01*
X-3810000Y16195100D01*
X-3996330Y16176748D01*
X-4175502Y16122397D01*
X-4340624Y16034138D01*
X-4485357Y15915357D01*
X-4604138Y15770624D01*
X-4692397Y15605502D01*
X-4746748Y15426330D01*
X-4765100Y15240000D01*
X-5395403Y15240000D01*
X-5395403Y15240001D01*
X-5413745Y15426232D01*
X-5468066Y15605307D01*
X-5556284Y15770349D01*
X-5611252Y15837328D01*
X-6208579Y15240001D01*
X-6491423Y15240001D01*
X-7088750Y15837328D01*
X-7143718Y15770346D01*
X-7231935Y15605307D01*
X-7286256Y15426232D01*
X-7304598Y15240001D01*
X-7934901Y15240001D01*
X-7953253Y15426331D01*
X-8007604Y15605501D01*
X-8007604Y15605502D01*
X-8095863Y15770624D01*
X-8174767Y15866768D01*
X-8214643Y15915357D01*
X-8291887Y15978750D01*
X-6947328Y15978750D01*
X-6350001Y15381423D01*
X-5752674Y15978750D01*
X-5819651Y16033717D01*
X-5984694Y16121935D01*
X-6163769Y16176256D01*
X-6350001Y16194598D01*
X-6536232Y16176256D01*
X-6715307Y16121935D01*
X-6880346Y16033718D01*
X-6947328Y15978750D01*
X-8291887Y15978750D01*
X-8358864Y16033717D01*
X-8359377Y16034138D01*
X-8524499Y16122397D01*
X-8703671Y16176748D01*
X-8890000Y16195100D01*
X-9076330Y16176748D01*
X-9255502Y16122397D01*
X-9420624Y16034138D01*
X-9565357Y15915357D01*
X-9684138Y15770624D01*
X-9772397Y15605502D01*
X-9826748Y15426330D01*
X-9845100Y15240000D01*
X-10474901Y15240000D01*
X-10493253Y15426331D01*
X-10547604Y15605501D01*
X-10547604Y15605502D01*
X-10635863Y15770624D01*
X-10714767Y15866768D01*
X-10754643Y15915357D01*
X-10898864Y16033717D01*
X-10899377Y16034138D01*
X-11064499Y16122397D01*
X-11243671Y16176748D01*
X-11430000Y16195100D01*
X-11616330Y16176748D01*
X-11795502Y16122397D01*
X-11960624Y16034138D01*
X-12105357Y15915357D01*
X-12224138Y15770624D01*
X-12312397Y15605502D01*
X-12366748Y15426330D01*
X-12385100Y15240000D01*
X-13014901Y15240000D01*
X-13033253Y15426331D01*
X-13087604Y15605501D01*
X-13087604Y15605502D01*
X-13175863Y15770624D01*
X-13254767Y15866768D01*
X-13294643Y15915357D01*
X-13438864Y16033717D01*
X-13439377Y16034138D01*
X-13604499Y16122397D01*
X-13783671Y16176748D01*
X-13970000Y16195100D01*
X-14156330Y16176748D01*
X-14335502Y16122397D01*
X-14500624Y16034138D01*
X-14645357Y15915357D01*
X-14764138Y15770624D01*
X-14852397Y15605502D01*
X-14906748Y15426330D01*
X-14925100Y15240001D01*
X-15554901Y15240001D01*
X-15573253Y15426331D01*
X-15627604Y15605501D01*
X-15627604Y15605502D01*
X-15715863Y15770624D01*
X-15794767Y15866768D01*
X-15834643Y15915357D01*
X-15978864Y16033717D01*
X-15979377Y16034138D01*
X-16144499Y16122397D01*
X-16323671Y16176748D01*
X-16510000Y16195100D01*
X-16696330Y16176748D01*
X-16875502Y16122397D01*
X-17040624Y16034138D01*
X-17185357Y15915357D01*
X-17304138Y15770624D01*
X-17392397Y15605502D01*
X-17446748Y15426330D01*
X-17465100Y15240000D01*
X-18095403Y15240000D01*
X-18113745Y15426232D01*
X-18168066Y15605307D01*
X-18256284Y15770349D01*
X-18311252Y15837328D01*
X-18908579Y15240001D01*
X-19191423Y15240001D01*
X-19788750Y15837328D01*
X-19843718Y15770346D01*
X-19931935Y15605307D01*
X-19986256Y15426232D01*
X-20004598Y15240000D01*
X-20634901Y15240000D01*
X-20653253Y15426331D01*
X-20707604Y15605501D01*
X-20707604Y15605502D01*
X-20795863Y15770624D01*
X-20874767Y15866768D01*
X-20914643Y15915357D01*
X-20991887Y15978750D01*
X-19647328Y15978750D01*
X-19050001Y15381423D01*
X-18452674Y15978750D01*
X-18519651Y16033717D01*
X-18684694Y16121935D01*
X-18863769Y16176256D01*
X-19050001Y16194598D01*
X-19236232Y16176256D01*
X-19415307Y16121935D01*
X-19580346Y16033718D01*
X-19647328Y15978750D01*
X-20991887Y15978750D01*
X-21058864Y16033717D01*
X-21059377Y16034138D01*
X-21224499Y16122397D01*
X-21403671Y16176748D01*
X-21590000Y16195100D01*
X-21776329Y16176748D01*
X-21955501Y16122397D01*
X-22120623Y16034138D01*
X-22121136Y16033717D01*
X-22265357Y15915357D01*
X-22305233Y15866768D01*
X-22384137Y15770624D01*
X-22472396Y15605502D01*
X-22472396Y15605501D01*
X-22526747Y15426331D01*
X-22545099Y15240000D01*
X-23174900Y15240000D01*
X-23193252Y15426330D01*
X-23247603Y15605502D01*
X-23335862Y15770624D01*
X-23454643Y15915357D01*
X-23599376Y16034138D01*
X-23764498Y16122397D01*
X-23943670Y16176748D01*
X-24130000Y16195100D01*
X-24316329Y16176748D01*
X-24495501Y16122397D01*
X-24660623Y16034138D01*
X-24661136Y16033717D01*
X-24805357Y15915357D01*
X-24845233Y15866768D01*
X-24924137Y15770624D01*
X-25012396Y15605502D01*
X-25012396Y15605501D01*
X-25066747Y15426331D01*
X-25085099Y15240000D01*
X-33924500Y15240000D01*
X-33924500Y18401000D01*
X-33911237Y18450500D01*
X-33875000Y18486737D01*
X-33825500Y18500000D01*
X-29000001Y18500000D01*
X-29000000Y18500000D01*
X-26500000Y20500000D01*
X-26499999Y20500001D01*
X-25657507Y23027480D01*
X-25500000Y23500000D01*
X-25500000Y26825500D01*
X-25486737Y26875000D01*
X-25450500Y26911237D01*
X-25401000Y26924500D01*
X39401000Y26924500D01*
X39450500Y26911237D01*
G37*
G04 #@! TD.AperFunction*
G04 #@! TD*
M02*
